<svg width="24" height="25" viewBox="0 0 24 25" fill="none" xmlns="http://www.w3.org/2000/svg">
<path d="M4.5 22.2983C4.1 22.2983 3.75 22.1483 3.45 21.8483C3.15 21.5483 3 21.1983 3 20.7983V5.29828C3 4.89828 3.15 4.54828 3.45 4.24828C3.75 3.94828 4.1 3.79828 4.5 3.79828H6.125V3.09828C6.125 2.87161 6.20167 2.68161 6.355 2.52828C6.50833 2.37495 6.69833 2.29828 6.925 2.29828C7.15875 2.29828 7.35469 2.37495 7.51283 2.52828C7.67094 2.68161 7.75 2.87161 7.75 3.09828V3.79828H16.25V3.09828C16.25 2.87161 16.3267 2.68161 16.48 2.52828C16.6333 2.37495 16.8233 2.29828 17.05 2.29828C17.2838 2.29828 17.4797 2.37495 17.6378 2.52828C17.7959 2.68161 17.875 2.87161 17.875 3.09828V3.79828H19.5C19.9 3.79828 20.25 3.94828 20.55 4.24828C20.85 4.54828 21 4.89828 21 5.29828V20.7983C21 21.1983 20.85 21.5483 20.55 21.8483C20.25 22.1483 19.9 22.2983 19.5 22.2983H4.5ZM4.5 20.7983H19.5V10.0483H4.5V20.7983ZM12 14.2983C11.7167 14.2983 11.4792 14.2024 11.2875 14.0108C11.0958 13.8191 11 13.5816 11 13.2983C11 13.0149 11.0958 12.7774 11.2875 12.5858C11.4792 12.3941 11.7167 12.2983 12 12.2983C12.2833 12.2983 12.5208 12.3941 12.7125 12.5858C12.9042 12.7774 13 13.0149 13 13.2983C13 13.5816 12.9042 13.8191 12.7125 14.0108C12.5208 14.2024 12.2833 14.2983 12 14.2983ZM8 14.2983C7.71667 14.2983 7.47917 14.2024 7.2875 14.0108C7.09583 13.8191 7 13.5816 7 13.2983C7 13.0149 7.09583 12.7774 7.2875 12.5858C7.47917 12.3941 7.71667 12.2983 8 12.2983C8.28333 12.2983 8.52083 12.3941 8.7125 12.5858C8.90417 12.7774 9 13.0149 9 13.2983C9 13.5816 8.90417 13.8191 8.7125 14.0108C8.52083 14.2024 8.28333 14.2983 8 14.2983ZM16 14.2983C15.7167 14.2983 15.4792 14.2024 15.2875 14.0108C15.0958 13.8191 15 13.5816 15 13.2983C15 13.0149 15.0958 12.7774 15.2875 12.5858C15.4792 12.3941 15.7167 12.2983 16 12.2983C16.2833 12.2983 16.5208 12.3941 16.7125 12.5858C16.9042 12.7774 17 13.0149 17 13.2983C17 13.5816 16.9042 13.8191 16.7125 14.0108C16.5208 14.2024 16.2833 14.2983 16 14.2983ZM12 18.2983C11.7167 18.2983 11.4792 18.2024 11.2875 18.0108C11.0958 17.8191 11 17.5816 11 17.2983C11 17.0149 11.0958 16.7774 11.2875 16.5858C11.4792 16.3941 11.7167 16.2983 12 16.2983C12.2833 16.2983 12.5208 16.3941 12.7125 16.5858C12.9042 16.7774 13 17.0149 13 17.2983C13 17.5816 12.9042 17.8191 12.7125 18.0108C12.5208 18.2024 12.2833 18.2983 12 18.2983ZM8 18.2983C7.71667 18.2983 7.47917 18.2024 7.2875 18.0108C7.09583 17.8191 7 17.5816 7 17.2983C7 17.0149 7.09583 16.7774 7.2875 16.5858C7.47917 16.3941 7.71667 16.2983 8 16.2983C8.28333 16.2983 8.52083 16.3941 8.7125 16.5858C8.90417 16.7774 9 17.0149 9 17.2983C9 17.5816 8.90417 17.8191 8.7125 18.0108C8.52083 18.2024 8.28333 18.2983 8 18.2983ZM16 18.2983C15.7167 18.2983 15.4792 18.2024 15.2875 18.0108C15.0958 17.8191 15 17.5816 15 17.2983C15 17.0149 15.0958 16.7774 15.2875 16.5858C15.4792 16.3941 15.7167 16.2983 16 16.2983C16.2833 16.2983 16.5208 16.3941 16.7125 16.5858C16.9042 16.7774 17 17.0149 17 17.2983C17 17.5816 16.9042 17.8191 16.7125 18.0108C16.5208 18.2024 16.2833 18.2983 16 18.2983Z" fill="#7A7E86" fill-opacity="0.7"/>
</svg>
