<svg width="25" height="25" viewBox="0 0 25 25" fill="none" xmlns="http://www.w3.org/2000/svg">
<g clip-path="url(#clip0_165_1925)">
<path d="M11.2552 0.109478C9.43174 0.334478 7.66455 0.990728 6.14111 2.00323C3.77861 3.57354 2.0583 5.87041 1.25205 8.54229C1.05986 9.16104 0.872363 10.1032 0.802051 10.736C0.741113 11.322 0.741113 12.7564 0.802051 13.3423C1.3083 18.0954 4.66924 22.1548 9.2583 23.5423C9.87705 23.7345 10.8192 23.922 11.4521 23.9923C12.038 24.0532 13.4724 24.0532 14.0583 23.9923C16.8333 23.697 19.4067 22.436 21.3849 20.4017C22.7396 19.0001 23.7005 17.3782 24.2583 15.536C24.6052 14.397 24.7552 13.3423 24.7552 12.0392C24.7552 11.0595 24.7083 10.5204 24.5396 9.67198C23.6911 5.35948 20.4755 1.81573 16.2521 0.536041C15.6333 0.343853 14.6911 0.156353 14.0583 0.0860405C13.4442 0.0204144 11.8599 0.0344772 11.2552 0.109478ZM13.3974 5.02666C13.5286 5.13917 13.5286 5.14385 13.5427 5.8001L13.5614 6.45635L13.7067 6.47979C13.7911 6.49385 14.0067 6.51729 14.1849 6.53135C14.6021 6.56417 15.3052 6.72823 15.5302 6.84073C15.7317 6.94385 15.8911 7.15479 15.9286 7.36104C15.9567 7.55323 15.7927 8.21885 15.6708 8.37823C15.6239 8.44385 15.5114 8.55167 15.4224 8.60792C15.2349 8.73917 15.0567 8.72979 14.4989 8.5751C13.3786 8.26573 12.2302 8.3501 11.8317 8.76729C11.6302 8.98292 11.5833 9.09542 11.5833 9.36729C11.5833 9.94854 11.9114 10.1923 13.6646 10.9095C14.2552 11.1532 14.8411 11.4298 15.0802 11.5751C16.0974 12.2079 16.5521 12.9954 16.5521 14.1251C16.5521 15.086 16.1911 15.8689 15.4646 16.4829C15.0802 16.8064 14.4333 17.1251 13.8942 17.2564L13.4583 17.3595V18.1235C13.4583 18.8735 13.4536 18.8876 13.3411 19.0001C13.2333 19.1126 13.2005 19.1173 12.6474 19.1173C12.1271 19.1173 12.0521 19.1079 11.9396 19.0189L11.8177 18.9251V18.2079V17.4907L11.3302 17.4392C10.2708 17.322 9.45049 17.0876 9.1833 16.8251C8.94893 16.586 8.9208 16.4032 9.05205 15.9204C9.1833 15.4376 9.24893 15.3064 9.42705 15.1798C9.65674 15.0157 9.83486 15.0157 10.3224 15.1704C12.3708 15.8267 13.9317 15.4751 13.9271 14.3642C13.9224 14.0876 13.7864 13.8251 13.5192 13.586C13.2333 13.3282 12.8583 13.1407 12.0333 12.836C11.1896 12.5267 10.7583 12.3251 10.2942 12.0157C9.36143 11.397 8.93955 10.6517 8.94893 9.64854C8.9583 8.17198 9.94736 7.08448 11.6677 6.64854L11.8646 6.59698V5.96416C11.8646 5.27042 11.9208 5.04073 12.1083 4.96104C12.1692 4.9376 12.4505 4.91885 12.7411 4.91885C13.2286 4.91417 13.2755 4.92354 13.3974 5.02666Z" fill="#BC70DF"/>
</g>
<defs>
<clipPath id="clip0_165_1925">
<rect width="24" height="24" fill="white" transform="translate(0.755371 0.0391541)"/>
</clipPath>
</defs>
</svg>
