<svg width="25" height="25" viewBox="0 0 25 25" fill="none" xmlns="http://www.w3.org/2000/svg">
<path d="M12.5022 1.74948C11.135 3.81314 10.3998 6.36048 10.5998 8.33386C10.6836 9.17867 10.8384 9.78487 11.1802 10.5974C11.5155 11.4165 11.6187 11.984 11.5091 12.4741C11.1673 14.0089 9.1294 14.4991 7.87186 13.3511C7.22696 12.7578 6.86582 11.7518 6.81423 10.3459C6.78843 9.70749 6.80778 9.37859 6.88517 8.97231C7.03349 8.26292 7.31725 7.47615 7.6268 6.96668C7.76867 6.73452 7.86541 6.5346 7.85251 6.52171C7.83316 6.50236 7.53006 6.77966 7.17537 7.13436C4.76991 9.52047 3.76387 11.7131 3.75098 14.6087C3.75098 15.7437 3.86706 16.4982 4.18306 17.4591C5.17619 20.4385 7.74933 22.6505 10.8577 23.1858C11.6574 23.3277 13.0246 23.3277 13.8242 23.1858C16.32 22.7537 18.5642 21.1802 19.8282 18.9682C20.6795 17.4849 21.0406 15.7888 20.9116 13.8993C20.7246 11.1972 19.667 9.46243 16.9197 7.36007C14.6562 5.63175 13.9532 4.67731 13.1664 2.29119C12.9923 1.76238 12.8376 1.3174 12.8311 1.3045C12.8182 1.29805 12.6763 1.49797 12.5022 1.74948Z" fill="url(#paint0_linear_165_2037)"/>
<defs>
<linearGradient id="paint0_linear_165_2037" x1="12.344" y1="23.2922" x2="12.344" y2="1.30435" gradientUnits="userSpaceOnUse">
<stop stop-color="#8708C2"/>
<stop offset="0.427083" stop-color="#F00458"/>
<stop offset="0.8125" stop-color="#FF4B4B" stop-opacity="0.5"/>
</linearGradient>
</defs>
</svg>
