<svg width="24" height="25" viewBox="0 0 24 25" fill="none" xmlns="http://www.w3.org/2000/svg">
<path d="M11.2736 2.29984C7.36895 2.62328 4.06426 5.07016 2.64863 8.69828C2.19395 9.87484 1.99707 10.9483 1.99707 12.2983C1.99707 13.4186 2.11895 14.2623 2.42363 15.228C2.54551 15.6264 2.86426 16.4233 2.89707 16.4233C2.91582 16.4233 4.02676 15.3264 5.36738 13.9858L7.80488 11.5483L9.19707 12.9405L10.5939 14.3373L12.2111 12.7202L13.8283 11.103L12.9283 10.203L12.0236 9.29828H14.4986H16.9689V11.7686V14.2436L16.0783 13.353L15.1877 12.4623L12.8908 14.7592L10.5939 17.0561L9.19707 15.6592L7.80488 14.267L5.83613 16.2358L3.87207 18.1998L3.99395 18.3733C4.8002 19.5077 6.25801 20.6842 7.68301 21.3592C11.5127 23.1639 16.083 22.3717 19.0783 19.3764C23.8596 14.5952 22.6361 6.58422 16.6408 3.42484C15.0096 2.56703 13.0408 2.14984 11.2736 2.29984Z" fill="#7A7E86" fill-opacity="0.7"/>
</svg>
