<svg width="24" height="25" viewBox="0 0 24 25" fill="none" xmlns="http://www.w3.org/2000/svg">
<path d="M6.12809 5.57373C0.867456 7.78014 0.430387 7.97498 0.325069 8.13296C0.161826 8.37519 0.161826 8.7438 0.325069 8.98603C0.425121 9.13348 0.577832 9.21773 1.33612 9.53895C1.83112 9.74432 4.37454 10.8238 6.99696 11.9349C11.1307 13.6832 11.7995 13.9518 12.0259 13.9518C12.2523 13.9518 12.8632 13.7095 16.6072 12.1192C18.9821 11.1082 20.9779 10.2656 21.0464 10.2393L21.1622 10.1919V12.9302V15.6632L20.9779 15.7527C20.7304 15.8686 20.504 16.1529 20.3618 16.511C20.2144 16.8954 20.2038 17.5431 20.3355 17.8907L20.4303 18.1382L20.109 19.581C19.8563 20.7132 19.7984 21.0555 19.8405 21.1608C19.9458 21.4346 20.2986 21.4873 20.6304 21.2819C21.1833 20.9291 21.7836 20.9133 22.3997 21.224C22.5998 21.324 22.842 21.4083 22.9316 21.4083C23.1475 21.4083 23.3212 21.2187 23.3212 20.9817C23.3212 20.8817 23.1422 20.1971 22.9316 19.4599C22.5577 18.1487 22.5472 18.1171 22.6261 17.9328C22.6788 17.8117 22.7104 17.58 22.7104 17.2746C22.7157 16.669 22.6051 16.3267 22.2891 15.9949L22.0574 15.7527L22.068 12.7775L22.0838 9.80225L22.505 9.62321C23.4266 9.23353 23.5793 9.14927 23.6899 8.97023C23.8952 8.63322 23.7952 8.14875 23.4845 7.96445C23.4055 7.92232 20.8463 6.82701 17.7921 5.53687C13.5319 3.73593 12.1891 3.18828 12.0259 3.18828C11.8679 3.18828 10.3987 3.78333 6.12809 5.57373Z" fill="#7A7E86" fill-opacity="0.7"/>
<path d="M4.79601 14.4659C4.81181 16.5043 4.81181 16.5384 4.93292 16.7579C5.0909 17.0553 5.29627 17.226 5.86499 17.5479C7.16566 18.2745 8.48214 18.7378 10.025 19.006C10.8781 19.1523 12.9266 19.1669 13.8007 19.0304C15.1277 18.8207 16.1545 18.5134 17.3446 17.9673C18.6401 17.3723 19.0929 17.0212 19.2088 16.5092C19.2825 16.2019 19.2878 12.4128 19.2193 12.4128C19.193 12.4128 17.6869 12.9931 15.8755 13.7051C14.0587 14.4171 12.4684 15.0218 12.3368 15.051C12.2051 15.0852 11.9892 15.0949 11.8576 15.0754C11.7207 15.0608 10.1725 14.4805 8.29257 13.749C6.4653 13.0321 4.92766 12.4372 4.875 12.4225C4.78548 12.403 4.78021 12.4908 4.79601 14.4659Z" fill="#7A7E86" fill-opacity="0.7"/>
</svg>
