<svg width="44" height="45" viewBox="0 0 44 45" fill="none" xmlns="http://www.w3.org/2000/svg">
<rect opacity="0.8" y="0.0391541" width="44" height="44" rx="10" fill="#F9EBFF"/>
<g clip-path="url(#clip0_165_1890)">
<path d="M21.0155 10.072C20.1952 10.2032 19.4827 10.447 18.9342 10.7751C18.0858 11.2813 17.3124 12.0501 16.8061 12.8845C16.5436 13.3157 16.3092 13.9157 16.178 14.4688C16.042 15.0548 16.0092 16.2267 16.1124 16.8173C16.4124 18.5423 17.4483 20.0048 19.0092 20.9001C20.5467 21.7813 22.5952 21.8563 24.278 21.097C24.8405 20.8438 25.3702 20.4548 25.9186 19.911C27.1467 18.6829 27.6858 17.286 27.6108 15.561C27.5405 14.0282 27.0202 12.8235 25.9514 11.7407C25.0983 10.8735 24.0342 10.3157 22.8577 10.1095C22.4874 10.0438 21.3249 10.0204 21.0155 10.072Z" fill="#BC70DF"/>
<path d="M16.6094 21.6454C16.0187 21.7345 15.625 21.8517 15.1469 22.0907C14.2328 22.5407 13.5437 23.286 13 24.4063C12.3156 25.8173 11.9688 27.547 11.9688 29.5907C11.9688 30.8282 12.0578 31.2688 12.4516 32.047C12.5969 32.3329 12.7469 32.5251 13.0703 32.8485C13.5297 33.3126 13.9281 33.5751 14.4859 33.772C15.2594 34.0532 15.0016 34.0438 22.1687 34.0298L28.7266 34.0157L29.125 33.8938C29.6312 33.7345 29.8984 33.6173 30.2359 33.4017C31.0187 32.9048 31.5953 32.1173 31.8437 31.2267C31.9937 30.6688 32.0359 30.0032 31.9844 28.9767C31.75 24.3829 30.0062 21.7954 27.0391 21.6313C26.4016 21.5985 26.3922 21.5985 25.3 22.3017C24.4562 22.8407 23.8703 23.1079 23.0922 23.3095C22.5062 23.4642 21.4562 23.4642 20.875 23.3142C20.0453 23.0985 19.4875 22.8407 18.6437 22.2923C18.3344 22.0907 17.9547 21.8563 17.7906 21.772C17.5187 21.6313 17.4578 21.6173 17.1109 21.622C16.9 21.6267 16.675 21.636 16.6094 21.6454Z" fill="#BC70DF"/>
</g>
<defs>
<clipPath id="clip0_165_1890">
<rect width="24" height="24" fill="white" transform="translate(10 10.0392)"/>
</clipPath>
</defs>
</svg>
