<svg width="45" height="45" viewBox="0 0 45 45" fill="none" xmlns="http://www.w3.org/2000/svg">
<rect opacity="0.8" x="0.755371" y="0.0391541" width="44" height="44" rx="10" fill="#F9EBFF"/>
<g opacity="0.5" clip-path="url(#clip0_165_1904)">
<path d="M29.0172 16.0638C28.402 16.1622 27.8676 16.345 27.4563 16.5911C26.82 16.9708 26.2399 17.5473 25.8602 18.1731C25.6633 18.4966 25.4875 18.9466 25.3891 19.3614C25.2871 19.8009 25.2625 20.6798 25.3399 21.1227C25.5649 22.4165 26.3418 23.5134 27.5125 24.1848C28.6657 24.8458 30.202 24.902 31.4641 24.3325C31.886 24.1427 32.2832 23.8509 32.6946 23.443C33.6157 22.522 34.02 21.4743 33.9637 20.1805C33.911 19.0309 33.5207 18.1274 32.7192 17.3153C32.0793 16.6649 31.2813 16.2466 30.3989 16.0919C30.1211 16.0427 29.2493 16.0251 29.0172 16.0638Z" fill="#996CAE"/>
<path d="M25.7124 24.7438C25.2694 24.8106 24.9741 24.8985 24.6155 25.0778C23.93 25.4153 23.4132 25.9743 23.0054 26.8145C22.4921 27.8727 22.2319 29.17 22.2319 30.7028C22.2319 31.6309 22.2987 31.9614 22.594 32.545C22.703 32.7595 22.8155 32.9036 23.0581 33.1462C23.4026 33.4942 23.7015 33.6911 24.1198 33.8388C24.6999 34.0497 24.5065 34.0427 29.8819 34.0321L34.8003 34.0216L35.0991 33.9302C35.4788 33.8106 35.6792 33.7227 35.9323 33.561C36.5194 33.1884 36.9519 32.5977 37.1382 31.9298C37.2507 31.5114 37.2823 31.0122 37.2436 30.2423C37.0679 26.797 35.7601 24.8563 33.5347 24.7333C33.0565 24.7087 33.0495 24.7087 32.2304 25.236C31.5976 25.6403 31.1581 25.8407 30.5745 25.9919C30.1351 26.1079 29.3476 26.1079 28.9116 25.9954C28.2894 25.8337 27.871 25.6403 27.2382 25.229C27.0062 25.0778 26.7214 24.902 26.5983 24.8388C26.3944 24.7333 26.3487 24.7227 26.0886 24.7263C25.9304 24.7298 25.7616 24.7368 25.7124 24.7438Z" fill="#996CAE"/>
</g>
<g clip-path="url(#clip1_165_1904)">
<path d="M17.7709 10.072C16.9505 10.2032 16.238 10.447 15.6896 10.7751C14.8412 11.2813 14.0677 12.0501 13.5615 12.8845C13.299 13.3157 13.0646 13.9157 12.9334 14.4688C12.7974 15.0548 12.7646 16.2267 12.8677 16.8173C13.1677 18.5423 14.2037 20.0048 15.7646 20.9001C17.3021 21.7813 19.3505 21.8563 21.0334 21.097C21.5959 20.8438 22.1255 20.4548 22.674 19.911C23.9021 18.6829 24.4412 17.286 24.3662 15.561C24.2959 14.0282 23.7755 12.8235 22.7068 11.7407C21.8537 10.8735 20.7896 10.3157 19.613 10.1095C19.2427 10.0438 18.0802 10.0204 17.7709 10.072Z" fill="#BC70DF"/>
<path d="M13.3647 21.6454C12.7741 21.7345 12.3804 21.8517 11.9022 22.0907C10.9882 22.5407 10.2991 23.286 9.75537 24.4063C9.071 25.8173 8.72412 27.547 8.72412 29.5907C8.72412 30.8282 8.81318 31.2688 9.20693 32.047C9.35225 32.3329 9.50225 32.5251 9.82568 32.8485C10.2851 33.3126 10.6835 33.5751 11.2413 33.772C12.0147 34.0532 11.7569 34.0438 18.9241 34.0298L25.4819 34.0157L25.8804 33.8938C26.3866 33.7345 26.6538 33.6173 26.9913 33.4017C27.7741 32.9048 28.3507 32.1173 28.5991 31.2267C28.7491 30.6688 28.7913 30.0032 28.7397 28.9767C28.5054 24.3829 26.7616 21.7954 23.7944 21.6313C23.1569 21.5985 23.1476 21.5985 22.0554 22.3017C21.2116 22.8407 20.6257 23.1079 19.8476 23.3095C19.2616 23.4642 18.2116 23.4642 17.6304 23.3142C16.8007 23.0985 16.2429 22.8407 15.3991 22.2923C15.0897 22.0907 14.7101 21.8563 14.546 21.772C14.2741 21.6313 14.2132 21.6173 13.8663 21.622C13.6554 21.6267 13.4304 21.636 13.3647 21.6454Z" fill="#BC70DF"/>
</g>
<defs>
<clipPath id="clip0_165_1904">
<rect width="18" height="18" fill="white" transform="translate(20.7554 16.0392)"/>
</clipPath>
<clipPath id="clip1_165_1904">
<rect width="24" height="24" fill="white" transform="translate(6.75537 10.0392)"/>
</clipPath>
</defs>
</svg>
