<svg width="49" height="49" viewBox="0 0 49 49" fill="none" xmlns="http://www.w3.org/2000/svg">
<rect x="0.755371" y="0.780365" width="48" height="48" rx="8" fill="#F0F0F0"/>
<g clip-path="url(#clip0_165_1869)">
<path d="M21.4882 13.596C21.0429 13.7038 20.6304 13.9429 20.2788 14.2991C19.6929 14.8851 19.4772 15.4616 19.5194 16.296C19.5382 16.5679 19.5616 16.8398 19.5757 16.9054C19.6038 17.0132 19.5804 17.0366 19.3132 17.1632C17.9444 17.8101 16.7444 19.1038 16.196 20.5241C15.8116 21.5132 15.7929 21.6351 15.7507 23.7257C15.7085 25.8069 15.6569 26.3319 15.4085 27.321C15.071 28.6523 14.5272 29.8148 13.6647 31.0335C13.5288 31.2257 13.5054 31.3007 13.5054 31.5163C13.5054 31.8257 13.5944 32.0085 13.8194 32.1632L13.9976 32.2804H15.9991H18.0054V32.5476C18.0101 33.4898 18.5772 34.6851 19.3366 35.3554C19.8663 35.8241 20.6022 36.1991 21.2632 36.3351C21.7132 36.4288 22.5522 36.4241 23.0116 36.3304C24.5632 36.0116 25.8616 34.7132 26.1804 33.1616C26.2226 32.9648 26.2554 32.6835 26.2554 32.5382V32.2804H28.2616C30.1741 32.2804 30.2679 32.2757 30.4179 32.1866C30.6429 32.046 30.7554 31.8351 30.7554 31.5304C30.7554 31.2819 30.7366 31.2444 30.3241 30.6163C29.8554 29.9085 29.4569 29.1351 29.2085 28.4601C29.021 27.9491 28.9319 27.8132 28.721 27.7148C28.1866 27.4616 27.596 27.8179 27.6007 28.3851C27.6007 28.7085 28.0741 29.8898 28.4632 30.5554L28.5944 30.7804H22.1538C18.6101 30.7804 15.7085 30.771 15.7085 30.7569C15.7085 30.7429 15.7929 30.5788 15.8913 30.3913C16.3507 29.5523 16.8101 28.2773 17.0163 27.2882C17.2085 26.3507 17.2554 25.7741 17.2554 24.3913C17.2554 22.2866 17.3397 21.7007 17.771 20.8194C18.4038 19.5116 19.5147 18.6023 20.9351 18.2273C21.3476 18.1194 21.5866 18.0866 22.1632 18.0585C22.6038 18.0398 22.796 17.9554 22.9601 17.7023C23.1101 17.4866 23.1101 17.0741 22.9601 16.8585C22.7726 16.5726 22.5944 16.5069 22.0366 16.5069C21.7647 16.5069 21.446 16.521 21.3241 16.5398C21.1085 16.5726 21.1038 16.5726 21.0757 16.4272C20.9163 15.7148 21.4132 15.0773 22.1163 15.0773C22.4726 15.0819 22.7069 15.1898 22.9976 15.4991C23.3632 15.8835 23.6538 15.9632 24.0335 15.7804C24.3569 15.621 24.4976 15.2976 24.4132 14.8944C24.3804 14.7304 24.3054 14.6226 24.0147 14.3273C23.621 13.9335 23.1804 13.6804 22.7022 13.5819C22.3788 13.5163 21.7976 13.521 21.4882 13.596ZM24.7085 32.3648C24.7085 32.4163 24.6663 32.5757 24.6147 32.7257C24.2538 33.7804 23.2788 34.4835 22.1866 34.4882C21.6054 34.4929 21.2069 34.3804 20.7569 34.0944C20.2179 33.7476 19.7304 33.0632 19.6038 32.4773L19.5616 32.2804H22.1351C24.6054 32.2804 24.7085 32.2851 24.7085 32.3648Z" fill="#333333"/>
<path d="M28.9509 14.3507C28.1728 14.4913 27.2915 14.8522 26.6118 15.3022C26.1806 15.5929 25.5196 16.221 25.1868 16.671C24.6618 17.3647 24.2259 18.3632 24.0759 19.221C23.9868 19.7507 23.9821 20.8007 24.0759 21.321C24.2775 22.4741 24.8259 23.5569 25.6415 24.4194C26.5321 25.3522 27.7087 25.9944 28.9462 26.2101C29.4759 26.2991 30.5259 26.3038 31.0462 26.2101C32.1946 26.0085 33.2821 25.4601 34.14 24.6444C35.0071 23.8241 35.5884 22.8163 35.8743 21.6444C36.0103 21.0866 36.0431 19.8679 35.94 19.2679C35.7993 18.4476 35.4618 17.6038 34.979 16.8819C34.6931 16.446 33.8634 15.6163 33.4228 15.321C32.6868 14.8288 31.8571 14.4913 31.0462 14.3507C30.5634 14.2663 29.4103 14.2663 28.9509 14.3507ZM30.3525 17.4163C30.5353 17.5147 30.6571 17.6929 30.7087 17.9179C30.7321 18.0163 30.7556 18.9257 30.7556 19.9382V21.7757L30.9618 21.8038C31.2243 21.846 31.4353 21.9726 31.5571 22.1647C31.6321 22.2866 31.6462 22.3757 31.6321 22.5913C31.6181 22.821 31.5946 22.8819 31.4634 23.0179C31.3696 23.1163 31.229 23.196 31.1025 23.2288C30.84 23.2944 29.1478 23.2944 28.904 23.2288C28.5337 23.1257 28.2759 22.7132 28.3696 22.371C28.4587 22.0522 28.6837 21.8694 29.0587 21.8038L29.2556 21.771V20.4351V19.0991L29.1478 19.1272C29.0868 19.1413 28.9556 19.1319 28.8571 19.1038C28.4821 19.0007 28.2478 18.5835 28.3603 18.2226C28.4353 17.9601 28.6228 17.8054 29.0775 17.6226C29.954 17.2663 30.0571 17.2476 30.3525 17.4163Z" fill="#6B40C1"/>
</g>
<defs>
<clipPath id="clip0_165_1869">
<rect width="24" height="24" fill="white" transform="translate(12.7554 12.7804)"/>
</clipPath>
</defs>
</svg>
