<svg width="24" height="25" viewBox="0 0 24 25" fill="none" xmlns="http://www.w3.org/2000/svg">
<path d="M11.5219 2.13109C10.1531 2.2764 8.87344 3.16234 8.26406 4.39984C7.94531 5.03265 7.82812 5.56234 7.82812 6.32171C7.83281 8.2014 9.09844 9.83265 10.9453 10.3342C11.25 10.4186 11.4469 10.4373 12 10.4373C12.5531 10.4373 12.75 10.4186 13.0547 10.3342C14.9016 9.83265 16.1672 8.2014 16.1719 6.32171C16.1719 5.77328 16.1109 5.37015 15.975 4.96703C15.4313 3.38265 14.0813 2.30453 12.4172 2.1264C12.1734 2.10296 11.9578 2.08421 11.9297 2.0889C11.9062 2.0889 11.7188 2.10765 11.5219 2.13109Z" fill="#7A7E86" fill-opacity="0.7"/>
<path d="M4.19063 6.01234C3.53439 6.12015 2.97657 6.40609 2.4797 6.90297C1.89376 7.4889 1.60782 8.13578 1.56095 8.97015C1.46251 10.7514 2.8922 12.2514 4.68751 12.2514C5.45626 12.2514 6.21564 11.9561 6.77814 11.4405C7.95001 10.367 8.15626 8.69359 7.2797 7.36703C6.88595 6.77172 6.18282 6.27015 5.48907 6.08734C5.13282 5.99828 4.51876 5.96078 4.19063 6.01234Z" fill="#7A7E86" fill-opacity="0.7"/>
<path d="M18.9138 5.99828C17.4701 6.23266 16.3966 7.31078 16.2091 8.71703C16.1107 9.43891 16.2841 10.1983 16.6826 10.8123C17.5591 12.153 19.2748 12.6311 20.6951 11.928C21.356 11.5998 21.806 11.1452 22.1295 10.4889C22.3779 9.97328 22.467 9.53734 22.4388 8.97016C22.392 8.13578 22.106 7.4889 21.5201 6.90297C20.9341 6.32172 20.3013 6.03578 19.4857 5.99828C19.2466 5.9889 18.9935 5.9889 18.9138 5.99828Z" fill="#7A7E86" fill-opacity="0.7"/>
<path d="M9.43131 11.3139C8.62506 11.4264 8.02037 11.7264 7.42506 12.3217C7.0735 12.6686 6.961 12.8186 6.78756 13.1748C6.38443 13.9717 6.3985 13.817 6.3985 18.1577C6.3985 21.917 6.3985 21.9827 6.49225 22.142C6.5485 22.2311 6.661 22.3436 6.75006 22.3998C6.91412 22.4936 6.97037 22.4936 12.0001 22.4936C17.0297 22.4936 17.086 22.4936 17.2501 22.3998C17.3391 22.3436 17.4516 22.2311 17.5079 22.142C17.6016 21.9827 17.6016 21.917 17.6016 18.1577C17.6016 13.817 17.6157 13.9717 17.2126 13.1748C16.9219 12.5936 16.336 11.9936 15.7641 11.6983C14.9907 11.2998 14.9813 11.2952 12.1876 11.2858C10.8329 11.2811 9.59537 11.2952 9.43131 11.3139Z" fill="#7A7E86" fill-opacity="0.7"/>
<path d="M2.81715 13.1467C1.73903 13.3577 0.848401 14.0373 0.351526 15.0264C-3.67044e-05 15.7295 -0.0047242 15.7858 0.0093383 18.5373L0.0234008 20.9514L0.196838 21.303C0.417151 21.753 0.726526 22.0623 1.15778 22.2686C1.61715 22.4889 1.86559 22.5123 3.65153 22.517H5.16559L5.12809 22.3389C5.10465 22.2452 5.0859 20.328 5.0859 18.0873V14.0092L5.19371 13.6248C5.24996 13.4139 5.3109 13.2077 5.32496 13.1702C5.35309 13.1045 5.23121 13.0952 4.19059 13.0998C3.5484 13.1045 2.92965 13.1233 2.81715 13.1467Z" fill="#7A7E86" fill-opacity="0.7"/>
<path d="M18.6747 13.1655C18.6888 13.2077 18.7497 13.4139 18.806 13.6248L18.9138 14.0092V18.0873C18.9138 20.328 18.8951 22.2452 18.8716 22.3436L18.8341 22.517H20.3482C22.1341 22.5123 22.3826 22.4889 22.8419 22.2686C23.2732 22.0623 23.5826 21.753 23.8029 21.303L23.9763 20.9514L23.9904 18.5373C24.0044 15.7858 23.9997 15.7295 23.6482 15.0264C23.2076 14.1498 22.5044 13.5498 21.5388 13.2311C21.2341 13.1327 21.1122 13.1233 19.9263 13.1045C18.7451 13.0905 18.6466 13.0952 18.6747 13.1655Z" fill="#7A7E86" fill-opacity="0.7"/>
</svg>
