<svg width="39" height="32" viewBox="0 0 39 32" fill="none" xmlns="http://www.w3.org/2000/svg">
<path d="M17.1042 4.57384V13.4208L27.3941 7.5439C27.2986 7.47691 27.203 7.41364 27.0999 7.35409L16.1796 1.21298C15.6767 0.929722 15.106 0.780579 14.5251 0.780579C13.9442 0.780579 13.3735 0.929722 12.8707 1.21298L1.95038 7.35409C1.4476 7.63728 1.03008 8.04423 0.739701 8.53416C0.449319 9.0241 0.29627 9.57978 0.295898 10.1455V13.8488L17.1042 4.57384Z" fill="#220F60"/>
<path d="M10.2265 24.7646V16.0168L0.291992 21.3159V22.169C0.292364 22.7162 0.445436 23.2537 0.735818 23.7276C1.0262 24.2015 1.44369 24.5951 1.94647 24.869L12.8667 30.8089C13.3696 31.0828 13.9403 31.2271 14.5212 31.2271C15.1021 31.2271 15.6728 31.0828 16.1757 30.8089L27.096 24.869C27.5987 24.5951 28.0162 24.2015 28.3066 23.7276C28.597 23.2537 28.7501 22.7162 28.7504 22.169V14.5336L10.2265 24.7646Z" fill="#FC2262"/>
<path d="M38.6311 6.56842C38.6316 6.97584 38.5475 7.37935 38.3836 7.75588C38.2196 8.13242 37.979 8.4746 37.6756 8.76286C37.3722 9.05111 37.0119 9.27978 36.6153 9.4358C36.2187 9.59182 35.7936 9.67213 35.3642 9.67213C34.8181 9.67926 34.279 9.55449 33.7976 9.30954L12.1252 21.4017V12.6308L0.280273 18.9941V15.6765L15.182 7.67067V16.34L32.1355 6.87299C32.1297 6.77154 32.1297 6.66987 32.1355 6.56842C32.1355 5.74527 32.4801 4.95583 33.0935 4.37377C33.7069 3.79171 34.5388 3.46472 35.4062 3.46472C36.2737 3.46472 37.1056 3.79171 37.719 4.37377C38.3324 4.95583 38.677 5.74527 38.677 6.56842H38.6311Z" fill="#8708C2"/>
</svg>
