<svg width="25" height="25" viewBox="0 0 25 25" fill="none" xmlns="http://www.w3.org/2000/svg">
<path d="M16.2947 6.11883C15.9009 6.32508 15.7368 6.62039 15.765 7.09383C15.7837 7.52039 15.9337 7.75945 16.2853 7.93758L16.5243 8.05477H17.9072H19.2947L16.529 10.8204L13.7634 13.586L12.0525 11.8751C10.8947 10.7173 10.2853 10.1454 10.1681 10.0938C9.92903 9.99539 9.53997 10.0048 9.31028 10.1126C9.18371 10.1735 8.12903 11.2001 5.97746 13.3563C3.2634 16.0798 2.82746 16.5438 2.78059 16.7079C2.65871 17.1391 2.74309 17.4626 3.05246 17.7626C3.32903 18.0345 3.61496 18.1141 3.99934 18.0345C4.24778 17.9829 4.26184 17.9688 7.00403 15.236L9.75559 12.4845L11.504 14.2282C13.3368 16.0563 13.3509 16.0704 13.7587 16.0704C14.1806 16.0704 14.0868 16.1548 17.4993 12.7516L20.7197 9.53602L20.7337 10.9423L20.7478 12.3438L20.879 12.5641C21.0665 12.8876 21.3572 13.047 21.7556 13.047C22.0884 13.0423 22.2618 12.9766 22.4775 12.761C22.7775 12.4563 22.7634 12.6204 22.7634 9.55477C22.7634 6.92039 22.7587 6.75633 22.6743 6.60164C22.5525 6.37195 22.4165 6.23133 22.215 6.12821C22.0509 6.04383 21.9009 6.03914 19.2384 6.03914C16.7775 6.04383 16.4165 6.05321 16.2947 6.11883Z" fill="#151515"/>
</svg>
