<svg width="24" height="25" viewBox="0 0 24 25" fill="none" xmlns="http://www.w3.org/2000/svg">
<path d="M15.5393 17.9595C15.1455 17.7532 14.9815 17.4579 15.0096 16.9845C15.0283 16.5579 15.1783 16.3189 15.5299 16.1407L15.769 16.0235H17.1518H18.5393L15.7737 13.2579L13.008 10.4923L11.2971 12.2032C10.1393 13.361 9.52991 13.9329 9.41272 13.9845C9.17366 14.0829 8.78459 14.0735 8.55491 13.9657C8.42834 13.9048 7.37366 12.8782 5.22209 10.722C2.50803 7.99854 2.07209 7.53448 2.02522 7.37042C1.90334 6.93917 1.98772 6.61573 2.29709 6.31573C2.57366 6.04385 2.85959 5.96417 3.24397 6.04385C3.49241 6.09542 3.50647 6.10948 6.24866 8.84229L9.00022 11.5939L10.7487 9.8501C12.5815 8.02198 12.5955 8.00792 13.0033 8.00792C13.4252 8.00792 13.3315 7.92354 16.744 11.3267L19.9643 14.5423L19.9783 13.136L19.9924 11.7345L20.1237 11.5142C20.3112 11.1907 20.6018 11.0314 21.0002 11.0314C21.333 11.036 21.5065 11.1017 21.7221 11.3173C22.0221 11.622 22.008 11.4579 22.008 14.5235C22.008 17.1579 22.0033 17.322 21.919 17.4767C21.7971 17.7064 21.6612 17.847 21.4596 17.9501C21.2955 18.0345 21.1455 18.0392 18.483 18.0392C16.0221 18.0345 15.6612 18.0251 15.5393 17.9595Z" fill="#151515"/>
</svg>
