<svg width="21" height="21" viewBox="0 0 21 21" fill="none" xmlns="http://www.w3.org/2000/svg">
<path d="M3.25815 8.96502C3.00424 9.02361 2.66049 9.23455 2.45346 9.4533C1.6644 10.2853 1.93393 11.6408 2.98081 12.133C3.18002 12.2228 3.30893 12.2541 3.55893 12.2697C4.27768 12.3166 4.86752 11.9806 5.17612 11.3517C5.32065 11.0588 5.32456 11.0471 5.32456 10.6056C5.32456 10.1799 5.31674 10.1369 5.20346 9.89471C4.98862 9.44158 4.64877 9.14471 4.18002 9.00018C3.9144 8.91814 3.52377 8.90252 3.25815 8.96502Z" fill="#333333"/>
<path d="M9.82058 9.00018C8.75026 9.34003 8.31667 10.6682 8.97683 11.59C9.63698 12.508 11.051 12.508 11.7112 11.59C12.2464 10.84 12.0745 9.76581 11.3323 9.23456C10.9104 8.93378 10.3167 8.84003 9.82058 9.00018Z" fill="#333333"/>
<path d="M16.4731 9.01189C16.0044 9.17205 15.6958 9.44939 15.4849 9.89471C15.3716 10.1369 15.3638 10.1799 15.3638 10.6056C15.3638 11.0471 15.3677 11.0588 15.5122 11.3517C15.8208 11.9806 16.4106 12.3166 17.1294 12.2697C18.5708 12.1799 19.2271 10.3869 18.1763 9.39471C17.856 9.09002 17.5317 8.9533 17.0864 8.93377C16.7896 8.92205 16.688 8.93377 16.4731 9.01189Z" fill="#333333"/>
</svg>
