<svg width="21" height="21" viewBox="0 0 21 21" fill="none" xmlns="http://www.w3.org/2000/svg">
<path d="M3.25815 8.53957C3.00424 8.59817 2.66049 8.80911 2.45346 9.02786C1.6644 9.85989 1.93393 11.2154 2.98081 11.7075C3.18002 11.7974 3.30893 11.8286 3.55893 11.8443C4.27768 11.8911 4.86752 11.5552 5.17612 10.9263C5.32065 10.6333 5.32456 10.6216 5.32456 10.1802C5.32456 9.75442 5.31674 9.71145 5.20346 9.46926C4.98862 9.01614 4.64877 8.71926 4.18002 8.57473C3.9144 8.4927 3.52377 8.47707 3.25815 8.53957Z" fill="#333333"/>
<path d="M9.82058 8.57474C8.75026 8.91458 8.31667 10.2427 8.97683 11.1646C9.63698 12.0826 11.051 12.0826 11.7112 11.1646C12.2464 10.4146 12.0745 9.34036 11.3323 8.80911C10.9104 8.50833 10.3167 8.41458 9.82058 8.57474Z" fill="#333333"/>
<path d="M16.4731 8.58645C16.0044 8.74661 15.6958 9.02395 15.4849 9.46926C15.3716 9.71145 15.3638 9.75442 15.3638 10.1802C15.3638 10.6216 15.3677 10.6333 15.5122 10.9263C15.8208 11.5552 16.4106 11.8911 17.1294 11.8443C18.5708 11.7544 19.2271 9.96145 18.1763 8.96926C17.856 8.66457 17.5317 8.52786 17.0864 8.50832C16.7896 8.49661 16.688 8.50832 16.4731 8.58645Z" fill="#333333"/>
</svg>
