<svg width="24" height="25" viewBox="0 0 24 25" fill="none" xmlns="http://www.w3.org/2000/svg">
<g clip-path="url(#clip0_3_24)">
<path d="M8.74226 0.349846C5.90164 0.490471 2.30164 0.842034 1.08289 1.09516C0.3282 1.24985 0.0375751 1.54047 0.00945012 2.17328C-0.00461238 2.41235 0.0141376 2.5811 0.0610126 2.6936C0.286013 3.23735 0.87195 3.49516 1.5282 3.34516C2.4282 3.13891 6.20633 2.77328 8.83601 2.64203C10.1626 2.57172 13.8423 2.57172 15.1407 2.63735C17.8032 2.77328 20.5923 3.03578 22.2423 3.30766C22.9688 3.42485 23.1985 3.40141 23.5173 3.19047C24.2204 2.71703 24.1407 1.58266 23.3813 1.22172C22.8141 0.954534 18.6751 0.513909 15.1407 0.345159C13.9876 0.293596 9.85789 0.293596 8.74226 0.349846Z" fill="#7A7E86" fill-opacity="0.7"/>
<path d="M8.71893 3.44359C6.82518 3.54203 4.31268 3.75765 2.78455 3.95922L1.9783 4.06234L1.95018 4.23578C1.85174 4.84984 1.71112 7.00609 1.65955 8.61859C1.6033 10.5358 1.84705 14.417 2.08143 15.2748C2.40018 16.4514 3.27674 17.4733 4.48612 18.0827C5.11893 18.4014 5.76112 18.5139 7.68768 18.6498C8.78924 18.7248 10.4767 18.8139 10.833 18.8139H11.0627V19.817V20.8202L9.46424 21.7717C7.99237 22.653 7.85643 22.742 7.74393 22.9389C7.4908 23.3655 7.60799 23.9092 8.01112 24.167C8.20799 24.2936 8.25487 24.303 8.55487 24.2889L8.88299 24.2702L10.4252 23.3467C11.2689 22.8405 11.9814 22.4233 12.0002 22.4233C12.0189 22.4233 12.7314 22.8405 13.5752 23.3467C15.108 24.2608 15.1174 24.2655 15.4314 24.2889C15.858 24.317 16.1064 24.1764 16.2846 23.8202C16.4392 23.5061 16.4392 23.2952 16.2752 22.9811L16.1439 22.7327L14.5314 21.767L12.9142 20.8014L12.9002 19.8123L12.8908 18.828L13.7674 18.7952C16.5236 18.692 18.5533 18.5045 19.1814 18.2983C20.4892 17.8577 21.6799 16.6577 22.0689 15.3873C22.3549 14.4592 22.5939 10.4186 22.5002 8.09828C22.4346 6.41078 22.2705 4.17484 22.2049 4.1139C22.158 4.06703 20.1189 3.8139 18.8439 3.69671C16.1486 3.45765 14.658 3.39203 11.8596 3.4014C10.533 3.4014 9.11737 3.42484 8.71893 3.44359ZM7.03143 7.28265C7.05487 7.28265 7.18143 7.38109 7.31737 7.49828C7.60799 7.75609 7.71112 7.79828 8.04862 7.79828C8.35799 7.79828 8.64393 7.6764 8.83143 7.46547C9.02362 7.24984 9.15018 7.22172 9.42674 7.32953C9.72674 7.4514 10.3408 7.84047 10.5236 8.03265C10.6455 8.15922 10.6642 8.20609 10.6455 8.39828C10.608 8.89047 10.6221 9.18109 10.7017 9.33109C10.8424 9.59828 11.1096 9.8139 11.4002 9.89359C11.7892 10.0014 11.8924 10.1327 11.958 10.5967C12.0236 11.0467 11.9627 11.5952 11.8221 11.778C11.7705 11.8483 11.6439 11.928 11.5267 11.9608C10.9736 12.1202 10.6971 12.3733 10.5939 12.8186C10.5517 12.992 10.5517 13.1045 10.5892 13.2592C10.6877 13.6483 10.6642 13.7467 10.4111 13.9858C10.1486 14.2295 9.45018 14.642 9.2908 14.642C9.14549 14.642 9.00487 14.5623 8.86893 14.3983C8.80799 14.3233 8.67674 14.2248 8.58299 14.178C8.13299 13.9483 7.73455 14.028 7.31268 14.4264C7.14393 14.5858 6.99862 14.6889 6.93299 14.6889C6.65174 14.6889 5.57362 14.0045 5.47987 13.7608C5.44237 13.6717 5.44237 13.578 5.47987 13.4327C5.55487 13.1514 5.54549 12.7952 5.45643 12.5889C5.32049 12.2514 5.10018 12.092 4.55174 11.9186C4.19549 11.8061 4.14862 11.6936 4.14862 10.9717C4.14862 10.1045 4.20955 9.98734 4.72049 9.86547C5.05799 9.78109 5.30643 9.59359 5.45643 9.29359C5.58768 9.02172 5.60643 8.8014 5.52205 8.46859C5.45643 8.19203 5.53612 8.03265 5.87362 7.77953C6.17362 7.55453 6.84393 7.2264 6.9283 7.25922C6.9658 7.27328 7.01268 7.28265 7.03143 7.28265ZM19.4439 8.30922C20.1142 8.6514 20.0767 9.54203 19.383 9.86547C19.2096 9.94515 19.0314 9.95453 16.6642 9.95453C14.2971 9.95453 14.1189 9.94515 13.9455 9.86547C13.4814 9.64984 13.2939 9.19515 13.4767 8.74984C13.5752 8.51547 13.6736 8.41234 13.8986 8.30922C14.0721 8.22953 14.2642 8.22015 16.6783 8.22015C19.1299 8.22015 19.2799 8.22484 19.4439 8.30922ZM16.8658 11.6467C17.4471 11.928 17.4986 12.7483 16.9596 13.1233L16.7674 13.2592H15.3752H13.983L13.7908 13.1233C13.2517 12.753 13.3033 11.9373 13.8846 11.6467C14.0767 11.553 14.1517 11.5483 15.3705 11.5483C16.5846 11.5483 16.6689 11.553 16.8658 11.6467Z" fill="#7A7E86" fill-opacity="0.7"/>
<path d="M7.68775 9.66859C7.13932 9.83734 6.76432 10.2873 6.71744 10.8452C6.66588 11.3748 6.92369 11.867 7.39244 12.1436C7.71119 12.3311 8.24088 12.3545 8.58307 12.1952C9.09869 11.9608 9.37525 11.5248 9.37525 10.9623C9.37525 10.2076 8.78463 9.61703 8.044 9.63109C7.91275 9.63109 7.75338 9.64984 7.68775 9.66859Z" fill="#7A7E86" fill-opacity="0.7"/>
</g>
<defs>
<clipPath id="clip0_3_24">
<rect width="24" height="24" fill="white" transform="translate(0 0.298279)"/>
</clipPath>
</defs>
</svg>
