<svg width="25" height="25" viewBox="0 0 25 25" fill="none" xmlns="http://www.w3.org/2000/svg">
<path d="M10.5989 2.75381C8.67233 3.00225 6.90514 3.83194 5.50358 5.15381C3.19733 7.3335 2.20358 10.5679 2.89264 13.6663C3.96139 18.4616 8.67233 21.5273 13.4817 20.5569C14.5692 20.3366 15.7364 19.8491 16.6786 19.221C16.9645 19.0288 17.2176 18.8507 17.2364 18.8226C17.2551 18.7944 18.0755 19.5773 19.1958 20.6929C20.4989 21.996 21.1786 22.6429 21.2958 22.6898C21.5255 22.7882 21.9989 22.7882 22.1911 22.6898C22.6551 22.4554 22.8614 21.9726 22.7161 21.4616C22.6411 21.1991 22.5895 21.1476 20.6911 19.2444C19.5848 18.1335 18.7692 17.2804 18.7973 17.2616C18.8958 17.196 19.5192 16.221 19.7489 15.7616C21.3051 12.6632 20.9583 8.98819 18.8583 6.23194C17.3864 4.30069 15.1458 3.02569 12.7317 2.74913C12.2442 2.69756 11.0395 2.69756 10.5989 2.75381ZM12.8395 4.83506C15.3333 5.23819 17.4895 7.06631 18.2911 9.45225C18.5723 10.3007 18.6333 10.6991 18.6333 11.7023C18.6333 12.471 18.6192 12.6913 18.5301 13.0944C18.1973 14.6319 17.452 15.9116 16.2895 16.9476C15.3989 17.7398 14.302 18.2882 13.0692 18.5554C12.4223 18.696 11.0723 18.7054 10.4348 18.5788C7.63639 18.0116 5.55045 16.0054 4.8942 13.2491C4.72076 12.5226 4.69264 11.3319 4.82389 10.5538C5.06764 9.14756 5.67701 7.92881 6.6567 6.91163C7.39264 6.14288 8.14733 5.63194 9.09889 5.24756C10.2989 4.76475 11.5505 4.62881 12.8395 4.83506Z" fill="#333333"/>
</svg>
