<svg width="24" height="28" viewBox="0 0 24 28" fill="none" xmlns="http://www.w3.org/2000/svg">
<path d="M10.9961 1.29556C10.0461 2.25181 9.33984 2.67056 8.32734 2.87681C8.06484 2.93306 7.64609 2.97681 7.40234 2.97681H6.96484V3.25806C6.96484 3.53931 6.95859 3.54556 6.67109 3.67056C6.02109 3.95181 5.62109 4.45806 5.43984 5.22681C5.28984 5.85806 5.45859 6.44556 5.93984 6.97056C6.12734 7.18306 6.61484 7.47681 6.90859 7.56431C6.96484 7.57681 7.04609 7.75181 7.11484 8.00181C7.41484 9.10181 8.18984 10.1706 9.17109 10.8456C9.70859 11.2143 9.68984 11.2268 7.67734 11.5893C5.77109 11.9393 5.38984 12.0456 4.85234 12.3643C4.53359 12.5581 3.87109 13.1956 3.73984 13.4331C3.68359 13.5331 3.62109 13.5143 2.99609 13.2643L2.30859 12.9893L2.28984 14.6706L2.27734 16.3518H2.10234C1.85859 16.3581 1.40859 16.5768 1.16484 16.8081C0.783594 17.1768 0.714844 17.5018 0.714844 18.9393C0.714844 20.3393 0.758594 20.5893 1.08984 20.9893C1.30234 21.2456 1.83984 21.5393 2.10234 21.5393H2.27734V22.4956V23.4518L7.13984 25.3393C9.80859 26.3768 12.0398 27.2268 12.0898 27.2268C12.1398 27.2268 14.3711 26.3768 17.0461 25.3393L21.9023 23.4518V22.4956V21.5393H22.0773C22.3398 21.5393 22.8773 21.2456 23.0898 20.9893C23.4211 20.5893 23.4648 20.3393 23.4648 18.9393C23.4648 17.5018 23.3961 17.1768 23.0148 16.8081C22.7711 16.5768 22.3211 16.3581 22.0773 16.3518H21.9023L21.8898 14.6706L21.8711 12.9956L21.1898 13.2581L20.5023 13.5268L20.3398 13.3018C20.0523 12.9018 19.4711 12.4206 19.0086 12.1956C18.5461 11.9768 18.1273 11.8831 15.8586 11.4706C14.5211 11.2331 14.4961 11.2081 15.1086 10.7706C16.0586 10.0893 16.7711 9.07681 17.0648 8.00181C17.1336 7.75181 17.2148 7.57681 17.2711 7.56431C17.5648 7.47681 18.0523 7.18306 18.2398 6.97056C18.7211 6.44556 18.8898 5.85806 18.7398 5.22681C18.5586 4.45806 18.1586 3.95181 17.5086 3.67056C17.2211 3.54556 17.2148 3.53931 17.2148 3.26431V2.98931L16.0148 2.95806C15.0336 2.93931 14.7273 2.90806 14.3898 2.80181C13.4336 2.50806 12.6648 1.97681 12.0273 1.16431C11.8086 0.889307 11.6273 0.664307 11.6211 0.664307C11.6211 0.664307 11.3398 0.945557 10.9961 1.29556ZM12.0211 2.68931C13.1148 3.57681 14.0461 3.92681 15.5273 4.01431L16.2336 4.05806L16.1961 5.56431C16.1836 6.39556 16.1336 7.22681 16.0898 7.41431C16.0523 7.60181 15.8898 8.02681 15.7336 8.35181C15.1961 9.47681 14.1086 10.3206 12.8898 10.5643C11.9773 10.7518 11.1586 10.6393 10.2773 10.2081C9.48984 9.82681 8.82734 9.15181 8.44609 8.35181C8.28984 8.02681 8.12734 7.60181 8.08984 7.41431C8.04609 7.22681 7.99609 6.38306 7.98359 5.53931L7.94609 4.00181L8.42734 3.92056C9.38359 3.76431 10.2773 3.33931 11.0336 2.68931C11.2898 2.47681 11.5023 2.29556 11.5086 2.29556C11.5148 2.28931 11.7461 2.47056 12.0211 2.68931ZM6.90234 5.55181L6.89609 6.38306L6.71484 6.16431C6.39609 5.80181 6.38984 5.27681 6.68984 4.91431C6.77734 4.81431 6.86484 4.72681 6.87734 4.72681C6.88984 4.72681 6.90234 5.10181 6.90234 5.55181ZM17.6898 5.32056C17.7461 5.64556 17.6773 5.92056 17.4648 6.16431L17.2836 6.38306V5.53931V4.69556L17.4648 4.89556C17.5648 5.00806 17.6648 5.19556 17.6898 5.32056ZM11.9211 11.7081C12.4211 11.7268 12.8336 11.7143 13.0086 11.6706C13.1648 11.6268 13.3023 11.6081 13.3148 11.6206C13.3398 11.6393 12.2461 12.4706 12.1336 12.5143C12.0898 12.5268 11.7898 12.3456 11.4711 12.1018C10.7836 11.5956 10.7586 11.5706 10.9648 11.6331C11.0523 11.6581 11.4836 11.6956 11.9211 11.7081ZM10.7336 12.9393C10.9961 13.1393 11.2148 13.3206 11.2148 13.3456C11.2148 13.3706 11.0023 13.5956 10.7461 13.8518C10.4211 14.1706 10.2711 14.2831 10.2461 14.2206C10.1461 13.9518 9.65234 12.4456 9.65234 12.4081C9.65234 12.3831 9.70234 12.3518 9.76484 12.3331C9.87734 12.3081 9.93359 12.3456 10.7336 12.9393ZM14.5273 12.4081C14.5273 12.4831 13.9461 14.1956 13.9086 14.2393C13.8836 14.2643 13.6586 14.0768 13.4023 13.8206C13.1086 13.5206 12.9586 13.3331 12.9961 13.2956C13.0336 13.2581 13.3398 13.0268 13.6773 12.7706C14.0836 12.4643 14.3336 12.3143 14.4148 12.3393C14.4773 12.3518 14.5273 12.3831 14.5273 12.4081ZM9.05859 14.1643C9.35234 15.0393 9.57734 15.7643 9.55859 15.7768C9.52109 15.8143 4.77734 13.9643 4.77734 13.9081C4.77734 13.8206 5.37109 13.3393 5.66484 13.1893C5.92734 13.0581 6.53359 12.9143 8.02734 12.6456C8.28359 12.5956 8.50234 12.5643 8.51484 12.5706C8.52109 12.5768 8.77109 13.2956 9.05859 14.1643ZM17.4211 12.8831C18.2773 13.0518 18.5898 13.1768 19.0148 13.5206C19.5336 13.9456 19.6711 13.8518 17.0211 14.8831C15.7148 15.3893 14.6336 15.7893 14.6211 15.7768C14.6023 15.7643 14.8336 15.0331 15.1273 14.1518L15.6586 12.5581L16.1398 12.6456C16.4023 12.6893 16.9836 12.8018 17.4211 12.8831ZM13.0836 15.0643L14.0461 16.0268L13.8336 16.1206C13.7148 16.1643 13.2773 16.3393 12.8586 16.5018L12.0898 16.8018L11.3273 16.5018C10.9023 16.3393 10.4648 16.1643 10.3461 16.1206L10.1336 16.0268L11.0961 15.0643C11.6211 14.5331 12.0711 14.1018 12.0898 14.1018C12.1086 14.1018 12.5586 14.5331 13.0836 15.0643ZM7.49609 16.1956L11.5273 17.7581V21.8018C11.5273 24.0331 11.5211 25.8518 11.5148 25.8518C11.5023 25.8518 9.67109 25.1393 7.43359 24.2706L3.37109 22.6893L3.35234 22.0081L3.33359 21.3206L3.62109 21.1706C4.00859 20.9643 4.43984 20.4893 4.65859 20.0143C5.21484 18.8331 4.74609 17.3581 3.60859 16.6831L3.33984 16.5268V15.5581C3.33984 14.9456 3.36484 14.6018 3.40234 14.6143C3.43359 14.6206 5.27734 15.3331 7.49609 16.1956ZM20.8398 15.5643V16.5268L20.5773 16.6831C19.4336 17.3581 18.9648 18.8331 19.5211 20.0143C19.7398 20.4893 20.1711 20.9643 20.5586 21.1706L20.8461 21.3206L20.8273 22.0018L20.8086 22.6893L16.7461 24.2706C14.5148 25.1393 12.6773 25.8518 12.6711 25.8518C12.6586 25.8518 12.6523 24.0331 12.6523 21.8018V17.7581L16.7023 16.1831C18.9273 15.3206 20.7648 14.6081 20.7961 14.6081C20.8211 14.6018 20.8398 15.0331 20.8398 15.5643ZM2.96484 17.6018C3.25234 17.7518 3.55859 18.0768 3.67734 18.3643C3.80234 18.6518 3.80859 19.2268 3.68984 19.5018C3.58359 19.7643 3.24609 20.1456 3.02734 20.2581C2.56484 20.4956 2.03984 20.4831 1.90234 20.2268C1.81484 20.0643 1.82109 17.8143 1.90859 17.6581C2.04609 17.3956 2.51484 17.3706 2.96484 17.6018ZM22.2336 17.6081C22.3273 17.7268 22.3398 17.8893 22.3398 18.9268C22.3398 19.5768 22.3148 20.1643 22.2773 20.2268C22.1398 20.4831 21.6148 20.4956 21.1523 20.2581C20.9336 20.1456 20.5961 19.7643 20.4898 19.5018C20.3711 19.2268 20.3773 18.6518 20.5023 18.3643C20.8023 17.6331 21.8648 17.1706 22.2336 17.6081Z" fill="#152E60"/>
</svg>
