<svg width="73" height="73" viewBox="0 0 73 73" fill="none" xmlns="http://www.w3.org/2000/svg">
<circle cx="36.5" cy="36.2983" r="36" fill="#E1F0CD"/>
<path d="M40.6562 17.7045C38.7344 18.2123 37.1484 19.8139 36.6562 21.7358C36.5234 22.2358 36.5 22.603 36.5 23.853C36.5 25.6655 36.5 25.6733 37.3047 25.6733L37.7891 25.6811L37.4922 25.7827C36.4844 26.142 35.875 27.0483 35.875 28.1733C35.875 29.3295 36.5859 30.3217 37.6094 30.603C37.7812 30.642 37.9062 30.728 37.9062 30.7905C37.9062 30.853 37.9141 30.9077 37.9297 30.9077C37.9375 30.9077 38.2266 30.8217 38.5703 30.728C39.0938 30.5795 39.1953 30.5248 39.1797 30.392C39.0391 29.2436 39 28.5952 39 27.267V25.6967L39.6875 25.642C41.5391 25.4936 44.1484 24.7202 45.5312 23.9077C45.7031 23.8061 45.8828 23.7202 45.9297 23.7202C45.9688 23.7202 46.0547 23.8686 46.1172 24.0483C46.5 25.2123 47.6406 26.1811 49.1875 26.6577L49.6484 26.8061L49.6016 28.3295C49.5547 29.978 49.4453 30.5483 49.0469 31.392C48.5781 32.3842 47.625 33.3452 46.625 33.8217C45.0078 34.6108 43.0234 34.517 41.5625 33.5952C41.3984 33.4936 41.25 33.4077 41.2344 33.4077C41.1484 33.4077 40.4844 34.4311 40.5234 34.5014C40.5547 34.5483 40.7656 34.6967 41 34.8217C41.2344 34.9545 41.4219 35.0952 41.4219 35.142C41.4219 35.4389 41.0156 35.6733 40.5156 35.6733H40.25V34.4623C40.25 33.4311 40.2266 33.1967 40.0859 32.8217C39.8672 32.2436 39.3047 31.6811 38.7266 31.4623C38.2969 31.2983 38.2266 31.2983 29 31.2983C19.7734 31.2983 19.7031 31.2983 19.2734 31.4623C18.6953 31.6811 18.1328 32.2436 17.9141 32.8217C17.7734 33.1967 17.75 33.4311 17.75 34.4623V35.6733H18.3672H18.9844L19.0156 34.5952C19.0391 33.7045 19.0703 33.478 19.1953 33.2592C19.3984 32.9155 19.6797 32.7123 20.0625 32.6264C20.4688 32.5327 37.5312 32.5327 37.9375 32.6264C38.3203 32.7123 38.6016 32.9155 38.8047 33.2592C38.9609 33.517 38.9609 33.6655 38.9609 39.4233C38.9609 45.2358 38.9609 45.3295 38.7969 45.5952C38.5781 45.9702 38.2109 46.2045 37.7266 46.2592C37.5 46.2827 35.875 46.2983 34.1094 46.2827L30.8984 46.2592L31.1953 44.892C31.5391 43.2983 31.5703 42.9311 31.3438 42.7045C31.1953 42.5561 31.0859 42.5483 28.7188 42.5483C27.2734 42.5483 26.1953 42.5795 26.1172 42.6264C26.0312 42.6733 25.6641 43.4233 25.2031 44.5014L24.4297 46.3061L22.2031 46.2827C20.1406 46.2592 19.9531 46.2514 19.7109 46.103C19.3672 45.8998 19.1641 45.6186 19.0781 45.2358C19.0391 45.0717 19 43.1264 19 40.9233V36.9233H18.375H17.75V41.2592C17.75 45.4389 17.7578 45.603 17.9141 46.017C18.1094 46.5405 18.5859 47.0561 19.1172 47.3139C19.5 47.5014 19.5547 47.5092 21.6719 47.5327C22.8672 47.5483 23.8438 47.5795 23.8438 47.6108C23.8438 47.642 23.5 48.478 23.0703 49.4623L22.3047 51.2592L20.1406 51.2983C18.1094 51.3373 17.9609 51.3452 17.8594 51.4858C17.7734 51.6108 17.75 51.978 17.75 53.1889C17.75 54.6342 17.7578 54.7436 17.9062 54.892C18.0625 55.0483 18.1641 55.0483 36.5 55.0483C54.8359 55.0483 54.9375 55.0483 55.0938 54.892C55.2422 54.7436 55.25 54.6342 55.25 53.1733C55.25 51.2514 55.2734 51.2983 54.3047 51.2983H53.6719L54.0312 50.8842C54.4922 50.3686 54.9766 49.4311 55.1328 48.7905C55.1953 48.517 55.25 47.9858 55.25 47.603V46.9233H54.6328H54.0156L53.9688 47.5248C53.8672 48.6733 53.5859 49.3608 52.9219 50.0639C52.4844 50.5327 51.9453 50.8764 51.3203 51.0873C50.8516 51.2514 50.6953 51.2592 45.5312 51.2827L40.2266 51.3061L40.2656 50.4936C40.3125 49.5639 40.4688 49.142 40.8828 48.7436C41.4609 48.1967 41.2891 48.2202 46.2109 48.1733C50.4922 48.1342 50.6562 48.1264 50.7656 47.9858C50.8516 47.8608 50.875 47.392 50.875 45.5014V43.1733H52.4375H54V44.4233V45.6733H54.625H55.25V42.4858C55.25 38.9545 55.2422 38.9155 54.7344 37.9311C54.2344 36.978 53.3359 36.2358 52.2578 35.8686C51.7031 35.6889 51.5703 35.6733 50.0547 35.6733C48.2266 35.6733 47.9844 35.6264 47.8359 35.2045C47.7031 34.8217 47.7188 34.7748 48.0859 34.5405C48.5781 34.2123 49.2812 33.5092 49.6719 32.9623C50.0469 32.4467 50.4922 31.5327 50.6328 31.017C50.7109 30.7123 50.75 30.6811 51.1875 30.5248C52.4609 30.0639 53.0938 28.5483 52.5859 27.2045C52.3438 26.5483 51.4688 25.7514 50.9922 25.7514C50.8906 25.7514 50.875 25.5327 50.875 24.0639C50.875 22.4702 50.8672 22.3452 50.6797 21.7905C50.3438 20.7905 49.7422 20.0092 48.8672 19.4545C48.4531 19.1811 47.4219 18.7983 47.125 18.7983C47.0312 18.7983 46.7969 18.6342 46.5781 18.4077C46.3594 18.1811 45.9922 17.9155 45.7422 17.7983C45.2891 17.5873 45.2891 17.5873 43.2578 17.5717C41.4688 17.5561 41.1562 17.5717 40.6562 17.7045ZM45.0312 18.9389C45.1484 18.9858 45.3828 19.1577 45.5547 19.3139L45.875 19.5952V20.8686V22.1498L45.4062 22.4311C43.5078 23.5795 41.25 24.228 38.5469 24.3842L37.7422 24.4311L37.7656 24.103L37.7891 23.7748L38.6484 23.6264C40.5234 23.3139 42.2656 22.7905 43.5703 22.1342C44.1406 21.853 45.0938 21.2436 45.0938 21.1655C45.0938 21.0952 44.2734 20.2045 44.2188 20.2045C44.1797 20.2045 43.9453 20.3452 43.6953 20.517C42.9922 20.9936 41.9375 21.4467 40.6016 21.8373C40.0703 21.9936 38.1797 22.392 37.9844 22.392C37.875 22.392 37.9297 22.0014 38.1016 21.5873L38.2109 21.3217L38.9375 21.2748C39.3359 21.2514 39.9297 21.1733 40.25 21.103C40.8125 20.9858 41.8125 20.6889 41.8125 20.6342C41.8125 20.6186 41.6875 20.3452 41.5312 20.0248L41.25 19.4311L40.9609 19.5405C40.5312 19.6889 39.4688 19.9155 39.4219 19.8686C39.3438 19.7905 40.2031 19.2748 40.6797 19.103C40.9375 19.0092 41.375 18.9077 41.6562 18.8764C42.3594 18.7827 44.7734 18.8295 45.0312 18.9389ZM47.8906 20.4467C48.7812 20.8842 49.3906 21.767 49.5469 22.8217C49.625 23.3686 49.6562 25.3608 49.5859 25.3608C49.5703 25.3608 49.3516 25.2827 49.1016 25.1967C48.2266 24.8686 47.6797 24.3373 47.3438 23.478C47.2109 23.1264 47.1719 22.8295 47.1406 21.6264C47.1016 19.978 47.0625 20.0327 47.8906 20.4467ZM37.75 28.1889V29.2123L37.5859 29.0639C37.2266 28.7358 37.0859 28.0795 37.2891 27.6811C37.375 27.517 37.6719 27.1577 37.7266 27.1577C37.7422 27.1577 37.75 27.6186 37.75 28.1889ZM51.3125 27.642C51.5391 28.0795 51.4141 28.728 51.0391 29.0639L50.875 29.2123V28.1733V27.1342L51.0391 27.2827C51.1328 27.3608 51.25 27.5248 51.3125 27.642ZM46.5703 35.6811C46.625 35.8608 46.8125 36.1577 46.9844 36.3452L47.2969 36.6811L46.8594 37.1186C46.1172 37.8686 45.1016 38.2202 44.1016 38.0873C43.4844 38.0014 42.6094 37.5561 42.2031 37.1108L41.875 36.7514L42.1875 36.4311C42.3672 36.2514 42.5625 35.9702 42.6328 35.8139C42.7422 35.5405 42.7656 35.5248 43.0078 35.5795C43.4766 35.6811 45.5703 35.6264 45.9922 35.5014C46.2109 35.4311 46.4062 35.3764 46.4297 35.3686C46.4531 35.3686 46.5156 35.5014 46.5703 35.6811ZM40.5547 37.1342C40.7031 37.4545 41.25 38.1108 41.6328 38.4155C42.1406 38.8217 42.7969 39.1655 43.3438 39.2983C43.9609 39.4545 45.1484 39.4623 45.7188 39.3061C46.7422 39.0327 47.7266 38.3295 48.4141 37.3608L48.7266 36.9233H49.7031C51.5391 36.9233 52.2734 37.142 53.0312 37.892C53.7656 38.6342 53.9922 39.3842 54 41.0795V41.9233H52.4375H50.875V40.9858V40.0483H50.25H49.625V43.4858V46.9155L45.4297 46.9389L41.2266 46.9623L40.7891 47.1811C40.5469 47.2983 40.1875 47.5405 39.9844 47.7123L39.625 48.0327V47.4077C39.625 46.892 39.6562 46.7514 39.7891 46.5795C39.8828 46.4623 40.0234 46.1967 40.1016 45.978C40.2422 45.6186 40.25 45.3139 40.25 41.2592C40.25 37.6889 40.2656 36.9233 40.3516 36.9233C40.4141 36.9233 40.5 37.017 40.5547 37.1342ZM30.0156 43.892C30.0156 43.9702 28.5938 50.6498 28.4766 51.1186L28.4375 51.2983H26.0938C24.25 51.2983 23.7578 51.2748 23.7891 51.1967C23.8125 51.1498 24.4844 49.5717 25.2891 47.7045C26.0938 45.8373 26.7969 44.1889 26.8516 44.0483L26.9609 43.7983H28.4844C29.6172 43.7983 30.0156 43.8217 30.0156 43.892ZM31.2422 47.642C30.7891 48.7905 30.7891 48.7983 30.5625 48.7983H30.3516L30.4609 48.267C30.5234 47.978 30.5859 47.6967 30.6016 47.642C30.625 47.5873 30.7656 47.5483 30.9609 47.5483C31.1875 47.5483 31.2734 47.5795 31.2422 47.642ZM36.2422 47.642C36.2188 47.6967 36.1094 47.978 35.9922 48.267L35.7812 48.7983H35.3594C34.6719 48.7983 34.625 48.8842 34.625 50.2045V51.2983H34H33.375V50.2045C33.375 48.8842 33.3281 48.7983 32.6406 48.7983H32.2188L32.4609 48.1733L32.7109 47.5483H34.5C35.8906 47.5483 36.2734 47.5717 36.2422 47.642ZM38.375 48.1733V48.7983H37.7969H37.2188L37.4609 48.1733L37.7109 47.5483H38.0469H38.375V48.1733ZM32.125 50.6733V51.2983H30.9922C29.7344 51.2983 29.7812 51.3217 29.9297 50.7514C29.9688 50.603 30.0234 50.3842 30.0469 50.2592L30.0938 50.0483H31.1094H32.125V50.6733ZM39 50.6733V51.2983H37.4375H35.875V50.6733V50.0483H37.4375H39V50.6733ZM54 53.1733V53.7983H36.5H19V53.1733V52.5483H36.5H54V53.1733Z" fill="#333333"/>
<path d="M41.4766 40.3998C41.3203 40.6733 41.1875 40.9389 41.1875 40.9858C41.1875 41.103 42.1953 41.5561 42.8672 41.7358C43.6328 41.9467 45.7031 41.9467 46.3828 41.7436C46.9062 41.5873 47.6719 41.2983 47.6719 41.2514C47.6719 41.2358 47.5469 40.9623 47.3906 40.6498L47.1016 40.0717L46.4297 40.3061C45.8672 40.5092 45.6094 40.5483 44.8125 40.5795C43.7734 40.6186 43.0469 40.478 42.2812 40.0873C42.0703 39.978 41.8672 39.892 41.8281 39.892C41.7969 39.892 41.6406 40.1186 41.4766 40.3998Z" fill="#333333"/>
<path d="M41.1219 26.5164C40.8219 26.7039 40.6719 26.9852 40.6719 27.3914C40.6719 28.0164 41.0469 28.3914 41.6719 28.3914C42.2969 28.3914 42.6719 28.0164 42.6719 27.3914C42.6719 26.7664 42.2969 26.3914 41.6719 26.3914C41.4406 26.3914 41.2594 26.4289 41.1219 26.5164Z" fill="#333333"/>
<path d="M46.1219 26.5164C45.8219 26.7039 45.6719 26.9852 45.6719 27.3914C45.6719 28.0164 46.0469 28.3914 46.6719 28.3914C47.2969 28.3914 47.6719 28.0164 47.6719 27.3914C47.6719 26.7664 47.2969 26.3914 46.6719 26.3914C46.4406 26.3914 46.2594 26.4289 46.1219 26.5164Z" fill="#333333"/>
<path d="M42.0703 30.2165L41.7422 30.6349L41.9141 30.7395C42.0078 30.7949 42.2969 30.9056 42.5547 30.9856C42.9531 31.1087 43.1719 31.1271 44 31.1271C44.8281 31.1271 45.0469 31.1087 45.4453 30.9856C45.7031 30.9056 45.9922 30.7949 46.0859 30.7395L46.2656 30.6349L45.9453 30.235C45.7656 30.0135 45.6094 29.8228 45.6016 29.8166C45.5859 29.8043 45.3359 29.8658 45.0469 29.9581C44.3359 30.1796 43.6641 30.1858 42.9688 29.9643C42.6953 29.8782 42.4453 29.8043 42.4297 29.8043C42.4141 29.8043 42.25 29.9889 42.0703 30.2165Z" fill="#333333"/>
<path d="M20.25 35.0483V35.6733H21.5H22.75V35.0483V34.4233H21.5H20.25V35.0483Z" fill="#333333"/>
<path d="M24 35.0483V35.6733H25.25H26.5V35.0483V34.4233H25.25H24V35.0483Z" fill="#333333"/>
<path d="M27.75 35.0483V35.6733H29H30.25V35.0483V34.4233H29H27.75V35.0483Z" fill="#333333"/>
<path d="M31.5 35.0483V35.6733H32.75H34V35.0483V34.4233H32.75H31.5V35.0483Z" fill="#333333"/>
<path d="M35.25 35.0483V35.6733H36.5H37.75V35.0483V34.4233H36.5H35.25V35.0483Z" fill="#333333"/>
</svg>
