<svg width="33" height="37" viewBox="0 0 33 37" fill="none" xmlns="http://www.w3.org/2000/svg">
<path d="M9.63515 5.11182C9.59599 5.07029 9.54873 5.03724 9.4963 5.01469C9.44386 4.99214 9.38735 4.98058 9.33027 4.98072L6.08329 4.9167L7.80892 3.2551C7.8825 3.18493 7.92526 3.08845 7.92783 2.9868C7.92866 2.88596 7.89039 2.78873 7.82109 2.71546C7.7862 2.67945 7.74454 2.65068 7.6985 2.6308C7.65246 2.61091 7.60296 2.60032 7.55282 2.59961C7.45186 2.59814 7.35438 2.63647 7.28147 2.70632L5.5528 4.36791L5.62902 0.459353C5.63023 0.403212 5.62036 0.347377 5.59996 0.29506C5.57955 0.242743 5.54902 0.194972 5.51012 0.154473C5.42937 0.0728384 5.32003 0.0258154 5.20524 0.0233678C5.14842 0.0217426 5.09186 0.031485 5.03886 0.0520155C4.98586 0.0725459 4.93749 0.103453 4.8966 0.142927C4.8557 0.182401 4.8231 0.229643 4.80071 0.281885C4.77832 0.334127 4.76659 0.390319 4.76621 0.447156L4.69304 4.35572L2.57717 2.15753C2.54253 2.12096 2.50098 2.09163 2.45493 2.07122C2.40888 2.05081 2.35924 2.03973 2.30888 2.03863C2.2081 2.03812 2.11096 2.07632 2.03753 2.14534C2.00096 2.17981 1.97183 2.22139 1.95191 2.26752C1.93199 2.31366 1.92169 2.36338 1.92167 2.41364C1.91991 2.46376 1.92847 2.51371 1.94683 2.56039C1.96519 2.60707 1.99295 2.64948 2.02839 2.68497L4.14426 4.88316L0.894228 4.82219C0.780217 4.82219 0.670878 4.86747 0.59026 4.94809C0.509642 5.02871 0.464355 5.13806 0.464355 5.25207C0.464355 5.36608 0.509642 5.47542 0.59026 5.55604C0.670878 5.63665 0.780217 5.68194 0.894228 5.68194L4.14121 5.74597L2.41254 7.40756C2.35816 7.45997 2.32056 7.52736 2.30454 7.60116C2.28852 7.67497 2.2948 7.75188 2.32257 7.82211C2.35034 7.89235 2.39834 7.95274 2.4605 7.99564C2.52266 8.03854 2.59617 8.06201 2.67168 8.06306C2.72172 8.06412 2.77148 8.05524 2.81806 8.03692C2.86464 8.0186 2.90712 7.99122 2.94303 7.95635L4.66864 6.29475L4.59548 10.2033C4.59426 10.2598 4.60418 10.3159 4.62467 10.3685C4.64516 10.4212 4.67582 10.4692 4.71489 10.51C4.75396 10.5508 4.80068 10.5834 4.85238 10.6061C4.90409 10.6289 4.95976 10.6412 5.01621 10.6423C5.12954 10.6445 5.23912 10.6017 5.32109 10.5234C5.40412 10.4434 5.45231 10.3339 5.45524 10.2186L5.52841 6.30695L7.64428 8.50818C7.71551 8.57983 7.81158 8.62132 7.91257 8.62404C7.98742 8.62481 8.06084 8.60353 8.12367 8.56285C8.18649 8.52217 8.23592 8.46389 8.26583 8.39528C8.29575 8.32667 8.30483 8.25077 8.29189 8.17705C8.27894 8.10333 8.24457 8.03505 8.19308 7.98074L6.07719 5.7795L9.32722 5.84354C9.44061 5.84211 9.54917 5.79746 9.63076 5.7187C9.71235 5.63994 9.7608 5.53302 9.76623 5.41975C9.76697 5.36213 9.75572 5.30498 9.73314 5.25197C9.71057 5.19895 9.6772 5.15122 9.63515 5.11182Z" fill="#CAAADA"/>
<path d="M15.8788 1.56295L15.6197 0.386108L15.2508 2.42881C14.0686 8.91717 10.437 14.7026 5.10742 18.5875C10.2964 22.9896 13.8982 28.9723 15.3606 35.618L15.6197 36.7949L15.9916 34.7552C17.1706 28.2664 20.8017 22.4803 26.132 18.5966C20.9424 14.1936 17.3406 8.2098 15.8788 1.56295Z" fill="#CAAADA"/>
<path d="M28.7235 20.8527L28.6138 20.3618L28.4614 21.2124C27.9699 23.9143 26.458 26.3235 24.2388 27.9411C26.3989 29.7732 27.8983 32.2634 28.5071 35.0296L28.6138 35.5174L28.7693 34.6698C29.2602 31.9678 30.7722 29.5583 32.9919 27.9411C30.8309 26.1098 29.3313 23.6193 28.7235 20.8527Z" fill="#CAAADA"/>
<path d="M30.062 10.9076C30.0835 11.1939 30.0196 11.4801 29.8784 11.73C29.7373 11.98 29.5252 12.1825 29.2689 12.3119C29.0126 12.4413 28.7237 12.4917 28.4388 12.4569C28.1538 12.4221 27.8856 12.3035 27.6681 12.1163C27.4505 11.929 27.2933 11.6814 27.2165 11.4048C27.1397 11.1282 27.1466 10.835 27.2364 10.5624C27.3262 10.2897 27.4949 10.0498 27.7211 9.87301C27.9473 9.69622 28.2208 9.59048 28.5071 9.56917C28.6971 9.55462 28.8881 9.57773 29.0692 9.63717C29.2503 9.69661 29.4179 9.79122 29.5624 9.91556C29.7069 10.0399 29.8253 10.1915 29.911 10.3618C29.9968 10.532 30.0481 10.7175 30.062 10.9076Z" fill="#CAAADA"/>
<path d="M32.4737 5.54165C32.4848 5.67345 32.4564 5.80557 32.3923 5.92126C32.3282 6.03694 32.2312 6.13098 32.1136 6.19145C31.9959 6.25192 31.863 6.27608 31.7316 6.26089C31.6002 6.24569 31.4763 6.19182 31.3756 6.10609C31.2749 6.02037 31.2019 5.90666 31.1658 5.77939C31.1298 5.65213 31.1324 5.51704 31.1733 5.39125C31.2142 5.26546 31.2915 5.15465 31.3955 5.07287C31.4994 4.99109 31.6253 4.94202 31.7572 4.93189C31.9329 4.9184 32.1069 4.97493 32.2411 5.08915C32.3753 5.20338 32.4589 5.36603 32.4737 5.54165Z" fill="#CAAADA"/>
</svg>
