<svg width="73" height="73" viewBox="0 0 73 73" fill="none" xmlns="http://www.w3.org/2000/svg">
<circle cx="36.5" cy="36.2983" r="36" fill="#F0D6FD"/>
<g clip-path="url(#clip0_241_329)">
<path d="M34.828 16.4233C33.0936 16.767 31.4764 17.642 30.2655 18.9077C28.992 20.2358 28.1873 21.8295 27.9061 23.5795C27.7655 24.4467 27.8514 26.6733 28.0545 27.5639C28.3748 28.9623 29.0467 30.1811 29.9686 31.0483C30.242 31.3061 30.9451 31.853 31.5311 32.267C32.1483 32.7045 32.6717 33.142 32.7889 33.3061C32.9842 33.603 33.0389 33.7983 32.9217 33.7983C32.8826 33.7983 32.703 33.9311 32.5155 34.0873C31.8358 34.6733 31.617 35.6733 31.9998 36.4936C32.1795 36.892 32.6248 37.3452 32.9451 37.4702C33.1092 37.5327 33.1248 37.5952 33.1561 38.267C33.1951 39.4389 33.6248 40.1733 34.5623 40.6811L35.0545 40.9467H36.4998H37.9451L38.4373 40.6811C39.3748 40.1733 39.8045 39.4389 39.8436 38.267L39.8748 37.5405L40.1561 37.3998C41.3748 36.7748 41.5467 35.0014 40.4842 34.0873C40.2967 33.9311 40.117 33.7983 40.078 33.7983C39.9608 33.7983 40.0155 33.603 40.2108 33.3061C40.328 33.142 40.8514 32.7045 41.4608 32.2748C42.0389 31.8608 42.7264 31.3295 42.992 31.0873C44.1326 30.0327 44.828 28.5795 45.0936 26.728C45.203 25.9155 45.1873 24.1498 45.0545 23.3998C44.4451 19.9077 41.6405 17.0873 38.117 16.4155C37.3514 16.267 35.5701 16.2748 34.828 16.4233ZM37.9686 17.8295C39.7733 18.1967 41.5155 19.3842 42.5623 20.9545C43.3748 22.1733 43.6873 23.1889 43.742 24.7905C43.828 27.1498 43.2498 28.892 41.9842 30.0639C41.7342 30.2905 41.1483 30.7436 40.6795 31.0639C39.5389 31.8452 39.0155 32.3764 38.7264 33.0405L38.4998 33.5639H37.8514H37.203V31.6108V29.6577H37.6717C38.0858 29.6577 38.1717 29.6342 38.3358 29.4545C38.6092 29.1577 38.6014 28.7748 38.3045 28.478L38.078 28.2514H36.4998H34.9217L34.6951 28.478C34.3983 28.7748 34.3826 29.1889 34.6639 29.4623C34.8201 29.6264 34.9295 29.6577 35.328 29.6577H35.7967V31.6108V33.5639H35.1483H34.4998L34.2733 33.0405C33.9842 32.3764 33.453 31.8373 32.3201 31.0639C29.9451 29.4545 29.1483 27.8139 29.2576 24.7905C29.3123 23.1889 29.6248 22.1733 30.4373 20.9545C31.4686 19.4077 33.203 18.2123 34.9842 17.8295C35.7186 17.6733 37.2186 17.6733 37.9686 17.8295ZM39.5936 35.228C39.828 35.5092 39.828 35.7592 39.5936 36.0405L39.4061 36.2592H36.4998H33.5936L33.4061 36.0405C33.3045 35.9233 33.2186 35.7436 33.2186 35.6498C33.2186 35.4233 33.4217 35.1342 33.6405 35.0483C33.7264 35.0092 35.0623 34.9858 36.6014 34.9936L39.4061 35.0092L39.5936 35.228ZM38.453 38.1498C38.453 38.7202 38.2186 39.1577 37.7889 39.3998C37.5076 39.5561 37.367 39.5795 36.4998 39.5795C35.6326 39.5795 35.492 39.5561 35.2108 39.3998C34.7811 39.1577 34.5467 38.7202 34.5467 38.1498V37.7045H36.4998H38.453V38.1498Z" fill="#333333"/>
<path d="M25.0545 18.1342C24.8123 18.3686 24.7889 18.8842 24.9998 19.0951C25.0779 19.1733 25.5623 19.478 26.0779 19.7748C26.7576 20.1733 27.0857 20.3139 27.2967 20.3139C27.6326 20.3217 27.8748 20.1264 27.9451 19.7983C28.0467 19.3451 27.8904 19.1733 26.7889 18.5326C25.6404 17.8686 25.3748 17.8061 25.0545 18.1342Z" fill="#333333"/>
<path d="M46.383 18.4311C45.9143 18.7045 45.4455 18.978 45.3518 19.0327C44.9768 19.267 44.9299 19.8764 45.258 20.1733C45.5549 20.4467 45.9143 20.3608 46.9221 19.7748C47.4377 19.478 47.9221 19.1733 48.0002 19.0952C48.2111 18.8842 48.1877 18.3686 47.9455 18.1342C47.6408 17.8217 47.3518 17.8764 46.383 18.4311Z" fill="#333333"/>
<path d="M23.3361 24.4623C22.9611 24.8295 23.1408 25.517 23.6408 25.642C23.7423 25.6655 24.3595 25.6733 25.0158 25.6576C26.1564 25.6342 26.2111 25.6264 26.3517 25.4467C26.5704 25.1811 26.547 24.6967 26.3048 24.4623C26.1173 24.267 26.0939 24.267 24.8204 24.267C23.547 24.267 23.5236 24.267 23.3361 24.4623Z" fill="#333333"/>
<path d="M46.6953 24.4623C46.4532 24.6967 46.4297 25.1811 46.6485 25.4467C46.7891 25.6264 46.8438 25.6342 47.9844 25.6576C48.6407 25.6733 49.2578 25.6655 49.3594 25.642C49.8594 25.517 50.0391 24.8295 49.6641 24.4623C49.4766 24.267 49.4532 24.267 48.1797 24.267C46.9063 24.267 46.8828 24.267 46.6953 24.4623Z" fill="#333333"/>
<path d="M26.1092 30.1264C25.5701 30.4389 25.0701 30.7592 24.9998 30.8452C24.6404 31.2514 24.9607 32.0014 25.492 32.0014C25.7967 32.0014 27.5936 30.9936 27.8357 30.6889C28.1561 30.2827 27.8904 29.6889 27.3514 29.6108C27.1248 29.5795 26.9373 29.6577 26.1092 30.1264Z" fill="#333333"/>
<path d="M45.2888 29.7514C45.0076 30.0014 44.9529 30.4155 45.1638 30.6889C45.406 30.9936 47.2029 32.0014 47.5076 32.0014C47.9998 32.0014 48.3123 31.3764 48.0623 30.9077C47.9529 30.7045 45.9529 29.5795 45.7029 29.5795C45.5857 29.5795 45.3982 29.6577 45.2888 29.7514Z" fill="#333333"/>
<path d="M27.2812 39.978C25.7734 40.1108 24.1484 40.4936 22.2031 41.1577C20.8984 41.6108 20.6719 41.7123 20.5625 41.9155C20.4297 42.1655 20.4688 42.5795 20.6406 42.767C20.9297 43.0717 21.125 43.0639 22.1875 42.6733C25.0859 41.6264 27.4531 41.1967 29.375 41.3764C31.2812 41.5561 32.7109 42.1967 33.8516 43.3842C34.4688 44.0248 34.9609 44.7202 34.7344 44.6186C33.1719 43.9623 33.2031 43.9545 26.5391 44.728C18.9375 45.6108 19.6484 45.4858 19.0547 46.0483C18.6016 46.4858 18.4531 46.9858 18.4531 48.0561C18.4531 48.9233 18.4453 48.9545 18.2891 48.9545C17.7031 48.9545 16.9531 49.4702 16.6641 50.0717C16.5156 50.3686 16.5 50.5561 16.5 51.6186C16.5 52.767 16.5078 52.853 16.7031 53.2358C16.8125 53.4623 17.0312 53.7514 17.1875 53.8764C17.7734 54.3608 17.5234 54.3452 25.7188 54.3452H33.1875L33.375 54.7514C33.6406 55.3373 34.25 55.9233 34.8047 56.1264C35.1953 56.2748 35.4141 56.2983 36.5 56.2983C37.5859 56.2983 37.8047 56.2748 38.1953 56.1264C38.75 55.9233 39.3594 55.3373 39.625 54.7592L39.8125 54.3452H47.2812C55.4609 54.3452 55.1875 54.3608 55.7891 53.8842C55.9609 53.7514 56.1875 53.4545 56.2969 53.2358C56.4922 52.853 56.5 52.767 56.5 51.6186C56.5 50.5561 56.4844 50.3686 56.3359 50.0717C56.0469 49.4702 55.2969 48.9545 54.7109 48.9545C54.5547 48.9545 54.5469 48.9233 54.5469 48.0561C54.5469 47.353 54.5156 47.0717 54.3906 46.7358C54.1797 46.1733 53.6875 45.7202 53.125 45.5639C52.8984 45.5014 50.0547 45.142 46.8125 44.767C39.7109 43.9545 39.8359 43.9545 38.2656 44.6186C38.0391 44.7202 38.5312 44.0248 39.1484 43.3842C41.5156 40.9155 45.3281 40.6811 50.8125 42.6733C51.875 43.0639 52.0703 43.0717 52.3594 42.767C52.5469 42.5639 52.5703 42.1108 52.3984 41.8686C52.1797 41.5561 49.4375 40.6342 47.6719 40.2827C43.5547 39.4545 40.5156 40.0795 38.3125 42.1889C37.6875 42.7905 36.8828 43.8686 36.6641 44.3998C36.6094 44.5405 36.5312 44.6577 36.5 44.6577C36.4688 44.6577 36.3906 44.5405 36.3359 44.3998C36.1172 43.8686 35.3125 42.7905 34.6875 42.1889C33.3203 40.8764 31.7109 40.1811 29.5703 39.9702C28.6953 39.8842 28.3281 39.8842 27.2812 39.978ZM33.4219 45.6342C34.0078 45.8061 34.7188 46.3061 35.0938 46.7983C35.5938 47.4623 35.7344 47.9077 35.7812 48.978L35.8125 49.892L35.4141 49.6264C35.1953 49.478 34.8125 49.2748 34.5703 49.1733L34.1172 48.9936L26.9922 48.9702L19.8594 48.9545V48.1264C19.8594 47.3295 19.8672 47.2983 20.0703 47.0873C20.2812 46.8842 20.3672 46.8686 21.8516 46.6967C22.7109 46.603 25.2969 46.2983 27.5938 46.0248C32.0625 45.5014 32.8125 45.4545 33.4219 45.6342ZM46.6562 46.1811C49.8125 46.5483 52.4609 46.8452 52.5391 46.8452C52.6172 46.8452 52.7891 46.9467 52.9141 47.0717C53.1328 47.2983 53.1406 47.3217 53.1406 48.1264V48.9545L46.0156 48.9702L38.8828 48.9936L38.4297 49.1733C38.1875 49.2748 37.8047 49.478 37.5859 49.6264L37.1875 49.892L37.2188 48.978C37.25 48.2983 37.2969 47.9467 37.4219 47.642C37.9062 46.3998 39.1406 45.5248 40.4062 45.517C40.6875 45.517 43.5 45.8139 46.6562 46.1811ZM34.2422 50.5795C35.125 51.017 35.6641 51.7983 35.7891 52.8139C35.8594 53.4467 36.0312 53.642 36.5 53.642C36.9688 53.642 37.1406 53.4467 37.2109 52.8139C37.3359 51.7983 37.875 51.017 38.7578 50.5795L39.1172 50.3998L46.9219 50.3764L54.7266 50.3608L54.9141 50.5327C55.0859 50.6889 55.0938 50.7592 55.0938 51.6186C55.0938 52.3998 55.0703 52.5561 54.9453 52.7123L54.7969 52.8998L46.8281 52.9233L38.8672 52.9389L38.6875 53.1342C38.5781 53.2514 38.4844 53.478 38.4453 53.728C38.375 54.1733 38.0938 54.5952 37.75 54.7748C37.4297 54.9389 35.5703 54.9389 35.25 54.7748C34.9062 54.5952 34.625 54.1733 34.5547 53.728C34.5156 53.478 34.4219 53.2514 34.3125 53.1342L34.1328 52.9389L26.1719 52.9233L18.2031 52.8998L18.0547 52.7123C17.9297 52.5561 17.9062 52.3998 17.9062 51.6264C17.9062 50.8061 17.9219 50.7045 18.0781 50.5405L18.25 50.3608L26.0625 50.3764L33.8828 50.3998L34.2422 50.5795Z" fill="#333333"/>
</g>
<defs>
<clipPath id="clip0_241_329">
<rect width="40" height="40" fill="white" transform="translate(16.5 16.2983)"/>
</clipPath>
</defs>
</svg>
