<svg width="73" height="73" viewBox="0 0 73 73" fill="none" xmlns="http://www.w3.org/2000/svg">
<circle cx="36.5" cy="36.2983" r="36" fill="#F9E2CF"/>
<g clip-path="url(#clip0_241_357)">
<path d="M25.703 20.728C23.2655 23.1655 21.2342 25.2436 21.1874 25.3608C21.1327 25.4936 21.1092 29.6889 21.1249 39.0327L21.1483 52.5092L21.3202 53.017C21.8358 54.517 22.9608 55.6498 24.4061 56.103L25.0233 56.2983H36.4999H47.9764L48.5936 56.103C50.0389 55.6498 51.1717 54.5092 51.6717 53.017C51.8358 52.5327 51.8436 52.353 51.8749 49.1811L51.8983 45.8452L52.1717 45.8061C52.5546 45.7436 52.8983 45.4702 53.0702 45.0952C53.2108 44.7905 53.2186 44.4702 53.2186 39.4233V34.0717L53.6171 33.9311C54.0702 33.767 54.5233 33.3452 54.7342 32.8998C54.8202 32.7202 54.8983 32.3452 54.9217 32.017C54.9608 31.3998 54.9686 31.392 55.7342 30.8608C56.5077 30.3217 56.7499 29.1264 56.2655 28.2123C56.1405 27.9702 56.0311 27.7045 56.0311 27.6264C56.0311 27.5483 56.1405 27.2827 56.2655 27.0405C56.4608 26.6655 56.4999 26.5092 56.4999 26.0327C56.4921 25.1889 56.2186 24.6889 55.4764 24.2202C55.0077 23.9233 54.9608 23.8452 54.9217 23.2202C54.8436 22.0561 54.1327 21.3061 53.0233 21.2358C52.7655 21.2202 52.4608 21.1733 52.3514 21.1342C52.0702 21.0248 51.8671 20.642 51.7577 20.0092C51.5389 18.7514 50.578 17.4311 49.4217 16.8295C48.3592 16.267 48.9139 16.2983 39.0311 16.2983H30.1327L25.703 20.728ZM48.1249 17.8217C48.703 17.9936 49.453 18.5405 49.8046 19.0327C49.9608 19.2592 50.0936 19.478 50.0936 19.5092C50.0936 19.5405 49.9608 19.5873 49.8046 19.6108C49.6405 19.642 49.2889 19.767 49.0233 19.8998C48.7577 20.0248 48.5155 20.1264 48.4764 20.1264C48.4452 20.1264 48.2108 20.017 47.9608 19.8842C46.8514 19.3061 45.6796 19.642 45.0467 20.7123C44.828 21.0952 44.5936 21.2202 44.1014 21.2202C43.5155 21.2202 43.1327 21.3764 42.6952 21.8061C42.2577 22.2358 42.0467 22.7436 42.0467 23.3842C42.0467 23.8373 41.953 24.0014 41.5858 24.1889C41.1717 24.3998 40.6796 24.978 40.5624 25.3998C40.4217 25.9077 40.4921 26.5873 40.7421 27.0639C41.0077 27.5639 41.0077 27.6889 40.7421 28.1889C40.3358 28.9702 40.4296 30.017 40.9608 30.5795C41.1014 30.728 41.3827 30.9467 41.5858 31.0795C41.9921 31.3295 42.0155 31.3686 42.078 32.142C42.1014 32.4077 42.1874 32.7592 42.2733 32.9233C42.4921 33.353 42.9686 33.7827 43.3983 33.9389L43.7655 34.0717V39.2905C43.7655 44.6264 43.7811 44.9858 44.0702 45.3373C44.4921 45.8452 45.3671 46.0014 45.8827 45.6498C46.0311 45.5561 46.6639 44.8764 47.2889 44.1498C47.9139 43.4233 48.4608 42.8217 48.4999 42.8139C48.5389 42.8061 48.9999 43.2983 49.5311 43.9155L50.4842 45.0405V48.392C50.4842 50.3452 50.453 51.9233 50.4061 52.1655C50.203 53.2123 49.5155 54.1186 48.5546 54.5952L48.0233 54.853H36.4999H24.9764L24.4452 54.5952C23.4842 54.1186 22.7967 53.2123 22.5936 52.1655C22.5467 51.892 22.5155 47.353 22.5155 39.0248V26.2983H24.8671C26.7577 26.2983 27.3124 26.2748 27.703 26.1733C28.9296 25.8608 30.1327 24.892 30.6639 23.7983C31.1561 22.7983 31.1874 22.5483 31.1874 19.9936V17.7045H39.453C46.6561 17.7045 47.7733 17.7202 48.1249 17.8217ZM29.7655 20.9077C29.7421 22.4233 29.7421 22.4311 29.4999 22.9389C29.1483 23.6811 28.6327 24.2045 27.9217 24.5561L27.328 24.853L25.453 24.8764L23.5702 24.8998L26.6561 21.8061L29.7421 18.7202L29.7655 19.0483C29.7811 19.2358 29.7811 20.0717 29.7655 20.9077ZM47.4608 21.2358C47.8592 21.4389 48.0389 21.4858 48.4921 21.4858C48.9686 21.4936 49.1092 21.4623 49.5546 21.228C50.0389 20.978 50.0936 20.9702 50.3202 21.0639C50.4686 21.1264 50.6249 21.2748 50.7186 21.4467C51.0702 22.142 51.8983 22.6264 52.7421 22.6264C53.3046 22.6342 53.5311 22.892 53.5311 23.5483C53.5311 24.2748 53.8592 24.8686 54.5077 25.2905C54.7186 25.4311 54.9452 25.603 54.9999 25.6655C55.1483 25.8452 55.1092 26.1733 54.8827 26.6186C54.703 26.9623 54.6639 27.1342 54.6639 27.6264C54.6639 28.1186 54.703 28.2905 54.8827 28.6342C55.2186 29.2905 55.1639 29.5483 54.6171 29.8764C53.9452 30.2748 53.5311 30.9623 53.5311 31.6733C53.5311 32.1655 53.3592 32.5327 53.1171 32.5795C53.0233 32.603 52.7264 32.6342 52.453 32.6577C51.6796 32.728 51.0546 33.1342 50.7186 33.7983C50.6249 33.978 50.4764 34.1264 50.3202 34.1889C50.0936 34.2827 50.0389 34.2748 49.5546 34.0327C49.1327 33.8139 48.953 33.767 48.5233 33.767C48.0858 33.7592 47.9139 33.7983 47.4452 34.0327C46.9217 34.2827 46.8671 34.2905 46.6796 34.1889C46.5624 34.1264 46.328 33.8608 46.1561 33.6108C45.7186 32.9858 45.2342 32.7123 44.4374 32.6498C43.6483 32.5873 43.5311 32.4623 43.453 31.6186C43.3827 30.8139 43.1483 30.3998 42.5155 29.9702C41.8046 29.4858 41.7577 29.3295 42.1249 28.6108C42.3124 28.2358 42.3592 28.0561 42.3592 27.6264C42.3592 27.1967 42.3124 27.017 42.1249 26.642C41.9999 26.392 41.8905 26.103 41.8905 26.0014C41.8905 25.7983 42.1483 25.517 42.6796 25.1577C43.1717 24.8217 43.453 24.2514 43.453 23.5952C43.453 23.1889 43.4842 23.0717 43.6483 22.8764C43.8202 22.6733 43.8983 22.642 44.4217 22.603C45.1483 22.5483 45.7264 22.267 46.0233 21.8139C46.3202 21.3686 46.703 20.9858 46.8436 20.9858C46.9139 20.9858 47.1952 21.0952 47.4608 21.2358ZM46.0311 35.4858C46.2186 35.5873 46.4764 35.6264 46.8592 35.6342C47.3358 35.6342 47.4999 35.5952 47.9608 35.3686L48.4999 35.1108L49.0077 35.3686C49.4452 35.5952 49.5858 35.6264 50.0936 35.6342C50.7499 35.6342 51.203 35.4467 51.5936 35.0327L51.8124 34.7983V39.5873C51.8124 44.2514 51.8046 44.3764 51.6717 44.228C51.5858 44.142 51.0936 43.5639 50.5624 42.9389C50.0389 42.3139 49.5077 41.728 49.3983 41.6264C48.9217 41.2123 48.0936 41.2123 47.6249 41.6264C47.4686 41.7592 46.8671 42.4311 46.2889 43.1108C45.703 43.7905 45.2186 44.3452 45.203 44.3452C45.1874 44.3452 45.1717 42.1967 45.1717 39.5639V34.7827L45.4686 35.0639C45.6249 35.2202 45.8827 35.4077 46.0311 35.4858Z" fill="#333333"/>
<path d="M26.0234 29.8061C25.8906 29.9467 25.7969 30.1186 25.7969 30.2436C25.7969 30.5014 25.9844 30.8764 26.1484 30.9389C26.2188 30.9623 26.6953 30.9858 27.2109 30.9858C28.1016 30.9858 28.1562 30.978 28.3359 30.7905C28.6172 30.517 28.6016 30.103 28.3047 29.8061C28.0781 29.5795 28.0625 29.5795 27.1641 29.5795C26.2656 29.5795 26.25 29.5795 26.0234 29.8061Z" fill="#333333"/>
<path d="M30.1717 29.6811C29.7576 29.892 29.6717 30.3764 29.9842 30.7436L30.1873 30.9858H34.8279H39.4764L39.6639 30.7905C39.9451 30.517 39.9295 30.103 39.6326 29.8061L39.4061 29.5795H34.8826C31.4217 29.5795 30.3201 29.603 30.1717 29.6811Z" fill="#333333"/>
<path d="M26.1012 33.0405C25.7341 33.3217 25.7028 33.7983 26.0231 34.1186L26.2497 34.3452H32.8122H39.3747L39.6169 34.142C39.9372 33.8764 39.9606 33.4233 39.6637 33.1342L39.4762 32.9389H32.8512C27.7653 32.9467 26.195 32.9623 26.1012 33.0405Z" fill="#333333"/>
<path d="M25.9921 36.4936C25.5858 36.892 25.8358 37.5561 26.4296 37.6655C26.578 37.6889 29.1092 37.7045 32.0624 37.6889L37.4374 37.6655L37.6405 37.4623C37.9061 37.1889 37.9217 36.7592 37.6639 36.4858L37.4921 36.2983H31.8358H26.1796L25.9921 36.4936Z" fill="#333333"/>
<path d="M26.8516 39.6733C26.5703 39.8217 26.5 39.9858 26.5 40.5092C26.5 41.5092 26.8984 42.4858 27.5234 43.0483C28.0547 43.5248 28.5156 43.6733 29.3828 43.6264C30.1094 43.5873 30.4922 43.4467 30.9766 43.017L31.2344 42.7905L31.6172 43.0639C32.1953 43.4702 32.8438 43.642 33.8359 43.642C34.8203 43.642 35.5781 43.4936 36.1172 43.1967C37.0547 42.6889 37.4844 41.6498 36.9766 41.1342C36.6094 40.7748 36.0391 40.8686 35.875 41.3295C35.7109 41.7592 35.6797 41.8061 35.2969 41.9936C34.7734 42.2514 33.5156 42.3217 32.9141 42.1186C32.3984 41.9467 31.9922 41.5561 31.9297 41.1655C31.8125 40.4858 31.6328 40.2827 31.1719 40.2827C30.7734 40.2827 30.4844 40.5561 30.4844 40.9233C30.4844 41.2905 30.1797 41.853 29.8672 42.0561C29.5078 42.2983 28.9609 42.2983 28.6094 42.0561C28.2734 41.8373 27.9922 41.2905 27.9375 40.7514C27.8672 40.0873 27.7656 39.8217 27.5156 39.6967C27.25 39.5561 27.0703 39.5483 26.8516 39.6733Z" fill="#333333"/>
<path d="M26.2108 45.0014C25.7577 45.2045 25.6483 45.767 25.992 46.103C26.1717 46.2905 26.2264 46.2983 27.1639 46.2983C28.1014 46.2983 28.1561 46.2905 28.3358 46.103C28.5936 45.853 28.5936 45.4467 28.3436 45.1498C28.1639 44.9389 28.1249 44.9311 27.3124 44.9155C26.6952 44.892 26.3905 44.9233 26.2108 45.0014Z" fill="#333333"/>
<path d="M30.1798 45.0248C29.7423 45.2514 29.6642 45.7905 30.0157 46.142C30.1564 46.2827 30.2814 46.2983 31.1798 46.2983C32.1798 46.2983 32.1954 46.2983 32.3517 46.0952C32.586 45.7983 32.5704 45.3608 32.3126 45.1186C32.1329 44.9545 32.0392 44.9311 31.2814 44.9077C30.5939 44.8842 30.3985 44.9077 30.1798 45.0248Z" fill="#333333"/>
<path d="M34.25 44.978C34.0625 45.0327 33.9609 45.1342 33.875 45.3295C33.7422 45.642 33.7891 45.8608 34.0234 46.1186C34.1719 46.2905 34.25 46.2983 35.1719 46.2983C36.1016 46.2983 36.1719 46.2905 36.3281 46.1186C36.5781 45.853 36.5625 45.3686 36.2969 45.1186C36.1172 44.9545 36.0234 44.9311 35.3047 44.9155C34.8672 44.9077 34.3906 44.9311 34.25 44.978Z" fill="#333333"/>
<path d="M38.3359 44.9467C37.8359 45.0717 37.6406 45.7827 38.0078 46.1264C38.1719 46.2827 38.2734 46.2983 39.1797 46.2983C40.0625 46.2983 40.1875 46.2827 40.3281 46.142C40.7109 45.7592 40.5547 45.1186 40.039 44.978C39.7422 44.892 38.6328 44.8764 38.3359 44.9467Z" fill="#333333"/>
<path d="M47.3591 23.0639C46.2575 23.353 45.1872 24.1108 44.5778 25.0327C44.4138 25.2748 44.1794 25.7748 44.0544 26.142C43.6013 27.4311 43.7888 29.0248 44.5309 30.1733C45.1638 31.1498 46.2888 31.9389 47.4216 32.2045C48.1403 32.3764 49.3278 32.3217 50.0153 32.0795C51.4294 31.603 52.5622 30.4311 53.0075 28.9936C53.2419 28.228 53.2419 27.0248 53.0075 26.2592C52.6169 25.0248 51.6794 23.9389 50.5309 23.4077C50.1794 23.2436 49.7106 23.0717 49.4841 23.0248C48.9216 22.9077 47.8825 22.9233 47.3591 23.0639ZM49.82 24.642C51.1716 25.2748 51.9841 26.7436 51.7419 28.1186C51.5153 29.3998 50.6013 30.4311 49.3591 30.7905C47.5466 31.3217 45.5544 30.017 45.2575 28.1108C45.0544 26.7905 45.7575 25.3842 46.9528 24.7514C47.5778 24.4155 47.9059 24.3452 48.6638 24.3764C49.1794 24.3998 49.4059 24.4545 49.82 24.642Z" fill="#333333"/>
</g>
<defs>
<clipPath id="clip0_241_357">
<rect width="40" height="40" fill="white" transform="translate(16.5 16.2983)"/>
</clipPath>
</defs>
</svg>
