<svg width="37" height="40" viewBox="0 0 37 40" fill="none" xmlns="http://www.w3.org/2000/svg">
<path d="M18.3662 0.864746C17.4253 0.864746 17.4253 3.04347 17.4253 3.04347V5.22217C17.4253 5.22217 17.4253 7.40088 18.3662 7.40088C19.307 7.40088 19.307 5.22217 19.307 5.22217V3.04347C19.307 3.04347 19.3008 0.864746 18.3662 0.864746Z" fill="#E9CFF5"/>
<path d="M7.20433 4.54156C6.44849 5.09817 7.7124 6.86023 7.7124 6.86023L8.9669 8.62228C8.9669 8.62228 10.2214 10.3843 10.9835 9.82772C11.7456 9.27112 10.4754 7.50907 10.4754 7.50907L9.22093 5.74702C9.22093 5.74702 7.96016 3.98496 7.20433 4.54156Z" fill="#E9CFF5"/>
<path d="M0.307721 14.1693C0.0191851 15.0694 2.06089 15.7437 2.06089 15.7437L4.10572 16.418C4.10572 16.418 6.14742 17.0891 6.43596 16.1889C6.72449 15.2888 4.68279 14.6145 4.68279 14.6145L2.63796 13.9434C2.63796 13.9434 0.596256 13.2692 0.307721 14.1693Z" fill="#E9CFF5"/>
<path d="M0.307721 26.0743C0.596256 26.9744 2.63796 26.3033 2.63796 26.3033L4.68279 25.629C4.68279 25.629 6.72449 24.9547 6.43596 24.0387C6.14742 23.1227 4.10572 23.8129 4.10572 23.8129L2.06089 24.484C2.06089 24.484 0.0191851 25.171 0.307721 26.0743Z" fill="#E9CFF5"/>
<path d="M7.20439 35.6987C7.96023 36.2553 9.22414 34.4932 9.22414 34.4932L10.4786 32.7312C10.4786 32.7312 11.7331 30.9691 10.9867 30.4125C10.2403 29.8559 8.9701 31.618 8.9701 31.618L7.7156 33.38C7.7156 33.38 6.44855 35.1421 7.20439 35.6987Z" fill="#E9CFF5"/>
<path d="M18.3662 39.3787C19.307 39.3787 19.307 37.1999 19.307 37.1999V35.0212C19.307 35.0212 19.307 32.8425 18.3662 32.8425C17.4253 32.8425 17.4253 35.0212 17.4253 35.0212V37.2063C17.4253 37.2063 17.4316 39.3787 18.3662 39.3787Z" fill="#E9CFF5"/>
<path d="M29.5281 35.6987C30.2839 35.1421 29.02 33.38 29.02 33.38L27.7655 31.618C27.7655 31.618 26.511 29.8559 25.7489 30.4125C24.9868 30.9691 26.257 32.7312 26.257 32.7312L27.5115 34.4932C27.5115 34.4932 28.7722 36.2521 29.5281 35.6987Z" fill="#E9CFF5"/>
<path d="M36.4247 26.0742C36.7133 25.1741 34.6716 24.4839 34.6716 24.4839L32.6267 23.8128C32.6267 23.8128 30.585 23.1385 30.2965 24.0386C30.008 24.9388 32.0497 25.6289 32.0497 25.6289L34.0945 26.3032C34.0945 26.3032 36.1362 26.9712 36.4247 26.0742Z" fill="#E9CFF5"/>
<path d="M36.4247 14.1693C36.1362 13.2692 34.0945 13.9434 34.0945 13.9434L32.0497 14.6241C32.0497 14.6241 30.008 15.2984 30.2965 16.1985C30.585 17.0986 32.6267 16.4275 32.6267 16.4275L34.6716 15.7532C34.6716 15.7532 36.7133 15.0694 36.4247 14.1693Z" fill="#E9CFF5"/>
<path d="M29.5282 4.54156C28.7724 3.98496 27.5085 5.74702 27.5085 5.74702L26.254 7.50907C26.254 7.50907 24.9995 9.27112 25.7459 9.82772C26.4923 10.3843 27.7625 8.62228 27.7625 8.62228L29.017 6.86023C29.017 6.86023 30.284 5.09817 29.5282 4.54156Z" fill="#E9CFF5"/>
<path d="M18.2755 23.9719L13.0693 27.4133C13.0416 27.4332 13.0086 27.4438 12.9747 27.4438C12.9409 27.4438 12.9079 27.4331 12.8803 27.4131C12.8527 27.3932 12.8319 27.365 12.8208 27.3326C12.8097 27.3001 12.8089 27.265 12.8184 27.232L14.5151 21.2652C14.5226 21.2336 14.5214 21.2005 14.5114 21.1696C14.5014 21.1387 14.4831 21.1112 14.4586 21.0903L9.54098 17.2513C9.51559 17.23 9.49717 17.2013 9.48815 17.1692C9.47913 17.137 9.47994 17.1028 9.49047 17.0711C9.501 17.0394 9.52076 17.0117 9.54713 16.9916C9.57351 16.9716 9.60527 16.9601 9.63821 16.9587L15.895 16.7106C15.9271 16.7097 15.9581 16.6993 15.9843 16.6806C16.0105 16.6619 16.0307 16.6359 16.0424 16.6056L18.2127 10.7883C18.2225 10.7537 18.243 10.7234 18.2713 10.7017C18.2996 10.6801 18.3341 10.6683 18.3695 10.6683C18.405 10.6683 18.4395 10.6801 18.4678 10.7017C18.496 10.7234 18.5166 10.7537 18.5264 10.7883L20.6966 16.6056C20.7083 16.6359 20.7286 16.6619 20.7548 16.6806C20.781 16.6993 20.812 16.7097 20.844 16.7106L27.1009 16.9587C27.1338 16.9601 27.1656 16.9716 27.192 16.9916C27.2183 17.0117 27.2381 17.0394 27.2486 17.0711C27.2591 17.1028 27.2599 17.137 27.2509 17.1692C27.2419 17.2013 27.2235 17.23 27.1981 17.2513L22.2805 21.0903C22.2559 21.1112 22.2377 21.1387 22.2277 21.1696C22.2177 21.2005 22.2164 21.2336 22.224 21.2652L23.9207 27.232C23.9302 27.265 23.9294 27.3001 23.9183 27.3326C23.9072 27.365 23.8864 27.3932 23.8588 27.4131C23.8312 27.4331 23.7982 27.4438 23.7643 27.4438C23.7305 27.4438 23.6974 27.4332 23.6698 27.4133L18.4448 23.9719C18.4194 23.9558 18.3901 23.9473 18.3601 23.9473C18.3302 23.9473 18.3009 23.9558 18.2755 23.9719Z" fill="#E9CFF5"/>
</svg>
