<svg width="37" height="39" viewBox="0 0 37 39" fill="none" xmlns="http://www.w3.org/2000/svg">
<path d="M16.7885 22.4069H15.3462V20.9646C15.3462 20.9646 15.3462 12.9977 12.8051 12.9977C10.2639 12.9977 10.2639 20.9646 10.2639 20.9646V22.4069H8.81849C8.81849 22.4069 0.851562 22.4069 0.851562 24.9481C0.851562 27.4892 8.81849 27.4892 8.81849 27.4892H10.2639V28.9346C10.2639 28.9346 10.2639 36.9015 12.8051 36.9015C15.3462 36.9015 15.3462 28.9346 15.3462 28.9346V27.4892H16.7885C16.7885 27.4892 24.7554 27.4892 24.7554 24.9481C24.7554 22.4069 16.7885 22.4069 16.7885 22.4069Z" fill="#CAAADA"/>
<path d="M31.7011 5.90047H30.853V5.0524C30.853 5.0524 30.853 0.363235 29.358 0.363235C27.8631 0.363235 27.86 5.0524 27.86 5.0524V5.90047H27.0119C27.0119 5.90047 22.3228 5.90046 22.3228 7.39542C22.3228 8.89038 27.0119 8.89041 27.0119 8.89041H27.86V9.74157C27.86 9.74157 27.86 14.4307 29.358 14.4307C30.8561 14.4307 30.853 9.74157 30.853 9.74157V8.89041H31.7011C31.7011 8.89041 36.3902 8.89038 36.3902 7.39542C36.3902 5.90046 31.7011 5.90047 31.7011 5.90047Z" fill="#CAAADA"/>
<path d="M29.9153 35.6233C29.9542 36.1313 29.8417 36.6394 29.5918 37.0834C29.3419 37.5274 28.9659 37.8873 28.5114 38.1175C28.0569 38.3478 27.5443 38.438 27.0385 38.3768C26.5327 38.3157 26.0565 38.1059 25.6699 37.774C25.2834 37.442 25.004 37.0029 24.8671 36.5122C24.7303 36.0214 24.742 35.5011 24.9009 35.0171C25.0599 34.533 25.3588 34.1069 25.7599 33.7928C26.161 33.4787 26.6463 33.2906 27.1544 33.2524C27.8348 33.2012 28.5077 33.4221 29.0253 33.8666C29.543 34.3111 29.863 34.943 29.9153 35.6233Z" fill="#CAAADA"/>
<path d="M34.1929 26.0995C34.21 26.3332 34.1574 26.5667 34.0419 26.7705C33.9263 26.9743 33.7529 27.1394 33.5436 27.2447C33.3343 27.3501 33.0985 27.391 32.866 27.3624C32.6334 27.3338 32.4145 27.2369 32.237 27.084C32.0595 26.9311 31.9312 26.729 31.8685 26.5033C31.8057 26.2775 31.8113 26.0382 31.8845 25.8157C31.9577 25.5931 32.0951 25.3971 32.2796 25.2526C32.464 25.1081 32.6872 25.0215 32.9208 25.0038C33.0763 24.992 33.2327 25.011 33.3808 25.0597C33.529 25.1084 33.6661 25.1859 33.7843 25.2876C33.9024 25.3894 33.9994 25.5135 34.0695 25.6528C34.1396 25.7922 34.1816 25.9439 34.1929 26.0995Z" fill="#CAAADA"/>
</svg>
