<svg width="386" height="387" viewBox="0 0 386 387" fill="none" xmlns="http://www.w3.org/2000/svg">
<path d="M381.05 150.426C389.268 186.011 387.222 223.197 375.148 257.665C363.074 292.132 341.469 322.466 312.842 345.14L310.902 342.69C339.064 320.382 360.32 290.54 372.198 256.631C384.076 222.722 386.09 186.138 378.004 151.13L381.05 150.426Z" fill="#8708C2"/>
<ellipse cx="360.348" cy="287.116" rx="15.0077" ry="15.0096" fill="#8708C2"/>
<g clip-path="url(#clip0_241_290)">
<path fill-rule="evenodd" clip-rule="evenodd" d="M364.841 288.603L359.896 291.946C358.692 292.761 357.06 291.906 357.06 290.46V283.773C357.06 282.327 358.692 281.472 359.896 282.287L364.841 285.63C365.085 285.794 365.285 286.015 365.423 286.274C365.561 286.534 365.633 286.823 365.633 287.117C365.633 287.41 365.561 287.7 365.423 287.959C365.285 288.218 365.085 288.439 364.841 288.603Z" fill="white"/>
</g>
<defs>
<clipPath id="clip0_241_290">
<rect width="8.57581" height="10.2923" fill="white" transform="translate(357.06 281.97)"/>
</clipPath>
</defs>
</svg>
