<svg width="73" height="73" viewBox="0 0 73 73" fill="none" xmlns="http://www.w3.org/2000/svg">
<circle cx="36.5" cy="36.2983" r="36" fill="#FACBCB"/>
<path d="M23.9689 19.6264C22.6486 19.9467 21.6798 20.9311 21.3361 22.3139C21.1798 22.9155 21.2032 24.4076 21.3751 25.0326C21.6642 26.1186 22.2892 27.1498 23.0001 27.7045L23.3907 28.017H22.5001C20.2892 28.017 19.1954 28.3686 18.1329 29.4233C17.6798 29.8686 17.4923 30.1186 17.3517 30.478L17.1642 30.9467L17.1408 35.3764C17.1173 39.6811 17.1251 39.8217 17.2814 40.2826C17.3673 40.5483 17.5236 40.892 17.6251 41.0483C18.0861 41.7748 19.0001 42.4311 19.8673 42.6498L20.2892 42.7592L20.3282 47.7826L20.3673 52.7983L20.5548 52.9467C20.9298 53.2514 21.5079 53.0639 21.6173 52.6108C21.6407 52.5092 21.6486 47.767 21.6407 42.0639L21.6173 31.6967L21.4532 31.5248C21.2189 31.2983 20.7657 31.3061 20.5157 31.5405L20.3282 31.7123V36.5483C20.3282 40.3608 20.3048 41.3764 20.2345 41.3764C20.0236 41.3686 19.4767 41.0717 19.172 40.7905C18.9923 40.6342 18.7658 40.3295 18.6564 40.103L18.4533 39.7045V35.5639C18.4611 31.0951 18.4611 31.103 18.8751 30.5561C19.1642 30.1733 19.797 29.767 20.4064 29.5639C20.8986 29.392 21.0392 29.3842 25.6798 29.3451L30.4454 29.3061L31.0704 29.0951C32.4923 28.6108 33.8283 27.603 35.6642 25.6186C36.3126 24.9233 36.9376 24.3139 37.0548 24.2748C37.2111 24.2201 37.3439 24.2436 37.5861 24.353C37.8751 24.478 37.9064 24.5248 37.9064 24.767C37.9064 25.4076 36.8283 27.0014 35.6251 28.142C33.7736 29.892 31.1329 31.3998 29.5939 31.5795C29.0392 31.642 28.797 31.7436 28.6954 31.9701C28.6329 32.1108 28.6095 34.9701 28.6095 42.4389V52.7123L28.8048 52.8998C29.1251 53.228 29.6251 53.142 29.8439 52.728C29.9142 52.603 29.9376 50.0483 29.9376 42.7201V32.8842L30.3907 32.7826C30.6329 32.728 31.0392 32.603 31.2892 32.5092L31.7345 32.3217V35.0405C31.7345 38.0405 31.7736 38.3608 32.2111 39.0483C32.5314 39.5483 32.9142 39.8686 33.5314 40.1576L34.0392 40.3998L38.5939 40.4233L43.1408 40.4467V44.1811V47.9155L40.9923 50.0405C38.9845 52.017 38.8439 52.1733 38.8439 52.4311C38.8439 52.8139 39.1251 53.0951 39.5158 53.0951C39.7892 53.0951 39.8986 53.0092 41.2189 51.7123C42.0001 50.9467 42.9064 50.0561 43.2423 49.7358L43.8439 49.1498L45.0783 50.3608C47.7345 52.9858 47.8595 53.0951 48.1486 53.0951C48.4454 53.0873 48.6173 52.9858 48.7579 52.7201C48.9611 52.3295 48.8361 52.1655 46.6095 49.978L44.4689 47.8686V44.1498V40.4389H48.8048C51.7111 40.4389 53.2658 40.4076 53.547 40.353C54.4611 40.1576 55.2033 39.5795 55.6173 38.7358L55.8361 38.2905V30.2826V22.2748L55.6251 21.8295C55.2501 21.017 54.4611 20.4076 53.547 20.2123C53.2501 20.1498 50.4064 20.1264 43.7814 20.1264C33.3673 20.1264 33.8751 20.103 33.0626 20.6576C32.8282 20.8139 32.5079 21.1186 32.3439 21.3373C31.8048 22.0561 31.7892 22.1498 31.7423 24.892L31.6954 27.3451L31.2657 27.5639C30.4845 27.9467 30.047 28.017 28.3751 28.017L26.8517 28.0092L27.0861 27.8451C27.8517 27.2983 28.5626 26.1811 28.8517 25.0717C29.0548 24.2983 29.0782 22.9623 28.8986 22.2592C28.6251 21.228 27.9689 20.3608 27.1251 19.9311C26.3126 19.5248 24.9532 19.392 23.9689 19.6264ZM26.3048 21.0561C27.0782 21.3998 27.5392 22.0561 27.672 23.017C27.7501 23.5795 27.6798 24.4155 27.5001 24.9701C27.2423 25.7826 26.6798 26.5326 26.0392 26.9076C25.5548 27.1889 24.7579 27.2045 24.2501 26.9389C23.4767 26.5326 22.8673 25.5951 22.6407 24.4858C22.172 22.2201 23.2111 20.7826 25.2501 20.853C25.7267 20.8686 26.0236 20.9311 26.3048 21.0561ZM53.3829 21.5405C53.7736 21.6655 54.2033 22.017 54.4142 22.4155L54.5861 22.7436V30.2826V37.8217L54.4142 38.1498C54.172 38.5951 53.7345 38.9311 53.2658 39.0326C52.9845 39.0951 50.0548 39.1108 43.5704 39.0951C33.3204 39.0717 34.0939 39.1108 33.5783 38.5951C33.0939 38.103 33.1017 38.1889 33.0782 34.7983L33.0548 31.6967L33.2736 31.5639C34.2267 30.978 35.3283 30.1967 35.9533 29.6655L36.6954 29.0326H43.8595H51.0236L51.1798 28.8295C51.2736 28.7123 51.3439 28.5248 51.3439 28.4076C51.3439 28.2905 51.2736 28.103 51.1798 27.9858L51.0236 27.7826H44.4298H37.8361L38.3283 27.0561C38.5939 26.6576 38.8986 26.1186 39.0079 25.8451L39.1954 25.3608L45.0783 25.3451L50.9689 25.3217L51.1642 25.0951C51.3204 24.9076 51.3517 24.8139 51.3126 24.5873C51.2189 23.9936 51.6329 24.0326 45.0626 24.0326H39.1876L38.8908 23.6733C38.4767 23.1811 37.9454 22.9389 37.2579 22.9389C36.9611 22.9389 36.6017 22.9936 36.4376 23.0561C36.2501 23.1342 35.6251 23.7123 34.6017 24.7592L33.0626 26.3373L33.0782 24.5014C33.1017 22.7201 33.1095 22.6576 33.2892 22.3373C33.4923 21.9858 33.9142 21.6498 34.2814 21.5326C34.6408 21.4311 53.0236 21.4389 53.3829 21.5405Z" fill="#333333"/>
<path d="M36.8516 31.5092C36.3594 31.6342 36.1641 32.2748 36.5234 32.6108L36.7031 32.7827H43.8359H50.9609L51.1484 32.5873C51.3984 32.3452 51.3984 32.0014 51.1562 31.7123L50.9687 31.4936L43.9844 31.4858C40.1484 31.478 36.9375 31.4858 36.8516 31.5092Z" fill="#333333"/>
<path d="M36.8128 35.2592C36.3597 35.4311 36.2112 35.9467 36.5081 36.3295L36.6644 36.5326H43.805C51.7815 36.5326 51.219 36.5717 51.3128 35.978C51.3519 35.7514 51.3206 35.6576 51.1644 35.4701L50.969 35.2436L43.9456 35.228C40.0862 35.2201 36.8753 35.2358 36.8128 35.2592Z" fill="#333333"/>
<path d="M24.8125 42.4467C24.7188 42.4623 24.5781 42.5483 24.5 42.642C24.3594 42.7904 24.3516 43.0483 24.3281 47.6186C24.3203 50.267 24.3281 52.5092 24.3516 52.6029C24.4688 53.0873 25.0938 53.2592 25.4453 52.8998L25.6406 52.7123V47.7592C25.6406 42.892 25.6406 42.8061 25.4844 42.642C25.3906 42.5483 25.2891 42.4701 25.25 42.4701C25.2188 42.4701 25.1406 42.4545 25.0781 42.4389C25.0234 42.4233 24.8984 42.4311 24.8125 42.4467Z" fill="#333333"/>
</svg>
