<svg width="33" height="38" viewBox="0 0 33 38" fill="none" xmlns="http://www.w3.org/2000/svg">
<path d="M9.64297 5.38696C9.6038 5.34544 9.55655 5.31238 9.50411 5.28984C9.45167 5.26729 9.39516 5.25573 9.33809 5.25587L6.0911 5.19184L7.81674 3.53024C7.89032 3.46007 7.93308 3.36359 7.93564 3.26195C7.93647 3.16111 7.8982 3.06387 7.82891 2.99061C7.79401 2.9546 7.75235 2.92582 7.70631 2.90594C7.66027 2.88606 7.61077 2.87546 7.56063 2.87475C7.45967 2.87328 7.36219 2.91162 7.28928 2.98146L5.56062 4.64305L5.63684 0.7345C5.63805 0.678358 5.62817 0.622523 5.60777 0.570206C5.58737 0.517889 5.55683 0.470119 5.51793 0.42962C5.43718 0.347985 5.32784 0.300962 5.21305 0.298514C5.15623 0.296889 5.09967 0.306632 5.04667 0.327162C4.99367 0.347692 4.9453 0.378599 4.90441 0.418073C4.86352 0.457547 4.83091 0.50479 4.80852 0.557032C4.78613 0.609273 4.7744 0.665466 4.77402 0.722302L4.70085 4.63087L2.58498 2.43267C2.55034 2.39611 2.5088 2.36678 2.46275 2.34637C2.41669 2.32596 2.36705 2.31488 2.31669 2.31378C2.21591 2.31327 2.11878 2.35147 2.04534 2.42049C2.00877 2.45496 1.97965 2.49653 1.95972 2.54267C1.9398 2.5888 1.9295 2.63853 1.92948 2.68878C1.92772 2.73891 1.93629 2.78886 1.95464 2.83554C1.973 2.88222 2.00077 2.92462 2.0362 2.96012L4.15207 5.1583L0.902041 5.09733C0.788029 5.09733 0.678691 5.14262 0.598072 5.22324C0.517454 5.30386 0.472168 5.4132 0.472168 5.52721C0.472168 5.64123 0.517454 5.75056 0.598072 5.83118C0.678691 5.9118 0.788029 5.95709 0.902041 5.95709L4.14902 6.02112L2.42036 7.68271C2.36597 7.73512 2.32837 7.8025 2.31235 7.87631C2.29633 7.95012 2.30262 8.02702 2.33038 8.09726C2.35815 8.16749 2.40615 8.22789 2.46831 8.27079C2.53047 8.31369 2.60398 8.33716 2.6795 8.33821C2.72954 8.33927 2.77929 8.33038 2.82587 8.31206C2.87245 8.29375 2.91493 8.26636 2.95084 8.2315L4.67646 6.5699L4.60329 10.4785C4.60208 10.5349 4.612 10.5911 4.63249 10.6437C4.65297 10.6963 4.68363 10.7444 4.7227 10.7851C4.76177 10.8259 4.80849 10.8586 4.8602 10.8813C4.9119 10.904 4.96757 10.9163 5.02402 10.9175C5.13735 10.9196 5.24693 10.8769 5.32891 10.7986C5.41193 10.7185 5.46012 10.609 5.46305 10.4937L5.53622 6.5821L7.65209 8.78333C7.72332 8.85498 7.81939 8.89646 7.92039 8.89919C7.99523 8.89996 8.06865 8.87868 8.13148 8.83799C8.1943 8.79731 8.24373 8.73903 8.27365 8.67042C8.30356 8.60182 8.31264 8.52591 8.2997 8.4522C8.28675 8.37848 8.25239 8.3102 8.20089 8.25589L6.085 6.05465L9.33503 6.11868C9.44842 6.11726 9.55698 6.07261 9.63857 5.99385C9.72016 5.91509 9.76861 5.80817 9.77404 5.69489C9.77479 5.63728 9.76353 5.58013 9.74096 5.52711C9.71838 5.47409 9.68501 5.42636 9.64297 5.38696Z" fill="#CAAADA"/>
<path d="M15.8867 1.8381L15.6275 0.661255L15.2586 2.70395C14.0765 9.19231 10.4448 14.9777 5.11523 18.8626C10.3042 23.2648 13.906 29.2474 15.3684 35.8932L15.6275 37.07L15.9995 35.0304C17.1784 28.5416 20.8095 22.7554 26.1398 18.8717C20.9502 14.4688 17.3484 8.48495 15.8867 1.8381Z" fill="#CAAADA"/>
<path d="M28.7314 21.1278L28.6216 20.637L28.4692 21.4876C27.9777 24.1894 26.4658 26.5987 24.2466 28.2163C26.4067 30.0484 27.9061 32.5385 28.5149 35.3047L28.6216 35.7925L28.7771 34.945C29.268 32.2429 30.78 29.8335 32.9997 28.2163C30.8387 26.3849 29.3391 23.8945 28.7314 21.1278Z" fill="#CAAADA"/>
<path d="M30.0698 11.1827C30.0913 11.469 30.0274 11.7552 29.8863 12.0052C29.7451 12.2551 29.533 12.4576 29.2767 12.587C29.0205 12.7164 28.7316 12.7669 28.4466 12.7321C28.1616 12.6972 27.8934 12.5787 27.6759 12.3914C27.4583 12.2041 27.3012 11.9565 27.2243 11.6799C27.1475 11.4033 27.1544 11.1102 27.2442 10.8375C27.3341 10.5648 27.5027 10.325 27.7289 10.1482C27.9551 9.97137 28.2286 9.86563 28.5149 9.84431C28.7049 9.82976 28.896 9.85288 29.0771 9.91232C29.2582 9.97176 29.4258 10.0664 29.5702 10.1907C29.7147 10.3151 29.8331 10.4667 29.9189 10.6369C30.0046 10.8072 30.0559 10.9926 30.0698 11.1827Z" fill="#CAAADA"/>
<path d="M32.4815 5.8168C32.4926 5.9486 32.4642 6.08072 32.4001 6.1964C32.336 6.31209 32.239 6.40613 32.1214 6.4666C32.0037 6.52706 31.8708 6.55123 31.7394 6.53603C31.608 6.52084 31.4841 6.46696 31.3834 6.38124C31.2827 6.29552 31.2097 6.18181 31.1737 6.05454C31.1376 5.92727 31.1403 5.79218 31.1811 5.6664C31.222 5.54061 31.2993 5.4298 31.4033 5.34802C31.5072 5.26624 31.6331 5.21717 31.765 5.20704C31.9407 5.19354 32.1147 5.25007 32.2489 5.3643C32.3831 5.47853 32.4667 5.64118 32.4815 5.8168Z" fill="#CAAADA"/>
</svg>
