<svg width="45" height="45" viewBox="0 0 45 45" fill="none" xmlns="http://www.w3.org/2000/svg">
<rect x="0.0551758" y="0.334961" width="44" height="43.9104" rx="10" fill="#FAEFFF"/>
<g clip-path="url(#clip0_241_255)">
<path d="M28.8919 26.6903H20.2862C19.5031 26.6848 18.7445 26.4165 18.1326 25.9288C17.5207 25.441 17.091 24.762 16.9125 24.001L15.5411 18.4375C15.4149 17.9209 15.4084 17.3824 15.5222 16.8629C15.6359 16.3435 15.8668 15.8567 16.1974 15.4397C16.528 15.0227 16.9495 14.6865 17.4299 14.4565C17.9103 14.2265 18.4369 14.1089 18.9696 14.1126H30.2839C30.8167 14.1089 31.3433 14.2265 31.8237 14.4565C32.3041 14.6865 32.7256 15.0227 33.0562 15.4397C33.3868 15.8567 33.6177 16.3435 33.7314 16.8629C33.8451 17.3824 33.8387 17.9209 33.7125 18.4375L32.3411 24.0146C32.1559 24.7851 31.7135 25.4698 31.0867 25.9561C30.4598 26.4424 29.6858 26.7013 28.8919 26.6903ZM18.9285 15.8234C18.6575 15.8242 18.3901 15.8862 18.1465 16.0048C17.9029 16.1233 17.6893 16.2954 17.5218 16.508C17.3542 16.7206 17.2371 16.9683 17.179 17.2325C17.121 17.4968 17.1237 17.7707 17.1868 18.0337L18.5582 23.6109C18.6511 24.0017 18.8738 24.3497 19.19 24.5982C19.5062 24.8467 19.8974 24.9811 20.2999 24.9795H28.8919C29.2944 24.9811 29.6856 24.8467 30.0019 24.5982C30.3181 24.3497 30.5408 24.0017 30.6337 23.6109L32.0051 18.0337C32.0696 17.7705 32.0732 17.4962 32.0158 17.2314C31.9583 16.9666 31.8412 16.7183 31.6734 16.5054C31.5056 16.2924 31.2915 16.1203 31.0472 16.0022C30.8029 15.884 30.5348 15.8229 30.2634 15.8234H18.9285Z" fill="#333333"/>
<path d="M16.5421 19.895C16.3462 19.8927 16.1571 19.8236 16.0062 19.6991C15.8552 19.5746 15.7515 19.4022 15.7124 19.2107L14.4849 13.8936C14.3716 13.4092 14.0969 12.9776 13.7057 12.6693C13.3146 12.361 12.8302 12.1943 12.3318 12.1965H11.2141C10.9867 12.1965 10.7687 12.1064 10.608 11.9459C10.4472 11.7855 10.3569 11.5679 10.3569 11.3411C10.3569 11.1142 10.4472 10.8966 10.608 10.7362C10.7687 10.5758 10.9867 10.4857 11.2141 10.4857H12.3318C13.2176 10.4826 14.0783 10.7794 14.7732 11.3275C15.4682 11.8756 15.9564 12.6427 16.1581 13.5035L17.3786 18.8207C17.4051 18.9299 17.4095 19.0432 17.3917 19.1542C17.3738 19.2651 17.3341 19.3714 17.2748 19.4669C17.2154 19.5624 17.1377 19.6452 17.0461 19.7105C16.9544 19.7757 16.8507 19.8222 16.7409 19.8471C16.6765 19.87 16.6099 19.886 16.5421 19.895ZM20.4164 34.0946C19.8739 34.0946 19.3436 33.9341 18.8925 33.6333C18.4415 33.3325 18.0899 32.905 17.8823 32.4049C17.6747 31.9047 17.6204 31.3543 17.7262 30.8233C17.832 30.2924 18.0933 29.8046 18.4769 29.4218C18.8605 29.039 19.3492 28.7783 19.8813 28.6727C20.4133 28.5671 20.9648 28.6213 21.466 28.8284C21.9672 29.0356 22.3956 29.3865 22.697 29.8366C22.9984 30.2868 23.1592 30.816 23.1592 31.3574C23.1592 32.0833 22.8702 32.7796 22.3559 33.2929C21.8415 33.8062 21.1438 34.0946 20.4164 34.0946ZM20.4164 30.3035C20.2102 30.3035 20.0087 30.3645 19.8373 30.4788C19.6659 30.5931 19.5323 30.7556 19.4534 30.9456C19.3745 31.1357 19.3539 31.3448 19.3941 31.5466C19.4343 31.7484 19.5336 31.9337 19.6794 32.0792C19.8251 32.2246 20.0108 32.3237 20.213 32.3638C20.4152 32.404 20.6248 32.3834 20.8152 32.3047C21.0057 32.2259 21.1685 32.0926 21.283 31.9216C21.3975 31.7505 21.4586 31.5494 21.4586 31.3437C21.4586 31.0678 21.3488 30.8032 21.1534 30.6082C20.9579 30.4131 20.6928 30.3035 20.4164 30.3035ZM29.8929 34.0946C29.3504 34.0946 28.8201 33.9341 28.3691 33.6333C27.918 33.3325 27.5665 32.905 27.3589 32.4049C27.1513 31.9047 27.0969 31.3543 27.2028 30.8233C27.3086 30.2924 27.5698 29.8046 27.9534 29.4218C28.337 29.039 28.8258 28.7783 29.3578 28.6727C29.8899 28.5671 30.4414 28.6213 30.9426 28.8284C31.4438 29.0356 31.8721 29.3865 32.1735 29.8366C32.4749 30.2868 32.6358 30.816 32.6358 31.3574C32.6358 32.0833 32.3468 32.7796 31.8324 33.2929C31.318 33.8062 30.6204 34.0946 29.8929 34.0946ZM29.8929 30.3035C29.6871 30.3049 29.4862 30.367 29.3158 30.4821C29.1453 30.5972 29.0127 30.7602 28.9349 30.9503C28.8571 31.1405 28.8374 31.3494 28.8784 31.5508C28.9194 31.7521 29.0192 31.9368 29.1652 32.0816C29.3112 32.2263 29.497 32.3247 29.699 32.3643C29.901 32.4039 30.1102 32.3829 30.3002 32.304C30.4903 32.2251 30.6527 32.0917 30.7669 31.9208C30.8811 31.7499 30.9421 31.5491 30.9421 31.3437C30.9421 31.2065 30.9149 31.0707 30.8621 30.944C30.8093 30.8174 30.7319 30.7024 30.6344 30.6057C30.5369 30.5091 30.4212 30.4326 30.2939 30.3807C30.1667 30.3288 30.0304 30.3026 29.8929 30.3035Z" fill="#333333"/>
<path d="M29.8927 30.3035H18.4687C17.7613 30.3035 17.0828 30.0231 16.5825 29.5238C16.0823 29.0246 15.8013 28.3475 15.8013 27.6415C15.8013 26.9355 16.0823 26.2584 16.5825 25.7592C17.0828 25.26 17.7613 24.9795 18.4687 24.9795H20.2858C20.5132 24.9795 20.7312 25.0696 20.8919 25.2301C21.0527 25.3905 21.143 25.6081 21.143 25.8349C21.143 26.0618 21.0527 26.2794 20.8919 26.4398C20.7312 26.6002 20.5132 26.6903 20.2858 26.6903H18.4687C18.2159 26.6903 17.9735 26.7905 17.7947 26.9689C17.616 27.1473 17.5156 27.3892 17.5156 27.6415C17.5156 27.8938 17.616 28.1357 17.7947 28.3141C17.9735 28.4925 18.2159 28.5927 18.4687 28.5927H29.8927C30.12 28.5927 30.338 28.6828 30.4988 28.8433C30.6595 29.0037 30.7498 29.2212 30.7498 29.4481C30.7498 29.675 30.6595 29.8926 30.4988 30.053C30.338 30.2134 30.12 30.3035 29.8927 30.3035Z" fill="#333333"/>
</g>
<defs>
<clipPath id="clip0_241_255">
<rect width="24" height="23.9511" fill="white" transform="translate(10.0552 10.3146)"/>
</clipPath>
</defs>
</svg>
