<svg width="15" height="15" viewBox="0 0 15 15" fill="none" xmlns="http://www.w3.org/2000/svg">
<g clip-path="url(#clip0_241_759)">
<path d="M11.8603 2.78149C11.6595 2.78149 11.4961 2.94488 11.4961 3.14565C11.4961 3.34643 11.6595 3.50981 11.8603 3.50981C12.0611 3.50981 12.2244 3.34646 12.2244 3.14565C12.2244 2.94485 12.0611 2.78149 11.8603 2.78149Z" fill="#43595C"/>
<path d="M7.49988 4.27734C5.71975 4.27734 4.27148 5.72561 4.27148 7.50574C4.27148 9.28588 5.71975 10.7342 7.49988 10.7342C9.28005 10.7342 10.7283 9.28591 10.7283 7.50577C10.7283 5.72563 9.28005 4.27734 7.49988 4.27734Z" fill="#43595C"/>
<path d="M10.888 0.00585938H4.11202C1.84465 0.00585938 0 1.85051 0 4.11791V10.8938C0 13.1612 1.84465 15.0059 4.11202 15.0059H10.888C13.1554 15.0059 15 13.1612 15 10.8938V4.11791C15 1.85051 13.1554 0.00585938 10.888 0.00585938ZM7.5 11.6201C5.2314 11.6201 3.38581 9.77446 3.38581 7.50586C3.38581 5.23726 5.23143 3.3917 7.5 3.3917C9.76857 3.3917 11.6142 5.23729 11.6142 7.50586C11.6142 9.77443 9.76857 11.6201 7.5 11.6201ZM11.8603 4.39559C11.171 4.39559 10.6103 3.83484 10.6103 3.14561C10.6103 2.45637 11.171 1.8956 11.8603 1.8956C12.5495 1.8956 13.1103 2.45634 13.1103 3.14558C13.1103 3.83481 12.5495 4.39559 11.8603 4.39559Z" fill="#43595C"/>
</g>
<defs>
<clipPath id="clip0_241_759">
<rect width="15" height="15" fill="white" transform="translate(0 0.00585938)"/>
</clipPath>
</defs>
</svg>
