<svg width="24" height="25" viewBox="0 0 24 25" fill="none" xmlns="http://www.w3.org/2000/svg">
<path d="M19 4.79492H5C4.20435 4.79492 3.44129 5.11099 2.87868 5.6736C2.31607 6.23621 2 6.99927 2 7.79492V17.7949C2 18.5906 2.31607 19.3536 2.87868 19.9162C3.44129 20.4789 4.20435 20.7949 5 20.7949H19C19.7956 20.7949 20.5587 20.4789 21.1213 19.9162C21.6839 19.3536 22 18.5906 22 17.7949V7.79492C22 6.99927 21.6839 6.23621 21.1213 5.6736C20.5587 5.11099 19.7956 4.79492 19 4.79492V4.79492ZM18.59 6.79492L12.71 12.6749C12.617 12.7687 12.5064 12.843 12.3846 12.8938C12.2627 12.9446 12.132 12.9707 12 12.9707C11.868 12.9707 11.7373 12.9446 11.6154 12.8938C11.4936 12.843 11.383 12.7687 11.29 12.6749L5.41 6.79492H18.59ZM20 17.7949C20 18.0601 19.8946 18.3145 19.7071 18.502C19.5196 18.6896 19.2652 18.7949 19 18.7949H5C4.73478 18.7949 4.48043 18.6896 4.29289 18.502C4.10536 18.3145 4 18.0601 4 17.7949V8.20492L9.88 14.0849C10.4425 14.6467 11.205 14.9623 12 14.9623C12.795 14.9623 13.5575 14.6467 14.12 14.0849L20 8.20492V17.7949Z" fill="#556987"/>
</svg>
