<svg width="24" height="25" viewBox="0 0 24 25" fill="none" xmlns="http://www.w3.org/2000/svg">
<path d="M14.8302 12.0849L10.5902 7.84487C10.4972 7.75114 10.3866 7.67675 10.2648 7.62598C10.1429 7.57521 10.0122 7.54907 9.88019 7.54907C9.74818 7.54907 9.61747 7.57521 9.49561 7.62598C9.37375 7.67675 9.26315 7.75114 9.17019 7.84487C8.98394 8.03223 8.87939 8.28568 8.87939 8.54987C8.87939 8.81406 8.98394 9.06751 9.17019 9.25487L12.7102 12.7949L9.17019 16.3349C8.98394 16.5222 8.87939 16.7757 8.87939 17.0399C8.87939 17.3041 8.98394 17.5575 9.17019 17.7449C9.26363 17.8376 9.37444 17.9109 9.49628 17.9606C9.61812 18.0104 9.74858 18.0356 9.88019 18.0349C10.0118 18.0356 10.1423 18.0104 10.2641 17.9606C10.3859 17.9109 10.4967 17.8376 10.5902 17.7449L14.8302 13.5049C14.9239 13.4119 14.9983 13.3013 15.0491 13.1794C15.0998 13.0576 15.126 12.9269 15.126 12.7949C15.126 12.6629 15.0998 12.5322 15.0491 12.4103C14.9983 12.2884 14.9239 12.1778 14.8302 12.0849Z" fill="#F0FDF4"/>
</svg>
