<svg width="14" height="11" viewBox="0 0 14 11" fill="none" xmlns="http://www.w3.org/2000/svg">
<path d="M5.4024 0.345502C3.1524 0.839252 1.3774 2.45175 0.689902 4.62675C0.396152 5.5455 0.339902 6.183 0.346152 8.533C0.352402 10.1705 0.358652 10.3955 0.427402 10.1018C0.564902 9.43925 0.977402 8.93925 1.60865 8.6455C1.89615 8.508 1.9024 8.508 1.9024 8.21425V7.91425H2.4524C3.12115 7.91425 3.6899 7.7955 4.23365 7.55175C4.84615 7.2705 5.17115 7.02675 5.9399 6.27675L6.6274 5.60175L7.0274 6.108C7.72115 6.98925 8.53365 7.52675 9.55865 7.78925C9.95865 7.88925 10.2524 7.91425 11.1649 7.91425H12.2774V8.21425C12.2774 8.508 12.2837 8.508 12.5774 8.6455C13.2024 8.93925 13.6087 9.43925 13.7587 10.1018C13.8212 10.3893 13.8337 9.97675 13.8149 7.66425C13.8024 5.37675 13.7837 4.82675 13.7024 4.56425C13.4337 3.6705 12.7649 2.88925 11.9524 2.508C11.6649 2.37675 11.3212 2.13925 11.0274 1.87675C10.2399 1.1705 9.39615 0.701753 8.38365 0.408002C7.72115 0.214252 6.1399 0.183002 5.4024 0.345502Z" fill="#152E60"/>
</svg>
