<svg width="46" height="40" viewBox="0 0 46 40" fill="none" xmlns="http://www.w3.org/2000/svg">
<path opacity="0.4" d="M7.027 17.6828L1.71998 18.5392C0.978276 18.6589 0.37441 17.9486 0.61198 17.2358L1.26838 15.2665C1.31483 15.1271 1.3889 15.0024 1.49014 14.8959C5.04777 11.156 11.9425 3.85936 12.224 3.36679C12.4001 3.05856 13.4461 1.56454 14.2915 0.416214C14.7506 -0.207428 15.453 0.0192501 15.5124 0.791383L15.5244 0.946966C15.5707 1.54873 16.1611 1.95384 16.7392 1.78054C17.4956 1.55381 18.1804 2.29887 17.8909 3.03351L16.7964 5.81038C16.4362 6.72435 17.472 7.55553 18.2863 7.0059L22.2592 4.32416C22.563 4.11906 22.9547 4.09666 23.28 4.26579L24.4147 4.85584C24.761 5.0359 25.1803 4.99806 25.4888 4.75893L29.9671 1.28697C30.6241 0.777542 31.5798 1.24585 31.5798 2.07728V5.31113C31.5798 5.86342 32.0275 6.31113 32.5798 6.31113H37.2063C37.3243 6.31113 37.4413 6.33201 37.552 6.37279L40.1208 7.31919C40.5139 7.46403 40.7751 7.83857 40.7751 8.25753V8.32877C40.7751 8.63255 40.9132 8.91986 41.1504 9.10963L41.9353 9.73758C42.0525 9.83137 42.1472 9.95035 42.2121 10.0857L42.9606 11.645C43.1008 11.9371 43.3738 12.1431 43.6931 12.1979L44.6611 12.3638C45.4059 12.4915 45.7454 13.3673 45.2813 13.9637L25.6869 39.1386C25.3146 39.6171 24.6055 39.6568 24.1821 39.2228L10.5463 25.2487C10.4182 25.1173 10.2563 25.0238 10.0785 24.9783L7.54098 24.3292C6.98366 24.1866 6.66125 23.6044 6.83615 23.0563L8.13897 18.9741C8.36569 18.2637 7.76316 17.564 7.027 17.6828Z" fill="#F0B5CB"/>
</svg>
