<svg width="33" height="33" viewBox="0 0 33 33" fill="none" xmlns="http://www.w3.org/2000/svg">
<path d="M15.8983 2.68933C15.4921 2.87683 15.0858 3.33308 14.9546 3.75808L14.8483 4.08308L13.9671 4.12058C13.4858 4.14558 11.4233 4.16433 9.39207 4.16433C5.92957 4.16433 5.65457 4.17058 5.07957 4.28933C3.94832 4.52058 3.37957 4.92058 2.96707 5.75183C2.50457 6.68308 2.52332 6.41433 2.54207 13.7268C2.55457 20.4143 2.58582 21.3518 2.81082 22.2893C3.07957 23.4268 3.73582 24.3456 4.59207 24.7768C5.30457 25.1331 5.77332 25.1893 8.11707 25.1893C9.26707 25.1893 13.3046 25.1893 17.0858 25.1893C20.8671 25.1893 24.7483 25.1893 25.7108 25.1893C27.3046 25.1893 27.5108 25.1768 28.0171 25.0518C29.5358 24.6768 30.2483 23.9643 30.4546 22.6331C30.5171 22.2393 30.5546 21.1206 30.5796 18.9143C30.5983 17.1768 30.6483 13.6456 30.6858 11.0643C30.7358 7.67683 30.7358 6.27058 30.6858 6.00183C30.5358 5.19558 30.0483 4.55183 29.3171 4.20808L28.8983 4.00808L23.6108 4.02058L18.3233 4.03933L18.2546 3.80183C18.0983 3.28308 17.6171 2.77683 17.1233 2.60808C16.7671 2.48933 16.2483 2.52058 15.8983 2.68933ZM28.9671 4.84558C29.3671 5.02683 29.6483 5.31433 29.8358 5.73933L30.0108 6.13308L29.9671 10.3831C29.8233 23.1956 29.8483 22.1581 29.6921 22.5018C29.4858 22.9643 29.2983 23.1768 28.9233 23.3831L28.5858 23.5643L26.3358 23.5518C25.0983 23.5456 23.1733 23.5268 22.0546 23.5081C20.9358 23.4893 16.9046 23.4331 13.0858 23.3831C9.27332 23.3331 6.04832 23.2706 5.92957 23.2518C5.37957 23.1581 4.80457 22.6331 4.64832 22.0768C4.57957 21.8268 4.54832 20.7018 4.48582 16.6956C4.44207 13.9081 4.41082 10.3831 4.40457 8.85183C4.39832 6.11433 4.39832 6.06433 4.53582 5.82058C4.71707 5.47683 5.03582 5.16433 5.34207 5.03308C5.57957 4.92683 5.92957 4.91433 10.1858 4.87683C12.7108 4.85808 15.8733 4.82058 17.2108 4.79558C18.5546 4.77058 21.6858 4.74558 24.1796 4.73933C28.4608 4.73308 28.7233 4.73308 28.9671 4.84558Z" fill="#324D90"/>
<path d="M13.2419 10.0081C13.1669 10.0956 13.1731 10.3331 13.2606 11.6831C13.3919 13.5768 13.4856 15.8518 13.4919 17.1331C13.4919 18.1518 13.5169 18.2268 13.8106 18.2268C14.0481 18.2268 15.3169 17.6893 16.5231 17.0706C17.7231 16.4643 18.7669 15.8206 20.0106 14.9331C20.9294 14.2706 21.0481 14.1393 20.9669 13.8706C20.9294 13.7581 19.5044 12.8393 18.2731 12.1331C16.8169 11.2956 14.0294 9.99556 13.5544 9.93306C13.3919 9.90806 13.3044 9.93306 13.2419 10.0081Z" fill="#324D90"/>
<path d="M19.5861 25.8143C19.3611 25.9768 19.4486 26.2143 20.2236 27.4893C20.6361 28.1706 21.0111 28.7706 21.0548 28.8206C21.2361 29.0393 21.6798 28.8706 21.6798 28.5893C21.6798 28.4393 20.2298 26.0018 20.0423 25.8331C19.8923 25.7018 19.7423 25.6956 19.5861 25.8143Z" fill="#324D90"/>
<path d="M11.9359 26.8893C11.2359 27.6206 11.1172 27.7706 11.1172 27.9393C11.1172 28.1831 11.2109 28.2893 11.4359 28.2893C11.5734 28.2893 11.7234 28.1706 12.1359 27.7393C12.9234 26.9268 13.3047 26.4831 13.3047 26.3956C13.3047 26.2268 13.1109 26.0393 12.9297 26.0393C12.7859 26.0393 12.6109 26.1893 11.9359 26.8893Z" fill="#324D90"/>
<path d="M15.9731 26.1269C15.9044 26.1956 15.8794 26.5831 15.8481 27.9519C15.8106 29.5144 15.8169 29.6956 15.9106 29.8019C16.0419 29.9456 16.3169 29.9456 16.4481 29.8019C16.5294 29.7144 16.5481 29.4331 16.5606 27.9706C16.5856 26.0894 16.5731 26.0394 16.2356 26.0394C16.1419 26.0394 16.0231 26.0769 15.9731 26.1269Z" fill="#324D90"/>
</svg>
