<svg width="16" height="16" viewBox="0 0 16 16" fill="none" xmlns="http://www.w3.org/2000/svg">
<g clip-path="url(#clip0_241_754)">
<path d="M15.6462 3.95845L15.6662 4.08912C15.4729 3.40312 14.9509 2.87379 14.2875 2.68112L14.2735 2.67779C13.0262 2.33912 8.00686 2.33912 8.00686 2.33912C8.00686 2.33912 3.0002 2.33245 1.7402 2.67779C1.0642 2.87379 0.541529 3.40312 0.351529 4.07512L0.348196 4.08912C-0.117804 6.52312 -0.121137 9.44779 0.368863 12.0538L0.348196 11.9218C0.541529 12.6078 1.06353 13.1371 1.72686 13.3298L1.74086 13.3331C2.98686 13.6725 8.00753 13.6725 8.00753 13.6725C8.00753 13.6725 13.0135 13.6725 14.2742 13.3331C14.9509 13.1371 15.4735 12.6078 15.6635 11.9358L15.6669 11.9218C15.8789 10.7898 16.0002 9.48712 16.0002 8.15645C16.0002 8.10779 16.0002 8.05845 15.9995 8.00912C16.0002 7.96379 16.0002 7.90979 16.0002 7.85579C16.0002 6.52445 15.8789 5.22179 15.6462 3.95845ZM6.40553 10.4398V5.57779L10.5829 8.01245L6.40553 10.4398Z" fill="#43595C"/>
</g>
<defs>
<clipPath id="clip0_241_754">
<rect width="16" height="16" fill="white" transform="translate(0 0.00585938)"/>
</clipPath>
</defs>
</svg>
