<svg width="28" height="29" viewBox="0 0 28 29" fill="none" xmlns="http://www.w3.org/2000/svg">
<path d="M13.3513 26.3901C12.3509 25.6063 3.06152 16.7869 2.95769 16.6904C2.54742 16.2899 2.2891 15.8745 2.21818 15.4937C2.14474 15.0981 2.26884 14.752 2.59807 14.4306C2.90451 14.1314 3.27932 13.9732 3.682 13.9732C4.17331 13.9732 4.67729 14.2006 5.09769 14.6135L9.30932 18.5646C9.38277 18.6338 9.479 18.6684 9.57271 18.6684C9.67148 18.6684 9.76771 18.6314 9.84116 18.5597C9.98804 18.4162 9.98805 18.1838 9.84369 18.0404L3.11977 11.2608C2.44611 10.6031 2.12955 9.59681 2.92983 8.8155C3.23627 8.51633 3.61109 8.35809 4.01376 8.35809C4.50508 8.35809 5.00905 8.58556 5.42946 8.99847L12.3079 15.5457C12.3813 15.6149 12.4775 15.652 12.5738 15.652C12.67 15.652 12.7688 15.6149 12.8422 15.5432C12.9891 15.3998 12.9916 15.1674 12.8448 15.0215L4.58359 6.75343C4.20117 6.38008 3.97071 5.93256 3.93019 5.4974C3.8922 5.05482 4.05175 4.64438 4.39364 4.31059C4.70008 4.01142 5.0749 3.85318 5.47758 3.85318C5.96889 3.85318 6.47287 4.08065 6.89327 4.49109L15.3191 12.5119C15.3925 12.5811 15.4887 12.6182 15.585 12.6182C15.6812 12.6182 15.78 12.5811 15.8534 12.5094C16.0003 12.366 16.0028 12.1336 15.856 11.9877L9.73732 5.84849C9.35237 5.47267 9.12191 5.02762 9.08393 4.59246C9.04594 4.14988 9.20549 3.73944 9.54738 3.40566C9.85382 3.10648 10.2286 2.94824 10.6313 2.94824C11.1226 2.94824 11.6266 3.17571 12.047 3.58862C14.2908 5.7397 20.1486 11.3647 20.3462 11.5723C21.0983 12.0792 21.2503 11.3127 21.2883 10.8158C21.3313 10.2372 20.6526 8.21715 21.0477 6.39986C21.7112 3.98422 23.6233 4.37982 23.6663 4.3996C24.7148 4.87927 24.5147 5.5963 24.1425 7.03777L24.1045 7.32211C23.7145 9.20616 26.3939 14.7891 26.5914 15.2069C27.6424 17.452 28.853 22.0039 24.844 25.9178C20.45 30.2076 15.0101 28.0096 13.3513 26.3901Z" fill="url(#paint0_radial_165_1668)"/>
<path d="M18.9889 28.7983C16.2942 28.7983 14.0023 27.5398 13.0981 26.667C12.2852 26.0192 7.15425 21.183 2.97555 17.2245C2.80586 17.0638 2.70709 16.9723 2.69696 16.9599C2.22338 16.4976 1.9296 16.0154 1.84603 15.5605C1.74979 15.0437 1.91441 14.5764 2.32975 14.1685C2.70963 13.7976 3.17562 13.6023 3.68213 13.6023C4.27728 13.6023 4.87496 13.8693 5.36627 14.3514L9.57284 18.2976L2.84639 11.5179C2.07143 10.7614 1.68141 9.5078 2.66151 8.55341C3.04139 8.18253 3.50738 7.98721 4.01389 7.98721C4.60904 7.98721 5.20672 8.25424 5.69804 8.73638L12.5714 15.2786L4.31273 7.01304C3.87207 6.58282 3.60108 6.05618 3.55297 5.53201C3.50485 4.97322 3.70239 4.46141 4.12532 4.0485C4.5052 3.67763 4.97119 3.4823 5.4777 3.4823C6.07032 3.4823 6.668 3.74686 7.16185 4.229L15.5851 12.2473L9.46647 6.1081C9.02327 5.67541 8.75229 5.14877 8.7067 4.6246C8.65858 4.06828 8.85612 3.55647 9.27906 3.14357C9.65894 2.77269 10.1249 2.57736 10.6314 2.57736C11.2266 2.57736 11.8243 2.84439 12.3156 3.32653L14.1416 5.07459C17.3959 8.18995 20.1158 10.7984 20.4071 11.0902C20.5489 11.2015 20.7338 11.2435 20.8123 11.2064C20.8629 11.1817 20.9187 11.068 20.9085 10.8281C20.8933 10.4078 20.8325 9.88609 20.7692 9.33472C20.6426 8.22704 20.5109 7.0798 20.6755 6.32321C21.0352 5.01031 21.7417 4.45399 22.2685 4.21416C22.9928 3.88779 23.6943 4.00153 23.8286 4.06334C25.1455 4.66663 24.8846 5.67541 24.525 7.07485L24.5174 7.10947L24.4769 7.39875C24.2135 8.66467 25.5659 12.1633 26.9183 15.0141L26.9385 15.0536C27.8426 16.9822 29.4711 21.9297 25.1151 26.1824C23.1118 28.1332 20.944 28.7983 18.9889 28.7983ZM3.68213 14.344C3.38329 14.344 3.09964 14.4652 2.86665 14.6926C2.62605 14.9275 2.54248 15.155 2.59313 15.427C2.64885 15.7262 2.87424 16.0822 3.22627 16.4283C3.2288 16.4308 3.3301 16.5272 3.50485 16.6904C9.43608 22.3104 13.0171 25.6508 13.5895 26.1008L13.6198 26.128C15.0178 27.4928 20.2121 29.9159 24.5757 25.6557C28.5948 21.7319 27.0829 17.1503 26.2446 15.3602L26.2269 15.3231C25.3557 13.4885 23.3752 9.03802 23.7272 7.26276L23.7855 6.89189C24.1755 5.37871 24.1983 5.06223 23.5373 4.7507C23.3423 4.71608 21.9443 4.55042 21.41 6.49629C21.2757 7.11688 21.4049 8.25177 21.5189 9.25313C21.5847 9.81933 21.6455 10.3559 21.6607 10.8034C21.686 11.5081 21.3441 11.7776 21.1365 11.8765C20.7135 12.0767 20.2095 11.9061 19.8955 11.649L19.8626 11.6193C19.7081 11.4561 16.0334 7.93776 13.6021 5.60866L11.7736 3.85565C11.1506 3.24494 10.3478 3.14357 9.80836 3.67021C9.54498 3.92735 9.42595 4.229 9.4538 4.56279C9.4842 4.91141 9.67667 5.27487 9.9983 5.58888L16.1296 11.7281C16.4183 12.0149 16.4183 12.4847 16.1245 12.7715C15.8434 13.046 15.347 13.0509 15.0583 12.7789L6.62748 4.75564C6.00447 4.1474 5.19912 4.04603 4.66222 4.57268C4.39884 4.82982 4.27981 5.13146 4.30767 5.46525C4.34059 5.81387 4.53306 6.1798 4.85216 6.48887L13.1159 14.7619C13.4071 15.0487 13.4046 15.5185 13.1108 15.8053C12.8297 16.0797 12.3333 16.0847 12.0446 15.8127L5.16367 9.26302C4.54066 8.64984 3.73531 8.55094 3.19841 9.07758C2.54248 9.71796 2.89197 10.5116 3.38835 10.9987L10.1173 17.7833C10.406 18.0701 10.4035 18.5374 10.1097 18.8217C9.82609 19.0987 9.33478 19.1011 9.04606 18.8316L4.83444 14.8806C4.47988 14.5319 4.07214 14.344 3.68213 14.344Z" fill="#EDA600"/>
<path d="M19.741 11.3325C18.3506 14.1042 18.5304 17.9835 20.6173 21.0964C20.8528 21.5167 21.2555 21.3115 21.0503 20.8788C18.5304 15.6149 21.1719 11.822 21.1719 11.822L19.741 11.3325Z" fill="#EDA600"/>
<path d="M14.2732 0.938073C15.038 0.742745 15.8535 0.760052 16.6462 0.940545C17.4338 1.12598 18.2214 1.51664 18.8065 2.15455C19.3788 2.78751 19.7308 3.55646 19.8499 4.36249C19.9613 5.16111 19.8575 5.98446 19.47 6.66687C19.4244 5.90039 19.2876 5.19573 19.0572 4.54546C18.9381 4.22156 18.7989 3.9125 18.6292 3.62074C18.462 3.33146 18.2645 3.04465 18.0543 2.80976C17.6263 2.32762 17.0463 1.9518 16.3955 1.66004C15.7421 1.3584 15.0304 1.13587 14.2732 0.938073Z" fill="#B0BEC5"/>
<path d="M14.4834 3.28203C14.9063 3.01994 15.4356 2.96554 15.9345 3.05208C16.4385 3.13862 16.9197 3.3834 17.2996 3.72213C17.6769 4.06581 17.9454 4.4985 18.1125 4.94849C18.1936 5.17349 18.2341 5.41085 18.2721 5.6408C18.2848 5.87816 18.2848 6.11552 18.2468 6.35288C18.072 6.17239 17.9353 5.99189 17.8061 5.81634C17.6567 5.65069 17.5402 5.47514 17.406 5.31443C17.1426 4.99547 16.8868 4.70619 16.6107 4.44905C16.3271 4.19933 16.0283 3.97927 15.6813 3.78889C15.3369 3.59356 14.9494 3.43038 14.4834 3.28203Z" fill="#90A4AE"/>
<path d="M0.00484046 18.9478C0.36193 19.6302 0.734214 20.2632 1.16728 20.822C1.59781 21.3808 2.09166 21.8555 2.66655 22.1645C2.94513 22.3154 3.27689 22.4464 3.60106 22.5453C3.92776 22.6467 4.26712 22.7159 4.61661 22.7629C5.3156 22.847 6.05003 22.8321 6.82753 22.7159C6.22478 23.2277 5.41943 23.4997 4.59888 23.559C3.76821 23.6134 2.92487 23.4379 2.17017 23.0225C1.4104 22.5997 0.853244 21.9272 0.503753 21.2126C0.154261 20.4931 -0.0331478 19.7192 0.00484046 18.9478Z" fill="#B0BEC5"/>
<path d="M2.39815 18.6585C2.64381 19.0739 2.88693 19.4077 3.15285 19.6994C3.41624 19.9912 3.69988 20.231 4.00885 20.4486C4.32289 20.6588 4.66731 20.8442 5.04213 21.0296C5.22954 21.1236 5.42961 21.1978 5.62715 21.3066C5.83229 21.3931 6.03996 21.4846 6.25776 21.6156C6.02729 21.6997 5.79177 21.7491 5.55117 21.7862C5.31311 21.7961 5.06746 21.8085 4.82433 21.7763C4.33808 21.7121 3.85183 21.5464 3.42637 21.2571C3.0085 20.9629 2.66154 20.5549 2.4716 20.0926C2.27912 19.6327 2.22341 19.1184 2.39815 18.6585Z" fill="#90A4AE"/>
<defs>
<radialGradient id="paint0_radial_165_1668" cx="0" cy="0" r="1" gradientUnits="userSpaceOnUse" gradientTransform="translate(9.42992 9.22096) rotate(-44.3127) scale(22.7765 22.77)">
<stop offset="0.3533" stop-color="#FFCA28"/>
<stop offset="0.8723" stop-color="#FFB300"/>
</radialGradient>
</defs>
</svg>
