<svg width="24" height="25" viewBox="0 0 24 25" fill="none" xmlns="http://www.w3.org/2000/svg">
<path d="M2.75 21.0483C2.5375 21.0483 2.35938 20.976 2.21563 20.8314C2.07187 20.6868 2 20.5076 2 20.2939C2 20.0802 2.07187 19.9024 2.21563 19.7608C2.35938 19.6191 2.5375 19.5483 2.75 19.5483H21.25C21.4625 19.5483 21.6406 19.6206 21.7844 19.7652C21.9281 19.9098 22 20.0889 22 20.3027C22 20.5164 21.9281 20.6941 21.7844 20.8358C21.6406 20.9774 21.4625 21.0483 21.25 21.0483H2.75ZM4.24705 18.0483C3.89902 18.0483 3.60417 17.9268 3.3625 17.6837C3.12083 17.4406 3 17.1455 3 16.7983V12.5483C3 12.2011 3.12182 11.9059 3.36545 11.6629C3.60907 11.4198 3.9049 11.2983 4.25295 11.2983C4.60098 11.2983 4.89583 11.4198 5.1375 11.6629C5.37917 11.9059 5.5 12.2011 5.5 12.5483V16.7983C5.5 17.1455 5.37818 17.4406 5.13455 17.6837C4.89093 17.9268 4.5951 18.0483 4.24705 18.0483ZM9.39705 18.0483C9.04902 18.0483 8.75417 17.9268 8.5125 17.6837C8.27083 17.4406 8.15 17.1455 8.15 16.7983V7.54828C8.15 7.20106 8.27182 6.90592 8.51545 6.66285C8.75907 6.4198 9.0549 6.29828 9.40295 6.29828C9.75098 6.29828 10.0458 6.4198 10.2875 6.66285C10.5292 6.90592 10.65 7.20106 10.65 7.54828V16.7983C10.65 17.1455 10.5282 17.4406 10.2845 17.6837C10.0409 17.9268 9.7451 18.0483 9.39705 18.0483ZM14.5721 18.0483C14.224 18.0483 13.9292 17.9268 13.6875 17.6837C13.4458 17.4406 13.325 17.1455 13.325 16.7983V10.5483C13.325 10.2011 13.4468 9.90592 13.6904 9.66285C13.9341 9.4198 14.2299 9.29828 14.5779 9.29828C14.926 9.29828 15.2208 9.4198 15.4625 9.66285C15.7042 9.90592 15.825 10.2011 15.825 10.5483V16.7983C15.825 17.1455 15.7032 17.4406 15.4596 17.6837C15.2159 17.9268 14.9201 18.0483 14.5721 18.0483ZM19.7471 18.0483C19.399 18.0483 19.1042 17.9268 18.8625 17.6837C18.6208 17.4406 18.5 17.1455 18.5 16.7983V4.54828C18.5 4.20106 18.6218 3.90592 18.8654 3.66285C19.1091 3.4198 19.4049 3.29828 19.753 3.29828C20.101 3.29828 20.3958 3.4198 20.6375 3.66285C20.8792 3.90592 21 4.20106 21 4.54828V16.7983C21 17.1455 20.8782 17.4406 20.6346 17.6837C20.3909 17.9268 20.0951 18.0483 19.7471 18.0483Z" fill="#8708C2"/>
</svg>
