<svg width="24" height="25" viewBox="0 0 24 25" fill="none" xmlns="http://www.w3.org/2000/svg">
<path d="M5.50781 2.31859C4.35938 2.51078 3.46875 3.23265 3.13594 4.24515L3.02344 4.58734V12.2983V20.0092L3.13594 20.3514C3.46875 21.3733 4.35938 22.0905 5.53594 22.278C5.73281 22.3108 8.37656 22.3295 13.4203 22.3295H21V21.2983V20.267H13.4203C8.02969 20.267 5.77969 20.253 5.64844 20.2155C4.89375 20.0045 4.8 18.8045 5.50781 18.4436L5.7375 18.3217L13.3688 18.3077L21 18.2983L20.9906 11.0186L20.9766 3.74359L20.8172 3.41547C20.5406 2.85297 20.0203 2.44984 19.4156 2.31859C19.1156 2.25765 5.88281 2.25297 5.50781 2.31859Z" fill="#7A7E86" fill-opacity="0.7"/>
</svg>
