<svg width="48" height="49" viewBox="0 0 48 49" fill="none" xmlns="http://www.w3.org/2000/svg">
<g filter="url(#filter0_d_165_1832)">
<rect x="4" y="4.29828" width="40" height="40" rx="8" fill="white"/>
</g>
<path d="M23.072 17.3561C22.6454 17.5014 22.3267 17.8905 22.2423 18.3545L22.2095 18.5327H19.0782H15.947L15.8064 18.2842C15.5298 17.792 15.0986 17.5483 14.5079 17.5483C14.1939 17.5483 14.0907 17.5717 13.8517 17.6842C12.6892 18.2327 12.7032 19.9014 13.8798 20.4311C14.1423 20.5483 14.2079 20.5577 14.5736 20.5389C15.1689 20.5108 15.5345 20.2905 15.8064 19.8123L15.947 19.5639H17.9861H20.0251L19.6126 19.8358C17.7798 21.0405 16.4954 22.9577 16.1298 25.0483C16.0782 25.3436 16.022 25.6858 16.0079 25.8077C15.9798 26.0139 15.9657 26.0327 15.8532 26.0373C15.5064 26.0467 15.0798 26.3327 14.8829 26.6936C14.747 26.9373 14.7423 26.9702 14.7282 27.6827C14.7142 28.2873 14.7236 28.4655 14.7892 28.6764C14.8923 29.0045 15.122 29.2717 15.4314 29.4264C15.6657 29.5436 15.7079 29.5483 16.5001 29.5483C17.2923 29.5483 17.3345 29.5436 17.5689 29.4264C17.7048 29.3608 17.8876 29.2202 17.9767 29.1123C18.2392 28.8077 18.2954 28.5405 18.2767 27.678C18.2579 26.9608 18.2532 26.942 18.1126 26.6889C17.9345 26.3748 17.6345 26.1452 17.297 26.0655L17.0532 26.0092L17.0861 25.6952C17.1236 25.2686 17.3111 24.5186 17.4845 24.078C18.1267 22.4327 19.2939 21.1389 20.8548 20.342C21.2954 20.117 22.2095 19.7655 22.2376 19.8077C22.2423 19.817 22.2845 19.9202 22.3314 20.042C22.4392 20.342 22.7907 20.6608 23.1142 20.7545C23.4564 20.8577 24.5439 20.8577 24.8907 20.7545C25.2048 20.6608 25.6032 20.2811 25.6923 19.9952C25.7579 19.7702 25.7486 19.7702 26.3204 19.9764C27.8486 20.5155 29.2642 21.7061 30.0704 23.1264C30.4876 23.8623 30.8439 24.9358 30.9142 25.6811L30.947 26.0092L30.7032 26.0655C30.3657 26.1452 30.0657 26.3748 29.8876 26.6889C29.747 26.942 29.7423 26.9608 29.7236 27.6827C29.7142 28.2827 29.7236 28.4655 29.7892 28.6764C29.8923 29.0045 30.122 29.2717 30.4314 29.4264C30.6657 29.5436 30.7079 29.5483 31.5001 29.5483C32.2923 29.5483 32.3345 29.5436 32.5689 29.4264C32.7048 29.3608 32.8876 29.2202 32.9767 29.1123C33.2392 28.8077 33.2954 28.5405 33.272 27.678C33.2579 26.9702 33.2532 26.9373 33.1173 26.6936C32.9204 26.3327 32.4939 26.0467 32.147 26.0373C32.0345 26.0327 32.0204 26.0139 31.9923 25.8077C31.8142 24.3452 31.4017 23.1967 30.6798 22.1186C30.047 21.1764 29.3907 20.5155 28.4626 19.8873L27.9798 19.5639H30.0189H32.0532L32.1939 19.8123C32.4704 20.3045 32.9017 20.5483 33.4923 20.5483C33.8064 20.5483 33.9142 20.5248 34.1486 20.4123C35.297 19.8733 35.297 18.2233 34.1486 17.6842C33.9095 17.567 33.8064 17.5483 33.4876 17.5483C33.1595 17.5483 33.0704 17.567 32.822 17.6936C32.522 17.8389 32.2642 18.0967 32.1329 18.3733L32.0579 18.5327H28.9267H25.7907L25.7579 18.3545C25.6689 17.8764 25.322 17.4686 24.8861 17.342C24.5204 17.2295 23.4048 17.2389 23.072 17.3561ZM24.6142 18.3873C24.722 18.4717 24.7267 18.5045 24.7267 19.0483C24.7267 19.7936 24.722 19.7983 24.0001 19.7983C23.2782 19.7983 23.2736 19.7936 23.2736 19.0483C23.2736 18.303 23.2782 18.2983 24.0001 18.2983C24.4267 18.2983 24.5204 18.3123 24.6142 18.3873Z" fill="#8708C2"/>
<path d="M23.5736 21.9217C23.433 22.0155 23.1752 22.517 21.4033 26.1733C20.1049 28.8545 19.3877 30.392 19.3736 30.5139C19.3408 30.7577 19.458 31.0108 19.6783 31.1795C19.9361 31.3764 20.1236 31.3483 22.0783 30.8186C23.0439 30.5608 23.9111 30.3452 24.0002 30.3452C24.0892 30.3452 24.9986 30.5655 26.0158 30.8374C28.1064 31.3952 28.1064 31.3952 28.4064 31.0952C28.6033 30.8983 28.6736 30.6827 28.6174 30.4295C28.6033 30.3452 27.6892 28.4186 26.5877 26.1499C24.347 21.5374 24.5111 21.8139 24.0002 21.8139C23.7986 21.8139 23.6955 21.842 23.5736 21.9217Z" fill="#8708C2"/>
<defs>
<filter id="filter0_d_165_1832" x="0" y="0.298279" width="48" height="48" filterUnits="userSpaceOnUse" color-interpolation-filters="sRGB">
<feFlood flood-opacity="0" result="BackgroundImageFix"/>
<feColorMatrix in="SourceAlpha" type="matrix" values="0 0 0 0 0 0 0 0 0 0 0 0 0 0 0 0 0 0 127 0" result="hardAlpha"/>
<feOffset/>
<feGaussianBlur stdDeviation="2"/>
<feComposite in2="hardAlpha" operator="out"/>
<feColorMatrix type="matrix" values="0 0 0 0 0 0 0 0 0 0 0 0 0 0 0 0 0 0 0.25 0"/>
<feBlend mode="normal" in2="BackgroundImageFix" result="effect1_dropShadow_165_1832"/>
<feBlend mode="normal" in="SourceGraphic" in2="effect1_dropShadow_165_1832" result="shape"/>
</filter>
</defs>
</svg>
