<svg width="88" height="89" viewBox="0 0 88 89" fill="none" xmlns="http://www.w3.org/2000/svg">
<g filter="url(#filter0_d_165_1490)">
<rect x="22" y="22.2983" width="44" height="44" rx="10" fill="white"/>
</g>
<path d="M40.7328 33.1139C40.2875 33.2217 39.875 33.4608 39.5234 33.817C38.9375 34.403 38.7219 34.9795 38.7641 35.8139C38.7828 36.0858 38.8063 36.3577 38.8203 36.4233C38.8484 36.5311 38.825 36.5545 38.5578 36.6811C37.1891 37.328 35.9891 38.6217 35.4406 40.042C35.0563 41.0311 35.0375 41.153 34.9953 43.2436C34.9531 45.3249 34.9016 45.8499 34.6531 46.8389C34.3156 48.1702 33.7719 49.3327 32.9094 50.5514C32.7734 50.7436 32.75 50.8186 32.75 51.0342C32.75 51.3436 32.8391 51.5264 33.0641 51.6811L33.2422 51.7983H35.2438H37.25V52.0655C37.2547 53.0077 37.8219 54.203 38.5813 54.8733C39.1109 55.342 39.8469 55.717 40.5078 55.853C40.9578 55.9467 41.7969 55.942 42.2563 55.8483C43.8078 55.5295 45.1063 54.2311 45.425 52.6795C45.4672 52.4827 45.5 52.2014 45.5 52.0561V51.7983H47.5063C49.4188 51.7983 49.5125 51.7936 49.6625 51.7045C49.8875 51.5639 50 51.353 50 51.0483C50 50.7999 49.9813 50.7624 49.5688 50.1342C49.1 49.4264 48.7016 48.653 48.4531 47.978C48.2656 47.467 48.1766 47.3311 47.9656 47.2327C47.4313 46.9795 46.8406 47.3358 46.8453 47.903C46.8453 48.2264 47.3188 49.4077 47.7078 50.0733L47.8391 50.2983H41.3984C37.8547 50.2983 34.9531 50.2889 34.9531 50.2749C34.9531 50.2608 35.0375 50.0967 35.1359 49.9092C35.5953 49.0702 36.0547 47.7952 36.2609 46.8061C36.4531 45.8686 36.5 45.292 36.5 43.9092C36.5 41.8045 36.5844 41.2186 37.0156 40.3374C37.6484 39.0295 38.7594 38.1202 40.1797 37.7452C40.5922 37.6374 40.8313 37.6045 41.4078 37.5764C41.8484 37.5577 42.0406 37.4733 42.2047 37.2202C42.3547 37.0045 42.3547 36.592 42.2047 36.3764C42.0172 36.0905 41.8391 36.0249 41.2812 36.0249C41.0094 36.0249 40.6906 36.0389 40.5688 36.0577C40.3531 36.0905 40.3484 36.0905 40.3203 35.9452C40.1609 35.2327 40.6578 34.5952 41.3609 34.5952C41.7172 34.5999 41.9516 34.7077 42.2422 35.017C42.6078 35.4014 42.8984 35.4811 43.2781 35.2983C43.6016 35.1389 43.7422 34.8155 43.6578 34.4124C43.625 34.2483 43.55 34.1405 43.2594 33.8452C42.8656 33.4514 42.425 33.1983 41.9469 33.0999C41.6234 33.0342 41.0422 33.0389 40.7328 33.1139ZM43.9531 51.8827C43.9531 51.9342 43.9109 52.0936 43.8594 52.2436C43.4984 53.2983 42.5234 54.0014 41.4313 54.0061C40.85 54.0108 40.4516 53.8983 40.0016 53.6124C39.4625 53.2655 38.975 52.5811 38.8484 51.9952L38.8063 51.7983H41.3797C43.85 51.7983 43.9531 51.803 43.9531 51.8827Z" fill="#333333"/>
<path d="M48.1953 33.8686C47.4172 34.0092 46.5359 34.3702 45.8562 34.8202C45.425 35.1108 44.764 35.7389 44.4312 36.1889C43.9062 36.8827 43.4703 37.8811 43.3203 38.7389C43.2312 39.2686 43.2265 40.3186 43.3203 40.8389C43.5218 41.992 44.0703 43.0748 44.8859 43.9373C45.7765 44.8702 46.9531 45.5123 48.1906 45.728C48.7203 45.817 49.7703 45.8217 50.2906 45.728C51.439 45.5264 52.5265 44.978 53.3843 44.1623C54.2515 43.342 54.8328 42.3342 55.1187 41.1623C55.2546 40.6045 55.2875 39.3858 55.1843 38.7858C55.0437 37.9655 54.7062 37.1217 54.2234 36.3998C53.9375 35.9639 53.1078 35.1342 52.6671 34.8389C51.9312 34.3467 51.1015 34.0092 50.2906 33.8686C49.8078 33.7842 48.6546 33.7842 48.1953 33.8686ZM49.5968 36.9342C49.7796 37.0327 49.9015 37.2108 49.9531 37.4358C49.9765 37.5342 50 38.4436 50 39.4561V41.2936L50.2062 41.3217C50.4687 41.3639 50.6796 41.4905 50.8015 41.6827C50.8765 41.8045 50.8906 41.8936 50.8765 42.1092C50.8625 42.3389 50.839 42.3998 50.7078 42.5358C50.614 42.6342 50.4734 42.7139 50.3468 42.7467C50.0843 42.8123 48.3921 42.8123 48.1484 42.7467C47.7781 42.6436 47.5203 42.2311 47.614 41.8889C47.7031 41.5702 47.9281 41.3873 48.3031 41.3217L48.5 41.2889V39.953V38.617L48.3921 38.6452C48.3312 38.6592 48.2 38.6498 48.1015 38.6217C47.7265 38.5186 47.4921 38.1014 47.6046 37.7405C47.6796 37.478 47.8671 37.3233 48.3218 37.1405C49.1984 36.7842 49.3015 36.7655 49.5968 36.9342Z" fill="#6B40C1"/>
<defs>
<filter id="filter0_d_165_1490" x="0" y="0.298279" width="88" height="88" filterUnits="userSpaceOnUse" color-interpolation-filters="sRGB">
<feFlood flood-opacity="0" result="BackgroundImageFix"/>
<feColorMatrix in="SourceAlpha" type="matrix" values="0 0 0 0 0 0 0 0 0 0 0 0 0 0 0 0 0 0 127 0" result="hardAlpha"/>
<feOffset/>
<feGaussianBlur stdDeviation="11"/>
<feComposite in2="hardAlpha" operator="out"/>
<feColorMatrix type="matrix" values="0 0 0 0 0.592157 0 0 0 0 0.592157 0 0 0 0 0.592157 0 0 0 0.15 0"/>
<feBlend mode="normal" in2="BackgroundImageFix" result="effect1_dropShadow_165_1490"/>
<feBlend mode="normal" in="SourceGraphic" in2="effect1_dropShadow_165_1490" result="shape"/>
</filter>
</defs>
</svg>
