<svg width="32" height="33" viewBox="0 0 32 33" fill="none" xmlns="http://www.w3.org/2000/svg">
<rect y="0.298248" width="32" height="32" rx="10" fill="#A056C4"/>
<g clip-path="url(#clip0_165_1711)">
<path d="M15.2578 7.01699C14.6797 7.18886 14.4805 7.32558 13.5781 8.16152C12.8984 8.79433 12.8867 8.79824 11.8008 8.84511C10.8086 8.88808 10.4922 8.94277 10.082 9.14589C9.49219 9.44277 9.10938 9.82949 8.82422 10.4232C8.64453 10.8021 8.58594 11.1459 8.54688 12.099C8.5 13.185 8.49609 13.1967 7.86328 13.8764C7.05859 14.7436 6.95312 14.892 6.75391 15.4154C6.65234 15.6732 6.64844 15.7318 6.64844 16.2982C6.64844 16.8646 6.65234 16.9232 6.75391 17.1811C6.95312 17.7045 7.05859 17.8529 7.86328 18.7201C8.49609 19.3998 8.5 19.4115 8.54688 20.4975C8.58594 21.4506 8.64453 21.7943 8.82422 22.1732C9.10938 22.767 9.49219 23.1537 10.082 23.4506C10.4922 23.6537 10.8086 23.7084 11.8008 23.7514C12.8867 23.7982 12.8984 23.8021 13.5781 24.435C13.8633 24.6967 14.1836 24.9857 14.293 25.0795C15.082 25.7396 16.293 25.8686 17.2305 25.392C17.5117 25.2514 17.7383 25.0678 18.4219 24.435C19.1016 23.8021 19.1133 23.7982 20.1992 23.7514C21.1914 23.7084 21.5078 23.6537 21.918 23.4506C22.5078 23.1537 22.8906 22.767 23.1758 22.1732C23.3555 21.7943 23.4141 21.4506 23.4531 20.4975C23.5 19.4115 23.5039 19.3998 24.1367 18.7201C24.3984 18.435 24.6875 18.1146 24.7812 18.0053C25.4492 17.2084 25.5703 16.0053 25.082 15.0561C24.9297 14.7553 24.793 14.5873 24.1367 13.8764C23.5039 13.1967 23.5 13.185 23.4531 12.099C23.4141 11.1107 23.3555 10.7943 23.1523 10.3803C22.8555 9.79043 22.4688 9.40761 21.875 9.12246C21.4961 8.94277 21.1562 8.88417 20.1992 8.84511C19.1133 8.79824 19.1016 8.79433 18.4219 8.16152C17.5117 7.32167 17.2812 7.16542 16.7031 7.00527C16.2891 6.88808 15.6602 6.89589 15.2578 7.01699ZM16.4766 8.29042C16.7188 8.38027 16.9023 8.5248 17.6055 9.18105C18.0156 9.55996 18.1836 9.69277 18.4375 9.81386C18.9141 10.0521 19.0898 10.0873 20.0234 10.1264C20.4844 10.1459 20.9531 10.1811 21.0664 10.2045C21.375 10.2709 21.7148 10.5092 21.8984 10.7943C22.0977 11.1029 22.1289 11.267 22.1719 12.2748C22.2109 13.2084 22.2461 13.3842 22.4844 13.8607C22.6055 14.1146 22.7383 14.2826 23.1172 14.6928C23.9883 15.6264 24.0859 15.7904 24.0859 16.2982C24.0859 16.8061 23.9883 16.9701 23.1172 17.9037C22.7383 18.3139 22.6055 18.4818 22.4844 18.7357C22.2461 19.2123 22.2109 19.3881 22.1719 20.3217C22.1523 20.7826 22.1172 21.2514 22.0938 21.3646C22.0273 21.6732 21.7891 22.0131 21.5039 22.1967C21.1953 22.3959 21.0312 22.4271 20.0234 22.4701C19.0898 22.5092 18.9141 22.5443 18.4375 22.7826C18.1836 22.9037 18.0156 23.0365 17.6055 23.4154C16.6719 24.2865 16.5078 24.3842 16 24.3842C15.4922 24.3842 15.3281 24.2865 14.3945 23.4154C13.9844 23.0365 13.8164 22.9037 13.5625 22.7826C13.0859 22.5443 12.9102 22.5092 11.9766 22.4701C11.5156 22.4506 11.0469 22.4154 10.9336 22.392C10.625 22.3256 10.2852 22.0873 10.1016 21.8021C9.90234 21.4936 9.87109 21.3295 9.82812 20.3217C9.78906 19.3881 9.75391 19.2123 9.51562 18.7357C9.39453 18.4818 9.26172 18.3139 8.88281 17.9037C8.01172 16.9701 7.91406 16.8061 7.91406 16.2982C7.91406 15.7904 8.01172 15.6264 8.88281 14.6928C9.26172 14.2826 9.39453 14.1146 9.51562 13.8607C9.75391 13.3842 9.78906 13.2084 9.82812 12.2748C9.87109 11.267 9.90234 11.1029 10.1016 10.7943C10.2852 10.5092 10.625 10.2709 10.9336 10.2045C11.0469 10.1811 11.5156 10.1498 11.9766 10.1303C13.2539 10.0756 13.5664 9.95058 14.4023 9.17324C15.0898 8.53652 15.2812 8.38027 15.5117 8.29042C15.7773 8.18886 16.2031 8.18886 16.4766 8.29042Z" fill="white"/>
<path d="M19.1328 13.2201C19.0859 13.2435 18.0859 14.2904 16.9141 15.5443C15.7383 16.7943 14.7695 17.8217 14.7539 17.8217C14.7422 17.8217 14.3359 17.3959 13.8516 16.8803C13.3672 16.3607 12.9258 15.9154 12.8672 15.8842C12.8086 15.8529 12.668 15.8295 12.5547 15.8295C12.1719 15.8295 11.9375 16.0678 11.9375 16.4545C11.9414 16.5717 11.9609 16.7084 11.9883 16.7553C12.0703 16.9076 14.3594 19.3334 14.4609 19.3803C14.6133 19.4467 14.9492 19.435 15.082 19.3529C15.2109 19.2709 19.9297 14.2435 20.0117 14.1029C20.0391 14.0521 20.0586 13.9154 20.0625 13.7982C20.0625 13.4037 19.8281 13.1732 19.4375 13.1771C19.3203 13.1771 19.1836 13.1967 19.1328 13.2201Z" fill="white"/>
</g>
<defs>
<clipPath id="clip0_165_1711">
<rect width="20" height="20" fill="white" transform="translate(6 6.29825)"/>
</clipPath>
</defs>
</svg>
