<svg width="48" height="49" viewBox="0 0 48 49" fill="none" xmlns="http://www.w3.org/2000/svg">
<g filter="url(#filter0_d_165_1821)">
<rect x="4" y="4.29828" width="40" height="40" rx="8" fill="white"/>
</g>
<path d="M25.5939 16.3295C25.3314 16.4514 25.2329 16.5451 25.1251 16.7514C25.0782 16.8405 24.1314 20.1076 23.0157 24.0123C21.1314 30.6076 20.9907 31.128 21.0095 31.3998C21.0329 31.7795 21.197 32.028 21.5298 32.1967C22.1626 32.5108 22.8001 32.2014 23.011 31.4842C23.0626 31.3061 23.9907 28.053 25.0782 24.2514C27.2626 16.6014 27.1407 17.1217 26.8595 16.6905C26.5923 16.292 26.0251 16.128 25.5939 16.3295Z" fill="#8708C2"/>
<path d="M17.5547 19.3764C17.2875 19.5077 13.1531 23.6561 13.0547 23.8858C12.9562 24.1295 12.9656 24.5092 13.0781 24.7389C13.2094 25.0108 17.3484 29.1452 17.5875 29.2436C17.8312 29.342 18.2437 29.3327 18.4594 29.2248C18.9422 28.9764 19.1625 28.4045 18.9609 27.917C18.9094 27.7998 18.3328 27.1905 17.1656 26.0186L15.4453 24.2983L17.1656 22.5733C18.3328 21.4061 18.9094 20.7967 18.9609 20.6795C19.1625 20.192 18.9422 19.6202 18.4594 19.3717C18.225 19.2498 17.8031 19.2545 17.5547 19.3764Z" fill="#8708C2"/>
<path d="M29.5548 19.3623C29.0626 19.6202 28.8376 20.1873 29.0392 20.6795C29.0907 20.7967 29.6673 21.4061 30.8345 22.5733L32.5548 24.2983L30.8345 26.0186C29.6673 27.1905 29.0907 27.7998 29.0392 27.917C28.8376 28.4045 29.0579 28.9764 29.5407 29.2248C29.7563 29.3327 30.1688 29.342 30.4126 29.2436C30.6517 29.1452 34.7907 25.0108 34.922 24.7389C35.0345 24.5092 35.0438 24.1295 34.9454 23.8858C34.847 23.6467 30.7126 19.5077 30.4407 19.3764C30.2063 19.2592 29.7563 19.2545 29.5548 19.3623Z" fill="#8708C2"/>
<defs>
<filter id="filter0_d_165_1821" x="0" y="0.298279" width="48" height="48" filterUnits="userSpaceOnUse" color-interpolation-filters="sRGB">
<feFlood flood-opacity="0" result="BackgroundImageFix"/>
<feColorMatrix in="SourceAlpha" type="matrix" values="0 0 0 0 0 0 0 0 0 0 0 0 0 0 0 0 0 0 127 0" result="hardAlpha"/>
<feOffset/>
<feGaussianBlur stdDeviation="2"/>
<feComposite in2="hardAlpha" operator="out"/>
<feColorMatrix type="matrix" values="0 0 0 0 0 0 0 0 0 0 0 0 0 0 0 0 0 0 0.25 0"/>
<feBlend mode="normal" in2="BackgroundImageFix" result="effect1_dropShadow_165_1821"/>
<feBlend mode="normal" in="SourceGraphic" in2="effect1_dropShadow_165_1821" result="shape"/>
</filter>
</defs>
</svg>
