<svg width="32" height="33" viewBox="0 0 32 33" fill="none" xmlns="http://www.w3.org/2000/svg">
<rect y="0.298248" width="32" height="32" rx="10" fill="#A056C4"/>
<path d="M16.7361 11.6169C16.4094 11.7589 16.2508 12.0945 16.3469 12.4129C16.4094 12.6366 16.6976 12.8948 16.9186 12.9378C17.0051 12.9507 18.3215 12.9636 19.8446 12.9636H22.6168L22.8282 12.8646C23.1501 12.7227 23.275 12.529 23.251 12.2107C23.2318 11.9396 23.1549 11.8062 22.9291 11.647C22.809 11.5696 22.6936 11.5653 19.8494 11.5567C17.1973 11.5438 16.8802 11.5524 16.7361 11.6169Z" fill="white"/>
<path d="M12.6213 10.1536C12.4933 10.2133 12.0083 10.6694 11.422 11.2667L10.4412 12.2767L10.2493 12.0866C9.92952 11.7717 9.59905 11.7065 9.20462 11.8912C8.9008 12.0323 8.74089 12.3093 8.74622 12.6894C8.74622 13.064 8.83684 13.2106 9.43915 13.8079C10.0468 14.4161 10.3506 14.5519 10.7664 14.3944C10.9369 14.3292 13.682 11.5654 13.7992 11.3427C13.8419 11.2613 13.8739 11.0767 13.8739 10.93C13.8739 10.2784 13.2023 9.86577 12.6213 10.1536Z" fill="white"/>
<path d="M12.7851 18.1955C12.6465 18.228 12.348 18.4995 11.5485 19.314L10.4931 20.3892L10.2799 20.1883C9.88012 19.8245 9.36842 19.8082 9.01663 20.1557C8.8514 20.3186 8.70748 20.715 8.75545 20.8779C8.76611 20.9105 8.78743 21.0082 8.80875 21.1005C8.8514 21.296 9.85347 22.3548 10.0987 22.4634C10.3225 22.5612 10.669 22.5612 10.8822 22.458C11.1061 22.3494 13.7711 19.6235 13.8404 19.4281C13.8724 19.3412 13.8991 19.1566 13.8991 19.0154C13.8991 18.4507 13.3607 18.0488 12.7851 18.1955Z" fill="white"/>
<path d="M16.8285 19.6799C16.6323 19.749 16.3977 19.9863 16.345 20.1633C16.2541 20.474 16.4073 20.802 16.728 20.9616L16.9195 21.0566L19.8397 21.0479C22.7168 21.035 22.7598 21.035 22.8939 20.9444C23.3678 20.625 23.3678 20.064 22.8939 19.7446C22.7598 19.654 22.7168 19.654 19.854 19.6454C17.9966 19.6411 16.9051 19.654 16.8285 19.6799Z" fill="white"/>
</svg>
