<svg width="32" height="33" viewBox="0 0 32 33" fill="none" xmlns="http://www.w3.org/2000/svg">
<rect y="0.298248" width="32" height="32" rx="10" fill="#A056C4"/>
<path d="M9.09382 9.18262C9.00007 9.23262 8.93444 9.29825 8.88444 9.392L8.81257 9.52637V15.3295C8.81257 21.717 8.80319 21.4326 9.00319 21.9107C9.25632 22.5139 9.70007 22.9795 10.2907 23.2514C10.8001 23.4857 10.2438 23.467 16.8469 23.4764L22.7688 23.4857L22.9063 23.4139C23.0626 23.3326 23.1876 23.1326 23.1876 22.9732C23.1876 22.842 23.0688 22.6139 22.9594 22.5357C22.8719 22.4701 22.8657 22.4701 16.9594 22.4545C11.3157 22.4389 11.0407 22.4357 10.8907 22.3826C10.4219 22.2076 10.1032 21.8951 9.92819 21.4326L9.85944 21.2514L9.84382 15.3451L9.82819 9.43887L9.75319 9.33262C9.66882 9.21387 9.47194 9.11387 9.32507 9.11075C9.27194 9.11075 9.16882 9.142 9.09382 9.18262Z" fill="white"/>
<path d="M21.775 12.492C21.7187 12.5107 21.1375 13.1639 20.0906 14.3857C19.2125 15.4107 18.4437 16.2889 18.3812 16.3357C18.1469 16.5045 17.8281 16.5264 17.5594 16.3889C17.4875 16.3545 17.2125 16.1139 16.9531 15.8607C16.4312 15.3514 16.2719 15.2482 15.85 15.1389C15.2719 14.992 14.6406 15.1389 14.2031 15.5201C14.1187 15.5951 13.3343 16.492 12.4625 17.5107C11.3031 18.8639 10.8656 19.3951 10.8406 19.4826C10.7093 19.9264 11.1781 20.2951 11.5875 20.0701C11.6781 20.0201 12.1468 19.4951 13.3062 18.142C14.5031 16.742 14.9312 16.2639 15.0343 16.2045C15.2125 16.1045 15.5781 16.0951 15.75 16.1857C15.8094 16.217 16.0781 16.4576 16.3437 16.717C16.75 17.117 16.8656 17.2107 17.0625 17.3076C17.725 17.6357 18.4843 17.567 19.0718 17.1295C19.1719 17.0545 22.3531 13.367 22.4406 13.2201C22.5218 13.092 22.5187 12.8545 22.4344 12.7045C22.3156 12.492 22.025 12.3982 21.775 12.492Z" fill="white"/>
</svg>
