<svg width="32" height="33" viewBox="0 0 32 33" fill="none" xmlns="http://www.w3.org/2000/svg">
<rect y="0.298248" width="32" height="32" rx="10" fill="#A056C4"/>
<path d="M11.9714 10.1527L10.6283 11.2306L10.16 10.7678C9.77056 10.3784 9.66334 10.3051 9.47147 10.2768C9.04822 10.2204 8.77734 10.4856 8.77734 10.954C8.77734 11.1798 8.80556 11.2136 9.5279 11.936L10.2785 12.6865H10.5663H10.8541L12.4342 11.4224C13.3033 10.7227 14.0538 10.0963 14.1046 10.0285C14.1554 9.95517 14.1949 9.78587 14.1949 9.65043C14.1949 9.45292 14.161 9.37391 14.0313 9.23847C13.8958 9.10303 13.8168 9.07481 13.5911 9.07481C13.3202 9.07481 13.3033 9.0861 11.9714 10.1527Z" fill="white"/>
<path d="M16.7908 10.4236C16.6045 10.6098 16.5368 10.813 16.5876 11.0274C16.6102 11.1121 16.7005 11.2475 16.7908 11.3378L16.9488 11.5015H19.8664C22.9758 11.5015 23.021 11.4958 23.1677 11.2249C23.2411 11.0839 23.2411 10.6775 23.1677 10.5365C23.021 10.2656 22.9758 10.2599 19.8664 10.2599H16.9488L16.7908 10.4236Z" fill="white"/>
<path d="M11.9714 15.5703L10.6283 16.6481L10.16 16.1854C9.77056 15.796 9.66334 15.7226 9.47147 15.6944C9.04822 15.638 8.77734 15.9032 8.77734 16.3716C8.77734 16.5973 8.80556 16.6312 9.5279 17.3535L10.2785 18.1041H10.5663H10.8541L12.4342 16.84C13.3033 16.1402 14.0538 15.5138 14.1046 15.4461C14.1554 15.3727 14.1949 15.2034 14.1949 15.068C14.1949 14.8705 14.161 14.7915 14.0313 14.656C13.8958 14.5206 13.8168 14.4924 13.5911 14.4924C13.3202 14.4924 13.3033 14.5037 11.9714 15.5703Z" fill="white"/>
<path d="M16.7908 15.8411C16.6045 16.0274 16.5368 16.2305 16.5876 16.445C16.6102 16.5296 16.7005 16.6651 16.7908 16.7554L16.9488 16.919H19.8664C22.9758 16.919 23.021 16.9134 23.1677 16.6425C23.2411 16.5014 23.2411 16.0951 23.1677 15.954C23.021 15.6831 22.9758 15.6775 19.8664 15.6775H16.9488L16.7908 15.8411Z" fill="white"/>
<path d="M16.7908 21.2587C16.6045 21.4449 16.5368 21.6481 16.5876 21.8625C16.6102 21.9472 16.7005 22.0826 16.7908 22.1729L16.9488 22.3366H19.8664C22.9758 22.3366 23.021 22.3309 23.1677 22.0601C23.2411 21.919 23.2411 21.5127 23.1677 21.3716C23.021 21.1007 22.9758 21.0951 19.8664 21.0951H16.9488L16.7908 21.2587Z" fill="white"/>
<path d="M11.9714 20.9878L10.6283 22.0657L10.16 21.6029C9.77056 21.2136 9.66334 21.1402 9.47147 21.112C9.04822 21.0555 8.77734 21.3208 8.77734 21.7892C8.77734 22.0149 8.80556 22.0488 9.5279 22.7711L10.2785 23.5217H10.5663H10.8541L12.4342 22.2576C13.3033 21.5578 14.0538 20.9314 14.1046 20.8637C14.1554 20.7903 14.1949 20.621 14.1949 20.4856C14.1949 20.2881 14.161 20.2091 14.0313 20.0736C13.8958 19.9382 13.8168 19.91 13.5911 19.91C13.3202 19.91 13.3033 19.9212 11.9714 20.9878Z" fill="white"/>
</svg>
