<svg width="43" height="35" viewBox="0 0 43 35" fill="none" xmlns="http://www.w3.org/2000/svg">
<path d="M18.9023 5.06073V14.7379L30.1578 8.30952C30.0533 8.23624 29.9488 8.16703 29.8359 8.10189L17.8909 1.38448C17.3408 1.07464 16.7166 0.911499 16.0811 0.911499C15.4457 0.911499 14.8215 1.07464 14.2714 1.38448L2.32634 8.10189C1.77638 8.41165 1.31969 8.8568 1.00205 9.39271C0.684419 9.92862 0.517008 10.5365 0.516602 11.1553V15.2061L18.9023 5.06073Z" fill="#220F60"/>
<path d="M11.3794 27.1462V17.5775L0.512695 23.3739V24.3071C0.513102 24.9057 0.680539 25.4936 0.998172 26.0119C1.3158 26.5303 1.77248 26.9608 2.32243 27.2604L14.2675 33.7577C14.8176 34.0574 15.4418 34.2152 16.0772 34.2152C16.7127 34.2152 17.3369 34.0574 17.887 33.7577L29.832 27.2604C30.382 26.9608 30.8387 26.5303 31.1563 26.0119C31.474 25.4936 31.6414 24.9057 31.6418 24.3071V15.9551L11.3794 27.1462Z" fill="#FC2262"/>
<path d="M42.4498 7.2425C42.4504 7.68815 42.3584 8.12952 42.179 8.54139C41.9997 8.95327 41.7366 9.32756 41.4047 9.64286C41.0728 9.95817 40.6787 10.2083 40.2448 10.379C39.811 10.5496 39.346 10.6375 38.8764 10.6375C38.279 10.6453 37.6893 10.5088 37.1627 10.2409L13.4565 23.4677V13.8738L0.5 20.8343V17.2053L16.8001 8.44819V17.9311L35.3447 7.57565C35.3383 7.46468 35.3383 7.35347 35.3447 7.2425C35.3447 6.3421 35.7216 5.47857 36.3925 4.84189C37.0635 4.20521 37.9735 3.84753 38.9223 3.84753C39.8712 3.84753 40.7812 4.20521 41.4521 4.84189C42.1231 5.47857 42.5 6.3421 42.5 7.2425H42.4498Z" fill="#8708C2"/>
</svg>
