<svg width="48" height="49" viewBox="0 0 48 49" fill="none" xmlns="http://www.w3.org/2000/svg">
<g filter="url(#filter0_d_165_1842)">
<rect x="4" y="4.29828" width="40" height="40" rx="8" fill="white"/>
</g>
<path d="M19.8282 13.8967C19.2375 13.953 18.8766 14.028 18.3282 14.2014C17.236 14.553 16.5563 15.1201 16.3407 15.8561C16.2797 16.0576 16.2657 16.3436 16.2657 17.1873V18.2608L16.125 18.4248C15.8625 18.7201 15.736 19.0342 15.7125 19.4467C15.7032 19.653 15.7172 19.9061 15.7454 20.0092C15.8719 20.4826 16.3313 20.9936 16.7438 21.1201C16.9032 21.167 16.9266 21.1951 17.0204 21.4811C17.2969 22.3248 17.8782 23.0561 18.6282 23.5014L18.9797 23.7123L18.9844 23.9748C18.9844 24.2842 18.9704 24.2983 18.4454 24.2983C17.7563 24.2983 17.0532 24.392 16.6547 24.528C15.9422 24.7764 15.2907 25.2498 14.8641 25.8311C14.6719 26.0983 14.6438 26.117 14.4329 26.1405C13.9172 26.2014 13.3875 26.5905 13.1391 27.1014C12.886 27.6123 12.9047 27.753 13.5235 30.7436C13.9829 32.9655 14.086 33.4155 14.2172 33.6826L14.3719 34.0014H13.8282C13.425 34.0014 13.261 34.0201 13.186 34.0717C12.975 34.2217 13.0172 34.6014 13.2563 34.6998C13.3454 34.7373 16.4016 34.7467 24.0985 34.742C34.5657 34.728 34.8188 34.728 34.9172 34.6389C35.0672 34.503 35.0532 34.2264 34.8938 34.0998C34.7766 34.0061 34.711 34.0014 33.8063 34.0014H32.85L33.0141 33.8186C33.2063 33.6076 33.3188 33.4061 33.3985 33.1342L33.4547 32.9467L33.825 32.9233C34.0454 32.9092 34.2563 32.867 34.3454 32.8155C34.5375 32.7123 34.711 32.4826 34.7766 32.2436C34.8422 32.0092 34.8422 30.8936 34.7813 30.678C34.6547 30.2373 34.275 29.9701 33.7641 29.9701H33.4688V29.7076C33.4688 29.4405 33.4125 29.2858 33.286 29.1873C33.2297 29.1451 32.686 29.1311 31.0969 29.1264C29.0391 29.1264 28.9829 29.1311 28.8844 29.2201C28.8282 29.2717 28.7719 29.3655 28.7579 29.4217C28.7391 29.4826 28.7344 30.3311 28.7438 31.3061L28.7579 33.0873L28.8797 33.3498C28.95 33.4951 29.0813 33.7014 29.1797 33.8092L29.3532 34.0014H28.2469C27.6375 34.0014 27.1407 33.9873 27.1407 33.9733C27.1407 33.9592 27.1829 33.8842 27.2344 33.8139C27.3985 33.5842 27.4547 33.3592 28.0125 30.6592C28.4719 28.428 28.5516 27.978 28.5329 27.7155C28.4766 26.8295 27.7219 26.1264 26.836 26.1264C26.6016 26.1264 26.5875 26.117 26.461 25.9248C26.1188 25.4092 25.4907 24.8842 24.8813 24.6076C24.3141 24.3451 24.0235 24.2936 23.0532 24.2655L22.1719 24.2373V23.9748C22.1719 23.7123 22.1766 23.703 22.35 23.6233C22.6454 23.4826 23.0813 23.1498 23.3532 22.8498C23.686 22.4936 23.9344 22.0811 24.1219 21.5936C24.2672 21.2045 24.2672 21.2045 24.5485 21.0639C24.8954 20.8905 25.186 20.5858 25.35 20.2295C25.5235 19.8451 25.5282 19.278 25.3547 18.9076C25.2891 18.7623 25.1672 18.5701 25.0829 18.4764L24.9375 18.3076V17.403C24.9329 15.8842 24.8391 15.5233 24.3282 15.0217C23.6954 14.403 22.6782 14.0233 21.3047 13.892C20.7282 13.8405 20.4141 13.8405 19.8282 13.8967ZM19.5657 17.6842C20.161 18.0405 21 18.2561 22.5235 18.4389C22.9641 18.4905 23.3907 18.5467 23.4797 18.5608L23.6344 18.5842L23.6157 19.7186C23.5969 20.7217 23.5829 20.8905 23.4938 21.1576C23.0579 22.4655 21.9141 23.3092 20.5782 23.3139C19.2094 23.3139 17.9907 22.3483 17.6485 20.9936C17.5922 20.7733 17.5782 20.4076 17.5782 19.2592L17.5829 17.8061L18.1219 17.3608L18.6657 16.9155L18.9844 17.2201C19.1579 17.3889 19.4204 17.5951 19.5657 17.6842ZM21.1875 24.7201V25.142H21.3329H21.4829L21.3 25.3436C21.1969 25.4514 21.0047 25.667 20.8688 25.817L20.6204 26.0936L20.1844 25.6295C19.7579 25.1748 19.7485 25.1655 19.8797 25.1514L20.0157 25.1373V24.7155V24.2983H20.6016H21.1875V24.7201ZM18.6329 25.3858C18.8157 25.5733 19.0454 25.817 19.1485 25.9248L19.3313 26.1264H17.461L15.586 26.1217L15.8766 25.8451C16.4016 25.3483 17.1469 25.0623 17.9532 25.053L18.3094 25.0483L18.6329 25.3858ZM27.2579 26.9748C27.3985 27.0451 27.5485 27.1717 27.6282 27.2889C27.8719 27.6358 27.8625 27.7295 27.286 30.5326C27 31.9108 26.7329 33.1342 26.6907 33.2467C26.6438 33.3639 26.5172 33.5467 26.4047 33.6545C26.025 34.0248 26.3813 34.0061 20.6672 33.992L15.586 33.978L15.3704 33.8514C15.1266 33.7061 14.925 33.4905 14.8313 33.2748C14.8032 33.1951 14.5266 31.9436 14.2266 30.4951C13.7157 28.0248 13.6829 27.8373 13.7344 27.6311C13.8235 27.2608 14.1235 26.9701 14.5079 26.8717C14.5875 26.853 17.4329 26.8436 20.836 26.8436L27.0282 26.853L27.2579 26.9748ZM34.0219 30.7764C34.0594 30.8139 34.0782 31.0295 34.0782 31.442C34.0782 32.1826 34.0594 32.2201 33.6469 32.2201H33.375V31.4701V30.7201H33.6704C33.8391 30.7201 33.9891 30.7436 34.0219 30.7764Z" fill="#8708C2"/>
<path d="M18.6891 18.8655C18.2766 19.1842 18.5766 19.892 19.0922 19.8264C19.5656 19.7701 19.7438 19.1514 19.3735 18.8608C19.2094 18.7295 18.8531 18.7342 18.6891 18.8655Z" fill="#8708C2"/>
<path d="M21.8158 18.8514C21.5908 19.0342 21.5345 19.4092 21.708 19.6248C21.9283 19.9061 22.4158 19.8873 22.5986 19.592C22.7439 19.3576 22.7158 19.1139 22.5283 18.9264C22.3924 18.7905 22.3361 18.767 22.1439 18.767C21.9986 18.767 21.8767 18.7998 21.8158 18.8514Z" fill="#8708C2"/>
<path d="M20.3391 19.6998C20.2359 19.7795 20.2266 19.8264 20.2266 20.1873C20.2266 20.6655 20.2969 20.7827 20.5828 20.7827C20.8734 20.7827 20.9531 20.6561 20.9531 20.1967C20.9531 19.8592 20.9391 19.803 20.8453 19.7139C20.7094 19.5873 20.4844 19.5827 20.3391 19.6998Z" fill="#8708C2"/>
<path d="M19.739 21.6545C19.5469 21.8983 19.6594 22.1467 20.0484 22.3295C20.6297 22.6108 21.5156 22.3389 21.5156 21.8842C21.5156 21.678 21.3797 21.5327 21.1875 21.5327C21.1078 21.5327 20.9625 21.5748 20.8594 21.6264C20.6297 21.7436 20.4984 21.7436 20.3203 21.6264C20.114 21.4905 19.8609 21.5045 19.739 21.6545Z" fill="#8708C2"/>
<path d="M20.4422 29.3327C20.0438 29.4639 19.7812 29.8342 19.7812 30.2748C19.7812 31.2498 21.0188 31.6248 21.5859 30.8186C21.7125 30.6405 21.7266 30.5795 21.7266 30.2748C21.7266 29.9702 21.7125 29.9092 21.5859 29.7264C21.3281 29.3608 20.8594 29.2014 20.4422 29.3327Z" fill="#8708C2"/>
<path d="M29.2171 25.7139C28.9734 25.9858 28.9546 26.5436 29.1796 26.8811C29.2968 27.0639 29.3062 27.0967 29.2499 27.2233C29.0859 27.6217 29.189 27.8608 29.5312 27.8608C29.7656 27.8608 29.9249 27.678 30.0046 27.3217C30.0703 27.0264 30.0187 26.7827 29.8359 26.5061C29.7328 26.3561 29.7281 26.3373 29.7937 26.1827C29.8828 25.967 29.8781 25.8827 29.7609 25.7327C29.6343 25.5686 29.3578 25.5639 29.2171 25.7139Z" fill="#8708C2"/>
<path d="M32.0578 26.1405C31.9031 26.2576 31.8094 26.5155 31.8047 26.8342C31.8047 27.092 31.8234 27.1717 31.9359 27.3358C32.0812 27.5608 32.0859 27.603 31.9922 27.828C31.8281 28.2264 32.2125 28.5451 32.5453 28.2826C32.8406 28.0483 32.8969 27.4295 32.6531 27.0592C32.5547 26.9139 32.5312 26.8342 32.5547 26.7405C32.6484 26.3842 32.6391 26.2858 32.5078 26.178C32.3625 26.0701 32.175 26.0514 32.0578 26.1405Z" fill="#8708C2"/>
<path d="M30.6142 26.6233C30.3752 26.928 30.3611 27.4342 30.5861 27.7717C30.7033 27.9545 30.7127 27.9873 30.6564 28.1139C30.5486 28.3764 30.5486 28.4889 30.6564 28.6248C30.7877 28.7936 31.0595 28.803 31.2095 28.6436C31.4767 28.3623 31.5142 27.8186 31.2892 27.4811C31.158 27.2842 31.1439 27.1717 31.2236 26.9983C31.3408 26.7498 31.172 26.5014 30.8908 26.5014C30.7549 26.5014 30.6892 26.5295 30.6142 26.6233Z" fill="#8708C2"/>
<defs>
<filter id="filter0_d_165_1842" x="0" y="0.298279" width="48" height="48" filterUnits="userSpaceOnUse" color-interpolation-filters="sRGB">
<feFlood flood-opacity="0" result="BackgroundImageFix"/>
<feColorMatrix in="SourceAlpha" type="matrix" values="0 0 0 0 0 0 0 0 0 0 0 0 0 0 0 0 0 0 127 0" result="hardAlpha"/>
<feOffset/>
<feGaussianBlur stdDeviation="2"/>
<feComposite in2="hardAlpha" operator="out"/>
<feColorMatrix type="matrix" values="0 0 0 0 0 0 0 0 0 0 0 0 0 0 0 0 0 0 0.25 0"/>
<feBlend mode="normal" in2="BackgroundImageFix" result="effect1_dropShadow_165_1842"/>
<feBlend mode="normal" in="SourceGraphic" in2="effect1_dropShadow_165_1842" result="shape"/>
</filter>
</defs>
</svg>
