<svg width="24" height="25" viewBox="0 0 24 25" fill="none" xmlns="http://www.w3.org/2000/svg">
<g clip-path="url(#clip0_3_31)">
<path d="M13.1954 0.377973C13.1204 0.415473 12.9845 0.51391 12.9001 0.593597C12.6001 0.879535 12.6095 0.706099 12.6095 5.97016C12.6095 11.2717 12.5954 11.0327 12.9235 11.3702C13.247 11.703 13.0079 11.6889 18.3142 11.6889C21.6282 11.6889 23.1282 11.6748 23.2735 11.6373C23.5173 11.5764 23.8173 11.3327 23.9251 11.1077C24.0329 10.8827 24.0235 9.95922 23.911 9.17172C23.7423 8.04204 23.4845 7.18891 22.997 6.1811C22.4485 5.03735 21.8532 4.19829 20.9767 3.32172C19.6501 1.99516 17.9954 1.05297 16.2048 0.598285C15.1173 0.321723 13.5235 0.204535 13.1954 0.377973ZM15.2438 2.45454C16.036 2.6186 17.0954 2.99829 17.5782 3.2936L17.7423 3.39204H16.186H14.6251V2.87641C14.6251 2.43579 14.6345 2.36079 14.7001 2.36079C14.7423 2.36079 14.986 2.40297 15.2438 2.45454ZM20.4985 5.89985C20.6767 6.15766 20.8407 6.4061 20.8642 6.44829C20.9063 6.52797 20.747 6.53266 17.7657 6.53266H14.6251V5.97016V5.40766L17.4001 5.41704L20.1751 5.4311L20.4985 5.89985ZM21.811 8.90922C21.8532 9.11079 21.9048 9.36391 21.9188 9.47172L21.9517 9.67329H18.286H14.6251V9.11079V8.54829H18.1829H21.736L21.811 8.90922Z" fill="#7A7E86" fill-opacity="0.7"/>
<path d="M9.39849 3.58422C6.72662 3.8514 4.26099 5.12172 2.54068 7.11859C-0.215572 10.3202 -0.782759 14.853 1.1063 18.5936C1.64537 19.6577 2.16568 20.3748 3.04224 21.2561C4.71099 22.9295 6.69849 23.9139 9.04693 24.2327C9.62349 24.3077 11.011 24.317 11.5782 24.2514C13.4954 24.017 15.3844 23.2295 16.8516 22.0577C17.0344 21.9123 17.3766 21.603 17.6204 21.3686C19.5329 19.5264 20.7141 16.8311 20.7376 14.2436C20.7422 13.6577 20.7376 13.6248 20.611 13.4139C20.5266 13.2686 20.4047 13.1467 20.2594 13.0623L20.0391 12.9311L15.7172 12.917L11.3954 12.903L11.3813 8.58109L11.3672 4.25922L11.236 4.0389C11.1516 3.89359 11.0297 3.77172 10.8891 3.68734C10.6969 3.57484 10.6126 3.55609 10.2422 3.5514C10.0126 3.54672 9.63287 3.56078 9.39849 3.58422Z" fill="#7A7E86" fill-opacity="0.7"/>
</g>
<defs>
<clipPath id="clip0_3_31">
<rect width="24" height="24" fill="white" transform="translate(0 0.298279)"/>
</clipPath>
</defs>
</svg>
