<svg width="446" height="36" viewBox="0 0 446 36" fill="none" xmlns="http://www.w3.org/2000/svg">
<path opacity="0.1" d="M1 33.1248C4.43039 33.3703 12.4253 33.3539 16.962 31.3244C22.6328 28.7876 44.4758 5.79248 67.7889 12.3391C91.1021 18.8858 107.694 23.5503 115.885 21.3408C124.077 19.1313 137.098 5.13786 145.919 9.39319C154.741 13.6485 163.772 40.5717 173.433 34.025C183.095 27.4784 197.587 7.42922 246.733 17.331C295.88 27.2329 303.861 38.7713 317.513 32.3065C331.165 25.8417 340.616 -7.38259 354.268 3.99223C367.92 15.367 365.609 20.7681 376.321 19.0496C387.032 17.331 385.982 8.6568 401.944 12.9939C417.906 17.331 417.066 20.6044 427.988 18.1494C438.909 15.6944 435.129 11.6028 445 16.1036" stroke="#8708C2" stroke-width="1.5"/>
</svg>
