<svg width="24" height="25" viewBox="0 0 24 25" fill="none" xmlns="http://www.w3.org/2000/svg">
<path d="M8.39073 1.63891C7.93135 1.7186 6.61885 2.35141 5.81729 2.87641C5.06729 3.3686 4.67823 3.75297 4.5751 4.09516C4.46729 4.45141 4.48135 4.73734 4.61729 5.15922C5.06729 6.51859 4.61729 7.84984 3.46416 8.59516C3.09854 8.82953 2.77041 8.95141 2.26416 9.04047C1.09229 9.24672 0.811039 9.80922 0.764165 12.0639C0.712602 14.4592 0.984477 15.0545 2.24541 15.2702C3.2251 15.4389 3.99854 16.0014 4.42979 16.8545C4.79541 17.5858 4.82823 18.3311 4.52354 19.2077C4.30791 19.8405 4.30791 20.1873 4.52823 20.5952C4.83291 21.1623 6.51104 22.2592 7.87979 22.7983C8.63916 23.0983 9.29073 22.9811 9.69385 22.4795C10.0876 21.9827 10.4907 21.6358 10.8892 21.4436C11.3767 21.2139 11.6392 21.153 12.1454 21.153C13.0314 21.153 13.861 21.5467 14.4142 22.2311C14.6907 22.5827 14.9251 22.7373 15.3095 22.8311C15.586 22.9014 15.6329 22.9014 15.9235 22.8264C16.7532 22.6248 18.5064 21.5936 19.2001 20.9045C19.6735 20.4311 19.7532 19.9905 19.5048 19.2123C19.2376 18.3827 19.2751 17.7077 19.636 16.967C20.0485 16.1233 20.8126 15.5608 21.8064 15.3733C22.2376 15.2889 22.4626 15.1811 22.697 14.9373C23.072 14.5483 23.2032 13.9483 23.236 12.4389C23.2548 11.5811 23.2454 11.3327 23.161 10.7795C23.0579 10.0717 22.9595 9.80453 22.7017 9.55141C22.486 9.33109 22.247 9.21859 21.811 9.13422C21.6095 9.09203 21.2673 8.97016 21.047 8.86703C20.3392 8.52485 19.7579 7.83109 19.5189 7.02485C19.3876 6.58422 19.4064 5.86703 19.5657 5.36547C19.7626 4.73734 19.7157 4.25453 19.4251 3.87016C19.1626 3.53266 18.0985 2.77328 17.2501 2.32328C17.0064 2.19203 16.561 1.98578 16.2657 1.86391C15.8017 1.67641 15.6798 1.6436 15.3985 1.6436C14.9204 1.6436 14.7001 1.7561 14.1376 2.30453C13.4204 2.99828 12.8392 3.2561 12.0001 3.2561C11.1564 3.2561 10.5751 2.99828 9.86729 2.30922C9.58135 2.02797 9.30948 1.81235 9.18291 1.7561C8.96729 1.66235 8.5876 1.6061 8.39073 1.63891ZM12.9142 8.68891C13.0454 8.72172 13.3595 8.84828 13.6173 8.97016C14.4189 9.35922 14.9345 9.87484 15.3282 10.6811C15.6048 11.2577 15.7032 11.6748 15.7032 12.3123C15.7032 13.7514 14.8876 15.0311 13.5704 15.6545C13.0314 15.9077 12.6001 16.0014 11.986 16.0014C10.5751 16.0014 9.31416 15.2186 8.69073 13.9623C8.40948 13.3905 8.29698 12.9217 8.29698 12.3123C8.29698 11.6748 8.39541 11.2577 8.67198 10.6811C9.06573 9.87484 9.58135 9.35922 10.3829 8.97016C10.6407 8.84828 10.9595 8.72172 11.086 8.68891C11.6204 8.55766 12.3704 8.55766 12.9142 8.68891Z" fill="#7A7E86" fill-opacity="0.7"/>
</svg>
