<svg width="24" height="25" viewBox="0 0 24 25" fill="none" xmlns="http://www.w3.org/2000/svg">
<path d="M10.7784 1.3433C9.55951 1.59799 8.47408 2.18619 7.64332 3.02907C7.09757 3.58088 6.83682 3.92046 6.53363 4.48441C5.66042 6.1156 5.56946 8.15913 6.29713 9.87522C6.72767 10.9 7.65545 12.0097 8.55291 12.5919C8.91068 12.8223 8.95919 12.8769 8.95919 13.0406C8.95919 13.3074 8.74695 13.7076 8.48014 13.9502C8.34673 14.0714 8.03141 14.2412 7.74034 14.3564C5.16925 15.3388 3.28337 17.0367 2.59815 18.9832L2.38591 19.6017L2.36166 20.8933L2.3374 22.1849L2.49506 22.5124C2.69517 22.9126 3.03475 23.1794 3.46529 23.2704C3.68359 23.3189 6.24256 23.331 12.2034 23.3189C20.2926 23.3007 20.6383 23.2946 20.8444 23.1855C21.1416 23.0278 21.3781 22.7974 21.5297 22.5124C21.657 22.288 21.6631 22.1849 21.6631 21.0571C21.657 19.6866 21.6085 19.4137 21.2083 18.5648C20.4321 16.8972 18.7403 15.4176 16.5573 14.508C15.7144 14.1503 15.4658 13.9987 15.2656 13.7076C15.1504 13.5378 14.9261 12.895 14.9806 12.8708C14.9867 12.8708 15.1868 12.7434 15.4233 12.5858C16.7028 11.749 17.6427 10.4088 18.0308 8.83829C18.2006 8.17126 18.1885 6.57039 18.0065 5.91549C17.6973 4.79367 17.2 3.9144 16.3935 3.08971C15.6234 2.29534 14.6653 1.73139 13.5981 1.44033C12.9796 1.27054 11.3969 1.21596 10.7784 1.3433ZM12.6582 14.9507C12.7673 15.0417 12.8886 15.4358 13.3009 17.0306C13.5799 18.11 13.8042 19.0924 13.8103 19.2076C13.8103 19.3956 13.7315 19.4926 13.0341 20.1899C12.2761 20.9479 12.2519 20.9661 11.9972 20.9661C11.7365 20.9661 11.7122 20.9479 10.9542 20.1899C10.2508 19.4986 10.172 19.3956 10.172 19.2076C10.172 18.8316 11.1422 15.1326 11.2817 14.975C11.3908 14.8537 11.4636 14.8416 11.9669 14.8416C12.4096 14.8416 12.549 14.8658 12.6582 14.9507Z" fill="#7A7E86" fill-opacity="0.7"/>
</svg>
