<svg width="443" height="96" viewBox="0 0 443 96" fill="none" xmlns="http://www.w3.org/2000/svg">
<path d="M1.10913 94.832C8.10395 91.396 8.79935 90.6597 13.1843 85.043C18.7945 77.8571 40.6981 13.1997 64.0113 31.6211C87.3244 50.0424 103.917 63.1678 112.108 56.9506C120.299 50.7334 133.321 11.3577 142.142 23.3316C150.963 35.3055 160.996 103.716 169.656 92.6421C182.469 76.256 193.809 17.8052 242.956 45.6676C292.102 73.5299 300.083 105.998 313.735 87.8065C327.387 69.6154 336.838 -23.8732 350.49 8.13401C364.142 40.1412 361.831 55.339 372.543 50.5033C383.254 45.6676 382.204 21.2595 398.166 33.4635C414.128 45.6676 413.288 54.8784 424.21 47.9704C435.131 41.0624 431.351 29.549 441.222 42.2137" stroke="#8708C2" stroke-width="2"/>
</svg>
